<svg width="203" height="61" viewBox="0 0 203 61" fill="none" xmlns="http://www.w3.org/2000/svg">
<g clip-path="url(#clip0_8260_572)">
<rect x="0.820312" y="0.0888672" width="202.179" height="60.5631" rx="12" fill="white"/>
<path d="M203 54.5809C203.017 55.3621 202.88 56.1391 202.596 56.8672C202.313 57.5954 201.888 58.2606 201.348 58.8247C200.807 59.3888 200.16 59.8408 199.445 60.1549C198.73 60.469 197.96 60.6388 197.178 60.655H6.64949C5.07119 60.6223 3.57023 59.9642 2.47727 58.8251C1.38431 57.686 0.789025 56.1592 0.821581 54.5809V6.1674C0.791457 4.58927 1.38787 3.06376 2.48098 1.92511C3.57408 0.78646 5.07441 0.127611 6.65245 0.0933228H197.181C198.759 0.127597 200.257 0.786559 201.349 1.92548C202.441 3.0644 203.036 4.59012 203.003 6.1674V54.5809H203Z" fill="white"/>
<path d="M45.2192 30.0205C45.2386 28.5359 45.6328 27.0803 46.3655 25.789C47.0983 24.4976 48.1462 23.4125 49.4107 22.6344C48.607 21.487 47.5466 20.5429 46.3144 19.8765C45.0821 19.2102 43.7114 18.8402 42.3112 18.7958C39.3243 18.4815 36.427 20.5831 34.9055 20.5831C33.3535 20.5831 31.0104 18.8247 28.4851 18.8763C26.8519 18.9294 25.2604 19.4049 23.8658 20.2565C22.4712 21.1082 21.3217 22.3068 20.5285 23.7355C17.0875 29.6926 19.6532 38.4467 22.9575 43.2634C24.6066 45.6202 26.5338 48.2534 29.056 48.1608C31.5236 48.0606 32.4452 46.5893 35.423 46.5893C38.3735 46.5893 39.2391 48.1624 41.8115 48.1078C44.4598 48.0653 46.1273 45.739 47.7187 43.3594C48.9043 41.6797 49.817 39.8228 50.4221 37.8578C48.8803 37.2083 47.5638 36.1185 46.6384 34.7247C45.713 33.331 45.2195 31.6935 45.2192 30.0205Z" fill="black"/>
<path d="M40.3579 15.6278C41.8023 13.8947 42.5133 11.6668 42.3406 9.4173C40.1348 9.64977 38.0978 10.704 36.6343 12.3705C35.9184 13.185 35.37 14.1329 35.0209 15.1596C34.6717 16.1862 34.5288 17.2717 34.5997 18.3538C35.7031 18.3652 36.7942 18.1258 37.7917 17.6539C38.7892 17.1819 39.6669 16.4881 40.3579 15.6278Z" fill="black"/>
<path d="M80.9339 47.8114H77.4868L75.5961 41.8815H69.0304L67.2309 47.8114H63.875L70.3799 27.615H74.3979L80.9339 47.8114ZM75.0266 39.3835L73.3183 34.1143C73.1381 33.5757 72.7991 32.3066 72.301 30.3072H72.2402C72.0377 31.1677 71.7176 32.4368 71.2793 34.1143L69.6087 39.3913L75.0266 39.3835Z" fill="black"/>
<path d="M97.6648 40.3522C97.7829 42.4975 97.0622 44.605 95.6555 46.229C95.0912 46.8487 94.4013 47.3404 93.6313 47.6712C92.8612 48.002 92.029 48.1641 91.1911 48.1468C90.3786 48.2129 89.5634 48.0556 88.834 47.6915C88.1046 47.3275 87.4887 46.7708 87.053 46.0818H86.9922V53.7564H83.7505V38.0444C83.7505 36.4853 83.7099 34.8856 83.6289 33.2456H86.4835L86.6659 35.5567H86.7267C87.2173 34.8058 87.8764 34.1798 88.6516 33.7287C89.4268 33.2775 90.2966 33.0135 91.1918 32.9579C92.087 32.9023 92.9827 33.0566 93.8077 33.4084C94.6328 33.7601 95.3642 34.2999 95.9439 34.9843C97.1468 36.5071 97.7594 38.4139 97.6648 40.3522ZM94.3668 40.4708C94.4176 39.2304 94.0818 38.0047 93.4066 36.9629C93.0938 36.5066 92.6715 36.1359 92.1787 35.8845C91.6859 35.633 91.1384 35.5088 90.5853 35.5234C89.7904 35.5235 89.0209 35.8047 88.4136 36.3175C87.7632 36.8474 87.3135 37.5835 87.1383 38.404C87.0489 38.7258 86.9978 39.0574 86.9863 39.3912V41.8206C86.9594 42.8067 87.3079 43.7664 87.9613 44.5055C88.2766 44.8634 88.6674 45.1469 89.1054 45.3359C89.5433 45.525 90.0174 45.6148 90.4941 45.5988C91.0486 45.6212 91.5997 45.504 92.0972 45.2581C92.5946 45.0121 93.0225 44.6453 93.3413 44.1911C94.07 43.0915 94.4295 41.7884 94.3668 40.4708Z" fill="black"/>
<path d="M114.424 40.3522C114.542 42.4978 113.82 44.6054 112.413 46.229C111.849 46.8489 111.159 47.3407 110.389 47.6715C109.618 48.0023 108.786 48.1644 107.948 48.1468C107.136 48.2132 106.321 48.056 105.591 47.6919C104.862 47.3279 104.246 46.7711 103.81 46.0818H103.749V53.7563H100.512V38.0444C100.512 36.4853 100.472 34.8856 100.391 33.2456H103.239L103.422 35.5567H103.483C103.973 34.8061 104.632 34.1804 105.407 33.7294C106.183 33.2784 107.053 33.0146 107.948 32.959C108.843 32.9034 109.738 33.0575 110.564 33.4091C111.389 33.7607 112.12 34.3002 112.7 34.9843C113.903 36.5071 114.515 38.4134 114.424 40.3522ZM111.125 40.4708C111.175 39.2302 110.84 38.0045 110.164 36.9629C109.852 36.507 109.43 36.1363 108.938 35.8848C108.446 35.6334 107.899 35.5092 107.347 35.5234C106.551 35.5231 105.781 35.8044 105.172 36.3175C104.523 36.8477 104.074 37.5839 103.9 38.404C103.811 38.726 103.76 39.0574 103.748 39.3912V41.8206C103.721 42.8061 104.069 43.7653 104.72 44.5055C105.036 44.8634 105.427 45.1469 105.866 45.3359C106.304 45.5249 106.779 45.6148 107.256 45.5988C107.81 45.6212 108.361 45.504 108.859 45.2581C109.356 45.0121 109.784 44.6453 110.103 44.1911C110.83 43.091 111.189 41.7879 111.125 40.4708Z" fill="black"/>
<path d="M133.165 42.1502C133.191 42.9387 133.044 43.7235 132.733 44.4488C132.423 45.174 131.957 45.8219 131.368 46.3473C129.82 47.6058 127.855 48.2368 125.863 48.1149C124.033 48.2016 122.216 47.7646 120.625 46.8548L121.376 44.1577C122.786 45.0146 124.407 45.4618 126.056 45.4486C127.073 45.5092 128.079 45.2172 128.905 44.6223C129.236 44.3596 129.5 44.023 129.677 43.6395C129.854 43.256 129.937 42.8365 129.922 42.4146C129.931 42.0303 129.861 41.6482 129.717 41.292C129.572 40.9358 129.357 40.6129 129.083 40.3433C128.271 39.6352 127.322 39.1026 126.295 38.7792C122.752 37.4631 120.983 35.5321 120.989 32.9861C120.969 32.2087 121.126 31.4371 121.449 30.7295C121.771 30.0218 122.25 29.3966 122.849 28.9014C124.249 27.7854 126.009 27.2197 127.796 27.3113C129.38 27.2561 130.954 27.5855 132.382 28.2711L131.573 30.9104C130.384 30.2781 129.052 29.9583 127.705 29.9809C126.743 29.9231 125.794 30.2221 125.039 30.8207C124.781 31.0486 124.576 31.3293 124.436 31.6437C124.296 31.9581 124.226 32.2988 124.229 32.6428C124.222 33.0208 124.303 33.3953 124.464 33.7376C124.624 34.0798 124.861 34.3807 125.156 34.617C126.044 35.2949 127.035 35.8263 128.092 36.1914C129.543 36.7034 130.856 37.5446 131.929 38.6487C132.763 39.6215 133.202 40.871 133.162 42.1517L133.165 42.1502Z" fill="black"/>
<path d="M143.866 35.6754H140.297V42.7516C140.297 44.5495 140.927 45.4487 142.187 45.4487C142.67 45.4587 143.154 45.4075 143.625 45.2967L143.713 47.7569C142.9 48.0215 142.049 48.1421 141.195 48.1135C140.641 48.1443 140.086 48.0561 139.569 47.8544C139.051 47.6527 138.583 47.3422 138.196 46.9442C137.368 45.81 136.985 44.4122 137.118 43.0145V35.6706H134.992V33.2412H137.118V30.5731L140.296 29.6118V33.2412H143.865V35.6706L143.866 35.6754Z" fill="black"/>
<path d="M159.967 40.4114C160.047 42.4264 159.362 44.3971 158.049 45.9283C157.375 46.6645 156.548 47.2444 155.625 47.6274C154.703 48.0103 153.708 48.187 152.711 48.1453C151.755 48.1876 150.802 48.0189 149.919 47.6515C149.036 47.284 148.245 46.727 147.602 46.0195C146.309 44.5378 145.629 42.6198 145.698 40.6546C145.616 38.6225 146.319 36.6364 147.661 35.1088C148.333 34.3864 149.155 33.819 150.069 33.4461C150.982 33.0732 151.966 32.9035 152.952 32.9493C153.915 32.9085 154.876 33.0776 155.767 33.4446C156.658 33.8117 157.46 34.3683 158.115 35.0755C159.39 36.5532 160.052 38.4617 159.967 40.4114ZM156.612 40.5178C156.647 39.3065 156.346 38.109 155.742 37.0585C155.47 36.5243 155.052 36.0772 154.538 35.7684C154.024 35.4596 153.435 35.3018 152.835 35.3124C152.226 35.2957 151.625 35.4507 151.1 35.7595C150.575 36.0683 150.148 36.5183 149.866 37.0585C149.259 38.1285 148.958 39.3457 148.997 40.5757C148.962 41.7859 149.263 42.9821 149.866 44.0316C150.151 44.5607 150.574 45.0024 151.091 45.3092C151.607 45.616 152.198 45.7764 152.799 45.7733C153.4 45.7702 153.988 45.6035 154.501 45.2914C155.015 44.9792 155.434 44.5332 155.713 44.0012C156.329 42.9467 156.639 41.7416 156.609 40.5208L156.612 40.5178Z" fill="black"/>
<path d="M170.493 36.0929C170.157 36.0317 169.817 36.0011 169.475 36.0017C168.962 35.9775 168.451 36.0831 167.989 36.3087C167.527 36.5343 167.129 36.8728 166.833 37.2926C166.266 38.1452 165.984 39.1548 166.025 40.1776V47.8114H162.79L162.821 37.8287C162.821 36.1482 162.78 34.6195 162.699 33.2427H165.518L165.636 36.0291H165.727C166.033 35.1202 166.595 34.3187 167.344 33.721C168.02 33.2163 168.84 32.9431 169.683 32.942C169.955 32.9411 170.226 32.9615 170.494 33.0028V36.0885L170.493 36.0929Z" fill="black"/>
<path d="M184.969 39.8421C184.977 40.3343 184.938 40.8261 184.851 41.3106H175.133C175.111 41.9301 175.226 42.5465 175.47 43.1165C175.713 43.6864 176.079 44.1962 176.541 44.609C177.445 45.3162 178.572 45.6769 179.718 45.6263C181.06 45.6444 182.393 45.4109 183.648 44.9382L184.155 47.1856C182.606 47.8185 180.943 48.1246 179.27 48.0846C178.293 48.1385 177.315 47.9892 176.399 47.6461C175.483 47.3029 174.647 46.7732 173.946 46.0908C173.285 45.3714 172.774 44.5278 172.442 43.6088C172.11 42.6898 171.964 41.714 172.013 40.7382C171.942 38.7534 172.581 36.8082 173.814 35.2517C174.42 34.4895 175.197 33.8807 176.082 33.4745C176.967 33.0682 177.936 32.8758 178.909 32.9132C179.837 32.8621 180.763 33.0505 181.598 33.46C182.433 33.8695 183.149 34.4863 183.677 35.2517C184.57 36.6106 185.02 38.2125 184.967 39.8377L184.969 39.8421ZM181.882 39.0024C181.925 38.1283 181.706 37.2614 181.253 36.5122C180.986 36.0738 180.605 35.7163 180.15 35.4783C179.695 35.2402 179.184 35.1303 178.672 35.1605C178.166 35.1512 177.666 35.2671 177.215 35.4975C176.765 35.728 176.379 36.0661 176.09 36.4818C175.538 37.213 175.205 38.0862 175.13 38.9995H181.873L181.882 39.0024Z" fill="black"/>
<path d="M73.955 15.1786C74.0089 15.9288 73.8929 16.6813 73.6147 17.38C73.3364 18.0788 72.9038 18.7055 72.349 19.2133C71.1333 20.1184 69.6351 20.5618 68.1226 20.4645C67.3445 20.4719 66.5664 20.433 65.793 20.3477V10.5834C66.6996 10.441 67.6164 10.3714 68.5342 10.3754C69.9384 10.2727 71.333 10.6751 72.4669 11.5099C72.9732 11.9714 73.3698 12.5407 73.6273 13.1756C73.8848 13.8104 73.9968 14.4948 73.955 15.1786ZM72.2852 15.2213C72.3176 14.7379 72.2527 14.2526 72.0947 13.7947C71.9366 13.3367 71.6887 12.9151 71.3651 12.5546C71.0025 12.2272 70.5768 11.9764 70.115 11.8172C69.6531 11.658 69.1646 11.5941 68.6773 11.6285C68.2473 11.6214 67.8173 11.6553 67.3938 11.7301V19.1525C67.7503 19.1906 68.109 19.2058 68.4674 19.1981C68.9821 19.2306 69.4979 19.157 69.983 18.982C70.468 18.807 70.9119 18.5344 71.2872 18.1808C71.6385 17.7765 71.9068 17.3069 72.0761 16.7987C72.2455 16.2906 72.3125 15.754 72.2741 15.2198L72.2852 15.2213Z" fill="black"/>
<path d="M82.8543 16.7383C82.8928 17.7286 82.5553 18.6968 81.9097 19.4487C81.5785 19.8106 81.1719 20.0956 80.7189 20.284C80.2659 20.4723 79.7773 20.5595 79.2872 20.539C78.8175 20.5595 78.3493 20.4762 77.9154 20.2951C77.4816 20.114 77.093 19.8397 76.7773 19.4914C76.1436 18.7631 75.8095 17.8214 75.8431 16.8566C75.8025 15.8583 76.1482 14.8829 76.8077 14.1324C77.1379 13.7772 77.5414 13.4978 77.9903 13.3142C78.4393 13.1307 78.9228 13.0474 79.4073 13.0695C79.8801 13.0508 80.3514 13.1345 80.7886 13.3153C81.2259 13.4962 81.6187 13.7699 81.9401 14.1172C82.5654 14.8442 82.8912 15.7817 82.8514 16.7398L82.8543 16.7383ZM81.2016 16.7898C81.2184 16.1956 81.0717 15.608 80.7768 15.0919C80.6429 14.8298 80.4382 14.6108 80.1858 14.4594C79.9335 14.308 79.6437 14.2303 79.3494 14.2355C79.0501 14.2266 78.7544 14.3024 78.496 14.4539C78.2377 14.6053 78.0272 14.8263 77.8888 15.0919C77.5905 15.6177 77.4429 16.216 77.4632 16.8202C77.4458 17.4155 77.5933 18.0038 77.8888 18.5208C78.0272 18.7823 78.2348 19.0005 78.4893 19.1514C78.7439 19.3023 79.035 19.3799 79.3309 19.3757C79.6263 19.3775 79.9166 19.2972 80.1688 19.1432C80.4209 18.9893 80.6249 18.7678 80.7582 18.5041C81.0637 17.9849 81.2173 17.392 81.2016 16.7898Z" fill="black"/>
<path d="M94.7857 13.2195L92.5457 20.3765H91.088L90.1619 17.2679C89.9302 16.5074 89.737 15.7355 89.5843 14.9553H89.5539C89.4171 15.7387 89.2254 16.5114 88.98 17.2679L87.9931 20.3765H86.5198L84.4141 13.218H86.0497L86.8587 16.6195C87.0551 17.4243 87.2175 18.19 87.3451 18.9169H87.3747C87.4922 18.3196 87.6888 17.5604 87.9642 16.6391L88.9815 13.2225H90.2828L91.2548 16.5635C91.4907 17.3784 91.6829 18.164 91.8317 18.9202H91.8747C91.9945 18.1266 92.1565 17.3399 92.3603 16.5635L93.2293 13.2225H94.7931L94.7857 13.2195Z" fill="black"/>
<path d="M103.034 20.3763H101.439V16.276C101.439 15.0126 100.959 14.3812 99.9969 14.3812C99.7783 14.3748 99.5606 14.4181 99.3614 14.5084C99.1622 14.5987 98.9862 14.7331 98.8469 14.9017C98.5559 15.2437 98.3993 15.68 98.4064 16.1289V20.3808H96.8078V15.2632C96.8078 14.6355 96.7885 13.9524 96.75 13.2134H98.1469L98.2233 14.3341H98.2685C98.4618 13.9782 98.7457 13.6795 99.0915 13.4685C99.5247 13.2009 100.025 13.062 100.534 13.0677C100.842 13.0573 101.149 13.109 101.436 13.2205C101.723 13.3319 101.984 13.5007 102.204 13.7161C102.497 14.0339 102.722 14.4081 102.863 14.8161C103.005 15.2241 103.061 15.6569 103.029 16.0877L103.034 20.3763Z" fill="black"/>
<path d="M107.422 20.3765H105.832V9.93335H107.423L107.422 20.3765Z" fill="black"/>
<path d="M116.791 16.7382C116.83 17.7281 116.495 18.6962 115.85 19.4486C115.519 19.8105 115.112 20.0955 114.659 20.2838C114.205 20.4722 113.716 20.5594 113.226 20.5389C112.756 20.5604 112.287 20.4776 111.853 20.2965C111.419 20.1153 111.029 19.8403 110.714 19.4912C110.08 18.763 109.747 17.8212 109.78 16.8564C109.74 15.858 110.086 14.8825 110.746 14.1323C111.076 13.7774 111.479 13.4984 111.928 13.3148C112.376 13.1313 112.858 13.0477 113.342 13.0694C113.816 13.0504 114.288 13.1339 114.725 13.3148C115.163 13.4957 115.557 13.7695 115.879 14.1171C116.505 14.8436 116.831 15.7812 116.793 16.7397L116.791 16.7382ZM115.139 16.7897C115.156 16.1955 115.009 15.6079 114.714 15.0917C114.581 14.8294 114.376 14.6104 114.123 14.4589C113.871 14.3075 113.581 14.2298 113.287 14.2354C112.988 14.2271 112.693 14.303 112.435 14.4545C112.177 14.6059 111.967 14.8267 111.829 15.0917C111.53 15.6173 111.381 16.2156 111.401 16.8201C111.383 17.4153 111.53 18.0036 111.825 18.5206C111.964 18.7826 112.173 19.0011 112.428 19.152C112.683 19.3029 112.975 19.3803 113.271 19.3756C113.567 19.3778 113.857 19.2975 114.109 19.1435C114.361 18.9895 114.566 18.7679 114.699 18.504C115.004 17.9847 115.156 17.3917 115.139 16.7897Z" fill="black"/>
<path d="M124.493 20.3764H123.066L122.944 19.5515H122.902C122.662 19.8754 122.344 20.1353 121.98 20.3074C121.615 20.4796 121.213 20.559 120.81 20.5388C120.508 20.5515 120.206 20.5004 119.924 20.3886C119.643 20.2769 119.388 20.1071 119.177 19.8904C118.992 19.6964 118.847 19.4677 118.751 19.2175C118.654 18.9673 118.608 18.7007 118.615 18.4327C118.599 18.0305 118.694 17.6316 118.887 17.2786C119.08 16.9256 119.366 16.6317 119.713 16.4281C120.658 15.9163 121.728 15.6819 122.8 15.7523V15.6188C122.8 14.6753 122.304 14.2047 121.312 14.2067C120.651 14.194 120.002 14.3777 119.447 14.735L119.131 13.6902C119.875 13.2581 120.726 13.044 121.587 13.0722C123.458 13.0722 124.394 14.0592 124.396 16.0333V18.6696C124.384 19.2396 124.416 19.8094 124.492 20.3745L124.493 20.3764ZM122.841 17.9162V16.8122C121.086 16.7818 120.208 17.2626 120.208 18.2547C120.195 18.4082 120.216 18.5629 120.268 18.7077C120.321 18.8526 120.404 18.9846 120.512 19.0948C120.726 19.2837 121.004 19.3829 121.289 19.3725C121.641 19.3714 121.982 19.2551 122.261 19.0414C122.441 18.9145 122.588 18.7457 122.689 18.5494C122.789 18.3531 122.841 18.1353 122.838 17.9147L122.841 17.9162Z" fill="black"/>
<path d="M133.533 20.3765H132.12L132.045 19.2269H132.002C131.791 19.6486 131.461 19.9983 131.052 20.2319C130.643 20.4655 130.173 20.5724 129.703 20.5389C129.291 20.5452 128.882 20.4569 128.509 20.2805C128.137 20.1041 127.81 19.8445 127.553 19.5216C126.96 18.7748 126.657 17.8391 126.699 16.8868C126.654 15.8659 126.986 14.8639 127.633 14.0729C127.905 13.7539 128.244 13.4988 128.626 13.3255C129.008 13.1523 129.423 13.0654 129.843 13.0709C130.236 13.0315 130.632 13.1014 130.987 13.2729C131.343 13.4444 131.645 13.7106 131.859 14.0425H131.89V9.93335H133.484V18.448C133.479 19.1444 133.495 19.7873 133.533 20.3765ZM131.885 17.3576V16.1639C131.888 15.9957 131.872 15.8279 131.839 15.663C131.755 15.2884 131.554 14.9503 131.265 14.6973C130.972 14.439 130.593 14.2996 130.202 14.3069C129.928 14.2978 129.656 14.3578 129.412 14.4815C129.167 14.6052 128.957 14.7886 128.802 15.0146C128.445 15.5492 128.266 16.1833 128.292 16.826C128.264 17.4383 128.435 18.0432 128.781 18.5495C128.936 18.7737 129.144 18.9558 129.387 19.0793C129.63 19.2029 129.899 19.2641 130.172 19.2573C130.413 19.2649 130.652 19.2154 130.871 19.113C131.089 19.0107 131.281 18.8583 131.429 18.6682C131.736 18.3014 131.898 17.8354 131.885 17.3576Z" fill="black"/>
<path d="M147.143 16.738C147.183 17.7279 146.846 18.696 146.202 19.4484C145.87 19.8106 145.464 20.0957 145.011 20.284C144.558 20.4724 144.068 20.5595 143.578 20.5387C143.108 20.5591 142.639 20.4759 142.205 20.2948C141.771 20.1137 141.382 19.8393 141.066 19.4911C140.433 18.7628 140.098 17.821 140.132 16.8563C140.092 15.8578 140.438 14.8823 141.098 14.1321C141.429 13.7766 141.832 13.4975 142.282 13.3139C142.731 13.1303 143.214 13.0468 143.699 13.0692C144.172 13.0505 144.643 13.1341 145.08 13.315C145.517 13.4959 145.909 13.7696 146.231 14.1169C146.856 14.8439 147.182 15.7814 147.142 16.7395L147.143 16.738ZM145.494 16.7895C145.511 16.1953 145.364 15.6077 145.069 15.0916C144.934 14.8291 144.729 14.6098 144.476 14.4584C144.223 14.3069 143.933 14.2296 143.638 14.2352C143.34 14.2274 143.045 14.3036 142.787 14.455C142.53 14.6064 142.319 14.8269 142.181 15.0916C141.882 15.6174 141.736 16.2157 141.756 16.8199C141.738 17.4152 141.885 18.0035 142.181 18.5205C142.32 18.7814 142.528 18.9996 142.782 19.1511C143.036 19.3025 143.327 19.3818 143.623 19.3802C143.919 19.3786 144.208 19.2963 144.461 19.1422C144.713 18.9881 144.919 18.7677 145.055 18.5053C145.359 17.9855 145.51 17.3914 145.494 16.7895Z" fill="black"/>
<path d="M155.7 20.3763H154.11V16.276C154.11 15.0126 153.63 14.3812 152.668 14.3812C152.45 14.3744 152.232 14.4177 152.033 14.508C151.833 14.5983 151.657 14.7328 151.518 14.9017C151.226 15.2429 151.068 15.6795 151.075 16.1289V20.3808H149.481V15.2632C149.481 14.6355 149.462 13.9524 149.426 13.2134H150.823L150.899 14.3341H150.941C151.136 13.9786 151.42 13.6801 151.766 13.4685C152.199 13.2013 152.7 13.0624 153.209 13.0677C153.517 13.0573 153.823 13.109 154.11 13.2205C154.397 13.3319 154.658 13.5007 154.879 13.7161C155.172 14.0335 155.397 14.4076 155.539 14.8157C155.681 15.2238 155.738 15.6568 155.705 16.0877L155.7 20.3763Z" fill="black"/>
<path d="M166.414 14.404H164.662V17.8815C164.662 18.7652 164.974 19.2072 165.589 19.2072C165.828 19.2123 166.066 19.1867 166.299 19.1312L166.34 20.3461C165.942 20.4779 165.524 20.5384 165.104 20.5251C164.832 20.5408 164.559 20.4979 164.305 20.3991C164.051 20.3003 163.821 20.1481 163.631 19.9527C163.223 19.3969 163.034 18.7105 163.099 18.0242V14.4055H162.055V13.221H163.102V11.9075L164.66 11.4366V13.218H166.414V14.404Z" fill="black"/>
<path d="M174.838 20.3765H173.243V16.3066C173.243 15.023 172.763 14.3814 171.803 14.3814C171.462 14.3692 171.126 14.4728 170.851 14.6754C170.575 14.878 170.375 15.1674 170.285 15.4973C170.232 15.6834 170.207 15.8762 170.209 16.0697V20.3746H168.621V9.93335H170.211V14.252H170.241C170.461 13.8811 170.777 13.5763 171.155 13.3693C171.534 13.1623 171.96 13.0607 172.391 13.0753C172.694 13.0659 172.995 13.1184 173.277 13.2299C173.558 13.3414 173.814 13.5096 174.029 13.7237C174.317 14.0493 174.537 14.4294 174.677 14.8415C174.816 15.2535 174.871 15.6893 174.839 16.1231V20.3746L174.838 20.3765Z" fill="black"/>
<path d="M183.529 16.4586C183.531 16.7004 183.511 16.9417 183.468 17.1796H178.697C178.687 17.4838 178.743 17.7865 178.863 18.0664C178.982 18.3463 179.161 18.5968 179.388 18.8001C179.833 19.1483 180.387 19.3262 180.951 19.3013C181.61 19.3099 182.264 19.1948 182.88 18.9625L183.129 20.068C182.367 20.3781 181.549 20.5281 180.727 20.5084C180.247 20.535 179.768 20.4618 179.319 20.2934C178.869 20.1251 178.459 19.8653 178.115 19.5305C177.79 19.1778 177.539 18.7637 177.375 18.3126C177.212 17.8615 177.141 17.3825 177.165 16.9034C177.13 15.9276 177.444 14.9714 178.052 14.2067C178.349 13.8318 178.73 13.5321 179.165 13.3326C179.6 13.1331 180.076 13.0393 180.554 13.0586C181.009 13.0335 181.464 13.126 181.873 13.327C182.283 13.528 182.634 13.831 182.893 14.2067C183.335 14.8722 183.557 15.6597 183.529 16.4586ZM182.01 16.0485C182.034 15.6193 181.928 15.193 181.706 14.8248C181.575 14.6098 181.388 14.4345 181.165 14.3176C180.942 14.2007 180.691 14.1466 180.44 14.1611C180.192 14.1576 179.947 14.2146 179.726 14.3276C179.506 14.4406 179.315 14.6063 179.173 14.8096C178.903 15.1697 178.739 15.5983 178.7 16.0471H182.013L182.01 16.0485Z" fill="black"/>
</g>
<rect x="1.32031" y="0.588867" width="201.179" height="59.5631" rx="11.5" stroke="black"/>
<defs>
<clipPath id="clip0_8260_572">
<rect x="0.820312" y="0.0888672" width="202.179" height="60.5631" rx="12" fill="white"/>
</clipPath>
</defs>
</svg>
