<svg width="46" height="51" viewBox="0 0 46 51" fill="none" xmlns="http://www.w3.org/2000/svg">
<mask id="mask0_9231_1123" style="mask-type:luminance" maskUnits="userSpaceOnUse" x="13" y="9" width="33" height="33">
<path d="M13.1367 9.01392H45.5828V41.46H13.1367V9.01392Z" fill="white"/>
</mask>
<g mask="url(#mask0_9231_1123)">
<mask id="mask1_9231_1123" style="mask-type:luminance" maskUnits="userSpaceOnUse" x="13" y="9" width="33" height="33">
<path d="M29.3598 9.01392C20.4002 9.01392 13.1367 16.2771 13.1367 25.237C13.1367 34.1966 20.4002 41.46 29.3598 41.46C38.3197 41.46 45.5828 34.1966 45.5828 25.237C45.5828 16.2771 38.3197 9.01392 29.3598 9.01392Z" fill="white"/>
</mask>
<g mask="url(#mask1_9231_1123)">
<path d="M13.1367 9.01392H45.5828V41.46H13.1367V9.01392Z" fill="#04BEFE"/>
</g>
</g>
<mask id="path-4-outside-1_9231_1123" maskUnits="userSpaceOnUse" x="-1.38867" y="-1.34289" width="41.6141" height="55.4018" fill="black">
<rect fill="white" x="-1.38867" y="-1.34289" width="41.6141" height="55.4018"/>
<path d="M27.4024 4.76119C30.0042 7.12936 31 11.8236 31.2323 15.1689C31.3185 17.0098 30.9871 18.7798 30.5675 20.5619C31.4554 20.2024 32.0066 18.9281 32.4198 18.1046C33.06 20.0715 32.2761 22.6399 31.3879 24.4133C29.6955 27.6883 27.2718 29.6625 23.9264 31.1238C23.7271 31.2136 23.727 31.2138 23.5238 31.3053C21.3578 32.2377 18.8729 32.8348 16.5173 32.9825C17.2638 33.2267 17.9581 33.377 18.7406 33.4352C18.8941 33.4468 18.8944 33.4467 19.051 33.4586C20.3158 33.5366 21.4536 33.2951 22.643 32.8772C21.2014 34.1539 19.3725 34.4602 17.5422 34.813C15.4369 35.2214 13.4876 35.7515 11.632 36.8565C13.2807 36.8265 14.8387 36.6915 16.4489 36.3309C16.218 36.8754 15.7526 36.9761 15.2297 37.2099C14.3142 37.5679 13.36 37.7604 12.3966 37.9402C10.5603 38.2852 8.50642 38.6978 7.33312 40.3034C6.64827 41.488 6.12495 42.8183 6.01544 44.1891C5.97699 44.4577 5.97622 44.4577 5.71602 44.7527C5.58937 43.4156 5.54508 42.2168 5.86462 40.8974C5.88875 40.7818 5.91316 40.6658 5.93802 40.5466C6.06787 40.0642 6.2526 39.6181 6.44969 39.1598C6.50269 39.0329 6.50233 39.0325 6.55653 38.9028C6.75967 38.426 6.98235 37.9676 7.23078 37.5127C7.58397 36.8631 7.88715 36.1977 8.17916 35.5187C8.23058 35.404 8.28205 35.2893 8.33503 35.1711C8.84584 33.9834 9.0456 32.8734 8.5731 31.6401C8.38439 31.268 8.17662 30.9139 7.94819 30.5648C8.50109 30.6087 8.68688 30.8793 9.06048 31.2687C9.79325 32.1302 10.0656 33.1954 9.98001 34.321C9.94404 34.5547 9.89495 34.7866 9.84383 35.0174C10.1399 34.8976 10.2003 34.5525 10.3205 34.2734C11.1116 32.3378 10.8239 30.5487 10.2772 28.5791C9.72912 26.5983 9.18451 24.4631 9.77966 22.4228C9.86547 22.3255 9.95105 22.228 10.0395 22.1278C10.034 22.2611 10.0285 22.3949 10.0228 22.5323C9.96971 24.6754 10.5972 26.4573 11.7023 28.2902C11.7694 28.4017 11.8368 28.5131 11.906 28.628C12.0416 28.8516 12.1786 29.0749 12.3172 29.2966C12.6379 29.8211 12.9417 30.5939 13.0485 31.2519L13.081 31.5255C13.311 29.4911 12.9214 27.7757 12.3893 25.8268C11.6637 23.1614 11.0685 20.5154 11.4927 17.7448C11.5042 17.646 11.5158 17.5463 11.5277 17.4446C11.8781 15.1512 13.301 12.8679 15.1115 11.4415L15.2257 11.4899C15.1754 11.8147 15.1251 12.1395 15.0745 12.4643C15.0604 12.5557 15.0457 12.6476 15.0311 12.7418C14.958 13.21 14.8801 13.6747 14.7786 14.1378L15.0079 14.235C15.0633 14.082 15.0633 14.0819 15.1198 13.926C16.0084 11.64 17.9342 10.2517 20.1011 9.23256C20.2193 9.17557 20.3378 9.11871 20.4596 9.05999C21.0132 8.79698 21.5706 8.54394 22.1325 8.29915C25.1443 7.02945 25.1447 7.02964 27.4024 4.76119ZM27.1202 16.4315C25.6446 14.3413 23.1289 13.2201 20.5758 13.7117C18.8203 14.1872 17.3822 15.0711 16.372 16.6039C15.5619 18.1613 15.117 19.7255 15.545 21.4815C16.0552 23.1429 16.9201 24.7546 18.4974 25.6132C20.1966 26.4436 21.855 26.7988 23.6956 26.1944C25.2884 25.5847 26.7022 24.648 27.4594 23.069C28.1516 21.5104 28.5825 19.9008 27.9459 18.2241C27.9058 18.1303 27.8664 18.039 27.8275 17.948C27.6195 17.4244 27.3958 16.9233 27.1202 16.4315ZM19.6597 16.9054C21.8222 15.8987 23.9749 16.5145 25.3221 18.5234C25.759 19.6765 25.8639 20.9809 25.4242 22.1477C25.1538 22.7253 24.7903 23.122 24.2224 23.4286C23.6828 23.5621 23.2683 23.3746 22.8023 23.1129C22.4838 22.7436 22.2174 22.3462 21.9481 21.9403C21.5797 21.3953 21.249 21.1242 20.6048 20.9656C20.3629 20.9471 20.1199 20.9349 19.8774 20.9276C19.2225 20.9062 18.7959 20.8466 18.2341 20.5003C17.915 20.086 17.6938 19.6096 17.7548 19.0815C18.0717 18.0691 18.7388 17.3966 19.6597 16.9054Z"/>
</mask>
<path d="M27.4024 4.76119C30.0042 7.12936 31 11.8236 31.2323 15.1689C31.3185 17.0098 30.9871 18.7798 30.5675 20.5619C31.4554 20.2024 32.0066 18.9281 32.4198 18.1046C33.06 20.0715 32.2761 22.6399 31.3879 24.4133C29.6955 27.6883 27.2718 29.6625 23.9264 31.1238C23.7271 31.2136 23.727 31.2138 23.5238 31.3053C21.3578 32.2377 18.8729 32.8348 16.5173 32.9825C17.2638 33.2267 17.9581 33.377 18.7406 33.4352C18.8941 33.4468 18.8944 33.4467 19.051 33.4586C20.3158 33.5366 21.4536 33.2951 22.643 32.8772C21.2014 34.1539 19.3725 34.4602 17.5422 34.813C15.4369 35.2214 13.4876 35.7515 11.632 36.8565C13.2807 36.8265 14.8387 36.6915 16.4489 36.3309C16.218 36.8754 15.7526 36.9761 15.2297 37.2099C14.3142 37.5679 13.36 37.7604 12.3966 37.9402C10.5603 38.2852 8.50642 38.6978 7.33312 40.3034C6.64827 41.488 6.12495 42.8183 6.01544 44.1891C5.97699 44.4577 5.97622 44.4577 5.71602 44.7527C5.58937 43.4156 5.54508 42.2168 5.86462 40.8974C5.88875 40.7818 5.91316 40.6658 5.93802 40.5466C6.06787 40.0642 6.2526 39.6181 6.44969 39.1598C6.50269 39.0329 6.50233 39.0325 6.55653 38.9028C6.75967 38.426 6.98235 37.9676 7.23078 37.5127C7.58397 36.8631 7.88715 36.1977 8.17916 35.5187C8.23058 35.404 8.28205 35.2893 8.33503 35.1711C8.84584 33.9834 9.0456 32.8734 8.5731 31.6401C8.38439 31.268 8.17662 30.9139 7.94819 30.5648C8.50109 30.6087 8.68688 30.8793 9.06048 31.2687C9.79325 32.1302 10.0656 33.1954 9.98001 34.321C9.94404 34.5547 9.89495 34.7866 9.84383 35.0174C10.1399 34.8976 10.2003 34.5525 10.3205 34.2734C11.1116 32.3378 10.8239 30.5487 10.2772 28.5791C9.72912 26.5983 9.18451 24.4631 9.77966 22.4228C9.86547 22.3255 9.95105 22.228 10.0395 22.1278C10.034 22.2611 10.0285 22.3949 10.0228 22.5323C9.96971 24.6754 10.5972 26.4573 11.7023 28.2902C11.7694 28.4017 11.8368 28.5131 11.906 28.628C12.0416 28.8516 12.1786 29.0749 12.3172 29.2966C12.6379 29.8211 12.9417 30.5939 13.0485 31.2519L13.081 31.5255C13.311 29.4911 12.9214 27.7757 12.3893 25.8268C11.6637 23.1614 11.0685 20.5154 11.4927 17.7448C11.5042 17.646 11.5158 17.5463 11.5277 17.4446C11.8781 15.1512 13.301 12.8679 15.1115 11.4415L15.2257 11.4899C15.1754 11.8147 15.1251 12.1395 15.0745 12.4643C15.0604 12.5557 15.0457 12.6476 15.0311 12.7418C14.958 13.21 14.8801 13.6747 14.7786 14.1378L15.0079 14.235C15.0633 14.082 15.0633 14.0819 15.1198 13.926C16.0084 11.64 17.9342 10.2517 20.1011 9.23256C20.2193 9.17557 20.3378 9.11871 20.4596 9.05999C21.0132 8.79698 21.5706 8.54394 22.1325 8.29915C25.1443 7.02945 25.1447 7.02964 27.4024 4.76119ZM27.1202 16.4315C25.6446 14.3413 23.1289 13.2201 20.5758 13.7117C18.8203 14.1872 17.3822 15.0711 16.372 16.6039C15.5619 18.1613 15.117 19.7255 15.545 21.4815C16.0552 23.1429 16.9201 24.7546 18.4974 25.6132C20.1966 26.4436 21.855 26.7988 23.6956 26.1944C25.2884 25.5847 26.7022 24.648 27.4594 23.069C28.1516 21.5104 28.5825 19.9008 27.9459 18.2241C27.9058 18.1303 27.8664 18.039 27.8275 17.948C27.6195 17.4244 27.3958 16.9233 27.1202 16.4315ZM19.6597 16.9054C21.8222 15.8987 23.9749 16.5145 25.3221 18.5234C25.759 19.6765 25.8639 20.9809 25.4242 22.1477C25.1538 22.7253 24.7903 23.122 24.2224 23.4286C23.6828 23.5621 23.2683 23.3746 22.8023 23.1129C22.4838 22.7436 22.2174 22.3462 21.9481 21.9403C21.5797 21.3953 21.249 21.1242 20.6048 20.9656C20.3629 20.9471 20.1199 20.9349 19.8774 20.9276C19.2225 20.9062 18.7959 20.8466 18.2341 20.5003C17.915 20.086 17.6938 19.6096 17.7548 19.0815C18.0717 18.0691 18.7388 17.3966 19.6597 16.9054Z" fill="black"/>
<path d="M27.4024 4.76119L28.0058 4.09828L27.3718 3.52121L26.7671 4.12885L27.4024 4.76119ZM31.2323 15.1689L32.1277 15.127L32.1273 15.1169L32.1266 15.1068L31.2323 15.1689ZM30.5675 20.5619L29.695 20.3564L29.2979 22.043L30.9039 21.3928L30.5675 20.5619ZM32.4198 18.1046L33.2722 17.8272L32.597 15.7529L31.6186 17.7026L32.4198 18.1046ZM31.3879 24.4133L32.1843 24.8249L32.1894 24.8147L31.3879 24.4133ZM23.9264 31.1238L23.5675 30.3023L23.5582 30.3065L23.9264 31.1238ZM23.5238 31.3053L23.8783 32.1286L23.8851 32.1257L23.892 32.1226L23.5238 31.3053ZM16.5173 32.9825L16.4612 32.0879L16.2386 33.8345L16.5173 32.9825ZM18.7406 33.4352L18.8084 32.5414L18.8071 32.5413L18.7406 33.4352ZM19.051 33.4586L18.9832 34.3525L18.9958 34.3533L19.051 33.4586ZM22.643 32.8772L23.2373 33.5483L22.3459 32.0315L22.643 32.8772ZM17.5422 34.813L17.3726 33.9328L17.3715 33.933L17.5422 34.813ZM11.632 36.8565L11.1734 36.0863L8.27203 37.8142L11.6484 37.7528L11.632 36.8565ZM16.4489 36.3309L17.2742 36.6808L17.9551 35.0749L16.253 35.4562L16.4489 36.3309ZM15.2297 37.2099L15.5562 38.0447L15.5761 38.0369L15.5955 38.0282L15.2297 37.2099ZM12.3966 37.9402L12.2322 37.059L12.2311 37.0592L12.3966 37.9402ZM7.33312 40.3034L6.60937 39.7745L6.58108 39.8132L6.55707 39.8547L7.33312 40.3034ZM6.01544 44.1891L6.90279 44.3161L6.90676 44.2884L6.90899 44.2605L6.01544 44.1891ZM5.71602 44.7527L4.82361 44.8372L5.01885 46.8983L6.38829 45.3456L5.71602 44.7527ZM5.86462 40.8974L6.73583 41.1084L6.73919 41.0945L6.74211 41.0805L5.86462 40.8974ZM5.93802 40.5466L5.07243 40.3137L5.06577 40.3384L5.06053 40.3635L5.93802 40.5466ZM6.44969 39.1598L7.27321 39.5139L7.27678 39.5054L6.44969 39.1598ZM6.55653 38.9028L5.73184 38.5514L5.72944 38.5572L6.55653 38.9028ZM7.23078 37.5127L8.01751 37.9424L8.01831 37.9409L7.23078 37.5127ZM8.17916 35.5187L7.36109 35.152L7.35569 35.1645L8.17916 35.5187ZM8.33503 35.1711L9.15309 35.5378L9.15849 35.5253L8.33503 35.1711ZM8.5731 31.6401L9.41017 31.3194L9.39358 31.2761L9.3726 31.2348L8.5731 31.6401ZM7.94819 30.5648L8.01918 29.6712L6.19752 29.5265L7.1981 31.0556L7.94819 30.5648ZM9.06048 31.2687L9.74328 30.6879L9.72589 30.6675L9.70731 30.6481L9.06048 31.2687ZM9.98001 34.321L10.866 34.4574L10.8712 34.4233L10.8738 34.389L9.98001 34.321ZM9.84383 35.0174L8.96863 34.8236L8.60021 36.4874L10.18 35.8484L9.84383 35.0174ZM10.3205 34.2734L11.1438 34.628L11.1471 34.6203L11.1503 34.6125L10.3205 34.2734ZM10.2772 28.5791L9.41332 28.8182L9.4135 28.8188L10.2772 28.5791ZM9.77966 22.4228L9.10739 21.8299L8.97512 21.9798L8.91912 22.1718L9.77966 22.4228ZM10.0395 22.1278L10.9351 22.1647L11.0394 19.6389L9.36719 21.5348L10.0395 22.1278ZM10.0228 22.5323L9.12718 22.4953L9.12688 22.5027L9.1267 22.5101L10.0228 22.5323ZM11.7023 28.2902L12.4703 27.8279L12.47 27.8274L11.7023 28.2902ZM11.906 28.628L11.138 29.0903L11.1395 29.0928L11.906 28.628ZM12.3172 29.2966L13.082 28.829L13.0773 28.8214L12.3172 29.2966ZM13.0485 31.2519L13.9386 31.1462L13.9364 31.1272L13.9333 31.1082L13.0485 31.2519ZM13.081 31.5255L12.1908 31.6312L13.9717 31.6263L13.081 31.5255ZM12.3893 25.8268L11.5244 26.0623L11.5246 26.0629L12.3893 25.8268ZM11.4927 17.7448L12.3788 17.8804L12.3812 17.8647L12.383 17.849L11.4927 17.7448ZM11.5277 17.4446L10.6416 17.3092L10.6392 17.3247L10.6374 17.3404L11.5277 17.4446ZM15.1115 11.4415L15.4614 10.6162L14.9732 10.4092L14.5567 10.7374L15.1115 11.4415ZM15.2257 11.4899L16.1115 11.627L16.2183 10.9371L15.5756 10.6646L15.2257 11.4899ZM15.0745 12.4643L14.1888 12.3262L14.1886 12.3274L15.0745 12.4643ZM15.0311 12.7418L15.9168 12.8802L15.917 12.8787L15.0311 12.7418ZM14.7786 14.1378L13.903 13.9458L13.7437 14.6726L14.4287 14.9631L14.7786 14.1378ZM15.0079 14.235L14.658 15.0603L15.5284 15.4293L15.8506 14.5405L15.0079 14.235ZM15.1198 13.926L14.2843 13.6013L14.2806 13.6108L14.2771 13.6205L15.1198 13.926ZM20.1011 9.23256L20.4826 10.0438L20.4904 10.04L20.1011 9.23256ZM20.4596 9.05999L20.0749 8.25031L20.0703 8.25253L20.4596 9.05999ZM22.1325 8.29915L21.7842 7.47309L21.7744 7.47736L22.1325 8.29915ZM27.1202 16.4315L27.9023 15.9933L27.8795 15.9526L27.8525 15.9145L27.1202 16.4315ZM20.5758 13.7117L20.4063 12.8315L20.3736 12.8378L20.3414 12.8465L20.5758 13.7117ZM16.372 16.6039L15.6236 16.1106L15.5981 16.1492L15.5768 16.1902L16.372 16.6039ZM15.545 21.4815L14.674 21.6938L14.6803 21.7194L14.6881 21.7447L15.545 21.4815ZM18.4974 25.6132L18.0688 26.4005L18.0861 26.4099L18.1038 26.4186L18.4974 25.6132ZM23.6956 26.1944L23.9753 27.046L23.9959 27.0393L24.0161 27.0316L23.6956 26.1944ZM27.4594 23.069L28.2677 23.4566L28.2733 23.4448L28.2787 23.4328L27.4594 23.069ZM27.9459 18.2241L28.784 17.906L28.7774 17.8888L28.7702 17.8719L27.9459 18.2241ZM27.8275 17.948L26.9945 18.2789L26.9987 18.2896L27.0032 18.3002L27.8275 17.948ZM19.6597 16.9054L19.2814 16.0927L19.2594 16.103L19.2379 16.1144L19.6597 16.9054ZM25.3221 18.5234L26.1603 18.2058L26.1239 18.1096L26.0666 18.0242L25.3221 18.5234ZM25.4242 22.1477L26.236 22.5277L26.2508 22.4963L26.263 22.4638L25.4242 22.1477ZM24.2224 23.4286L24.4376 24.2988L24.5481 24.2715L24.6482 24.2174L24.2224 23.4286ZM22.8023 23.1129L22.1235 23.6984L22.2262 23.8175L22.3634 23.8945L22.8023 23.1129ZM21.9481 21.9403L22.695 21.4447L22.6907 21.4383L21.9481 21.9403ZM20.6048 20.9656L20.8192 20.0952L20.7471 20.0774L20.6731 20.0718L20.6048 20.9656ZM19.8774 20.9276L19.848 21.8235L19.8506 21.8236L19.8774 20.9276ZM18.2341 20.5003L17.524 21.0474L17.6241 21.1773L17.7637 21.2634L18.2341 20.5003ZM17.7548 19.0815L16.8994 18.8137L16.8741 18.8945L16.8644 18.9786L17.7548 19.0815ZM27.4024 4.76119L26.799 5.4241C27.9351 6.4582 28.7717 8.05524 29.352 9.87148C29.9282 11.6745 30.2255 13.6106 30.3381 15.231L31.2323 15.1689L32.1266 15.1068C32.0068 13.3819 31.69 11.2982 31.0598 9.3258C30.4337 7.36653 29.4715 5.43235 28.0058 4.09828L27.4024 4.76119ZM31.2323 15.1689L30.3369 15.2109C30.417 16.9223 30.1103 18.5925 29.695 20.3564L30.5675 20.5619L31.44 20.7673C31.8639 18.9671 32.22 17.0973 32.1277 15.127L31.2323 15.1689ZM30.5675 20.5619L30.9039 21.3928C31.6117 21.1062 32.0974 20.5016 32.4253 19.9927C32.7599 19.4731 33.0337 18.8799 33.221 18.5067L32.4198 18.1046L31.6186 17.7026C31.3927 18.1529 31.1843 18.6085 30.918 19.0219C30.645 19.4458 30.4112 19.6581 30.2311 19.731L30.5675 20.5619ZM32.4198 18.1046L31.5674 18.3821C31.8217 19.1633 31.8087 20.1257 31.5988 21.1519C31.3908 22.1689 31.0033 23.1796 30.5864 24.0119L31.3879 24.4133L32.1894 24.8147C32.6607 23.8736 33.1093 22.7134 33.3552 21.5111C33.5993 20.318 33.6581 19.0129 33.2722 17.8272L32.4198 18.1046ZM31.3879 24.4133L30.5916 24.0018C29.0114 27.0596 26.7633 28.9065 23.5676 30.3024L23.9264 31.1238L24.2852 31.9453C27.7804 30.4186 30.3796 28.3171 32.1843 24.8248L31.3879 24.4133ZM23.9264 31.1238L23.5582 30.3065C23.4584 30.3515 23.4084 30.374 23.358 30.3968C23.3077 30.4194 23.257 30.4423 23.1556 30.488L23.5238 31.3053L23.892 32.1226C23.9937 32.0767 24.0447 32.0537 24.0951 32.031C24.1454 32.0083 24.1951 31.9859 24.2945 31.9411L23.9264 31.1238ZM23.5238 31.3053L23.1693 30.4819C21.0973 31.374 18.7133 31.9467 16.4612 32.0879L16.5173 32.9825L16.5734 33.8772C19.0326 33.723 21.6183 33.1015 23.8783 32.1286L23.5238 31.3053ZM16.5173 32.9825L16.2386 33.8345C17.0437 34.0978 17.8094 34.2648 18.6741 34.3291L18.7406 33.4352L18.8071 32.5413C18.1067 32.4891 17.4839 32.3555 16.7959 32.1305L16.5173 32.9825ZM18.7406 33.4352L18.6728 34.329C18.7499 34.3349 18.7886 34.3378 18.8276 34.3407C18.8663 34.3436 18.9052 34.3465 18.9832 34.3524L19.051 33.4586L19.1188 32.5648C19.0402 32.5588 19.0007 32.5558 18.9617 32.5529C18.923 32.55 18.8848 32.5472 18.8084 32.5414L18.7406 33.4352ZM19.051 33.4586L18.9958 34.3533C20.4182 34.4411 21.6804 34.1656 22.9402 33.7229L22.643 32.8772L22.3459 32.0315C21.2269 32.4246 20.2134 32.6322 19.1062 32.5639L19.051 33.4586ZM22.643 32.8772L22.0487 32.2061C20.8257 33.2893 19.267 33.5677 17.3726 33.9328L17.5422 34.813L17.7119 35.6932C19.478 35.3528 21.5771 35.0186 23.2373 33.5483L22.643 32.8772ZM17.5422 34.813L17.3715 33.933C15.2295 34.3485 13.1609 34.9027 11.1734 36.0863L11.632 36.8565L12.0907 37.6267C13.8142 36.6002 15.6443 36.0942 17.7129 35.693L17.5422 34.813ZM11.632 36.8565L11.6484 37.7528C13.3367 37.722 14.9584 37.5833 16.6448 37.2056L16.4489 36.3309L16.253 35.4562C14.7191 35.7997 13.2247 35.931 11.6157 35.9603L11.632 36.8565ZM16.4489 36.3309L15.6236 35.981C15.5987 36.0397 15.5775 36.0659 15.4982 36.1121C15.4442 36.1435 15.3728 36.1771 15.2607 36.2243C15.166 36.2641 15.0052 36.3284 14.864 36.3915L15.2297 37.2099L15.5955 38.0282C15.7458 37.9611 16.1386 37.8135 16.3995 37.6618C16.7413 37.463 17.0682 37.1666 17.2742 36.6808L16.4489 36.3309ZM15.2297 37.2099L14.9033 36.375C14.0752 36.6988 13.1968 36.879 12.2322 37.059L12.3966 37.9402L12.561 38.8214C13.5233 38.6418 14.5532 38.4369 15.5562 38.0447L15.2297 37.2099ZM12.3966 37.9402L12.2311 37.0592C10.4683 37.3904 8.02629 37.8355 6.60937 39.7745L7.33312 40.3034L8.05687 40.8323C8.98655 39.5601 10.6523 39.18 12.5622 38.8212L12.3966 37.9402ZM7.33312 40.3034L6.55707 39.8547C5.83027 41.1119 5.24536 42.5722 5.12189 44.1177L6.01544 44.1891L6.90899 44.2605C7.00454 43.0645 7.46626 41.8641 8.10917 40.752L7.33312 40.3034ZM6.01544 44.1891L5.12808 44.0621C5.12303 44.0974 5.11989 44.1191 5.11709 44.1366C5.11437 44.1536 5.11355 44.1564 5.11453 44.1521C5.11581 44.1464 5.11974 44.1301 5.12767 44.1078C5.13597 44.0844 5.14623 44.0612 5.15775 44.0395C5.17879 44 5.19466 43.9842 5.17259 44.0113C5.16251 44.0237 5.1479 44.0409 5.1255 44.0667C5.10308 44.0925 5.07703 44.122 5.04375 44.1597L5.71602 44.7527L6.38829 45.3456C6.44843 45.2774 6.51096 45.2068 6.56174 45.1446C6.6142 45.0803 6.68146 44.9924 6.74002 44.8825C6.86574 44.6465 6.88937 44.4099 6.90279 44.3161L6.01544 44.1891ZM5.71602 44.7527L6.60842 44.6681C6.48444 43.3593 6.45202 42.2803 6.73583 41.1084L5.86462 40.8974L4.9934 40.6864C4.63815 42.1534 4.69429 43.4719 4.82361 44.8372L5.71602 44.7527ZM5.86462 40.8974L6.74211 41.0805C6.75409 41.0231 6.76614 40.9656 6.77839 40.9072C6.7906 40.8489 6.80299 40.7898 6.81551 40.7298L5.93802 40.5466L5.06053 40.3635C5.04819 40.4226 5.03594 40.4811 5.02371 40.5395C5.01149 40.5977 4.99928 40.656 4.98713 40.7142L5.86462 40.8974ZM5.93802 40.5466L6.80361 40.7796C6.91521 40.365 7.07678 39.9706 7.27317 39.5139L6.44969 39.1598L5.6262 38.8057C5.42841 39.2656 5.22052 39.7634 5.07243 40.3137L5.93802 40.5466ZM6.44969 39.1598L7.27678 39.5054C7.30385 39.4406 7.31746 39.4077 7.33099 39.375C7.34406 39.3434 7.35708 39.3119 7.38363 39.2484L6.55653 38.9028L5.72944 38.5572C5.70178 38.6234 5.68789 38.657 5.67434 38.6897C5.66124 38.7214 5.64852 38.7521 5.62259 38.8142L6.44969 39.1598ZM6.55653 38.9028L7.38121 39.2541C7.57275 38.8046 7.78272 38.3723 8.01751 37.9424L7.23078 37.5127L6.44406 37.0831C6.18199 37.563 5.94659 38.0474 5.73186 38.5514L6.55653 38.9028ZM7.23078 37.5127L8.01831 37.9409C8.39066 37.256 8.70632 36.5618 9.00264 35.8728L8.17916 35.5187L7.35569 35.1645C7.06798 35.8335 6.77729 36.4702 6.44326 37.0846L7.23078 37.5127ZM8.17916 35.5187L8.99713 35.8854C9.02281 35.8281 9.0485 35.7708 9.07442 35.713C9.10033 35.6552 9.12647 35.5969 9.153 35.5378L8.33503 35.1711L7.51706 34.8044C7.49061 34.8634 7.46453 34.9216 7.4386 34.9794C7.41269 35.0371 7.38694 35.0946 7.36119 35.152L8.17916 35.5187ZM8.33503 35.1711L9.15849 35.5253C9.72053 34.2185 9.99722 32.8517 9.41017 31.3194L8.5731 31.6401L7.73604 31.9608C8.09398 32.8951 7.97114 33.7484 7.51156 34.8169L8.33503 35.1711ZM8.5731 31.6401L9.3726 31.2348C9.16735 30.83 8.94262 30.4474 8.69827 30.074L7.94819 30.5648L7.1981 31.0556C7.41061 31.3804 7.60143 31.7059 7.77361 32.0455L8.5731 31.6401ZM7.94819 30.5648L7.8772 31.4584C7.94572 31.4638 7.97791 31.4741 7.98976 31.4785C7.9999 31.4823 8.0117 31.4878 8.0334 31.5041C8.06016 31.5241 8.09836 31.5579 8.16421 31.6256C8.19681 31.6591 8.2314 31.6959 8.27386 31.7412C8.31474 31.7849 8.36247 31.8359 8.41365 31.8893L9.06048 31.2687L9.70731 30.6481C9.57675 30.512 9.34939 30.2502 9.10975 30.0703C8.80671 29.8428 8.45869 29.7061 8.01918 29.6712L7.94819 30.5648ZM9.06048 31.2687L8.37769 31.8495C8.93106 32.5 9.1572 33.3192 9.08619 34.253L9.98001 34.321L10.8738 34.389C10.974 33.0715 10.6554 31.7603 9.74328 30.6879L9.06048 31.2687ZM9.98001 34.321L9.09405 34.1846C9.06278 34.3877 9.01909 34.5957 8.96863 34.8236L9.84383 35.0174L10.719 35.2112C10.7708 34.9774 10.8253 34.7216 10.866 34.4574L9.98001 34.321ZM9.84383 35.0174L10.18 35.8484C10.6164 35.6719 10.8373 35.3345 10.9521 35.1016C11.008 34.9882 11.0498 34.877 11.0776 34.8017C11.1106 34.7126 11.1257 34.67 11.1438 34.628L10.3205 34.2734L9.49727 33.9187C9.45523 34.0163 9.41771 34.1215 9.39629 34.1794C9.36978 34.2511 9.35539 34.2859 9.34416 34.3087C9.33397 34.3294 9.33918 34.3129 9.36602 34.2836C9.39762 34.2492 9.44623 34.2113 9.5077 34.1864L9.84383 35.0174ZM10.3205 34.2734L11.1503 34.6125C12.0582 32.3911 11.7009 30.3566 11.141 28.3394L10.2772 28.5791L9.4135 28.8188C9.94693 30.7408 10.1651 32.2845 9.49077 33.9342L10.3205 34.2734ZM10.2772 28.5791L11.1412 28.34C10.5837 26.3256 10.1268 24.4337 10.6402 22.6738L9.77966 22.4228L8.91912 22.1718C8.24221 24.4924 8.87452 26.8711 9.41332 28.8182L10.2772 28.5791ZM9.77966 22.4228L10.4519 23.0157C10.4952 22.9666 10.5384 22.9175 10.5816 22.8685C10.6248 22.8194 10.6679 22.7704 10.7117 22.7207L10.0395 22.1278L9.36719 21.5348C9.32258 21.5854 9.27874 21.6352 9.23561 21.6842C9.19238 21.7334 9.14988 21.7817 9.10739 21.8299L9.77966 22.4228ZM10.0395 22.1278L9.14383 22.0908C9.14107 22.1576 9.13832 22.2244 9.13556 22.2917C9.1328 22.359 9.13002 22.4267 9.12718 22.4953L10.0228 22.5323L10.9185 22.5693C10.9213 22.5004 10.9241 22.4326 10.9268 22.3653C10.9296 22.298 10.9324 22.2313 10.9351 22.1647L10.0395 22.1278ZM10.0228 22.5323L9.1267 22.5101C9.06826 24.8681 9.76743 26.8172 10.9346 28.7531L11.7023 28.2902L12.47 27.8274C11.4269 26.0975 10.8712 24.4828 10.9189 22.5545L10.0228 22.5323ZM11.7023 28.2902L10.9343 28.7525C10.9682 28.8088 11.0021 28.8649 11.0359 28.921C11.0698 28.9772 11.1037 29.0334 11.138 29.0903L11.906 28.628L12.6739 28.1657C12.6391 28.1077 12.6047 28.0508 12.5708 27.9947C12.5369 27.9384 12.5035 27.8831 12.4703 27.8279L11.7023 28.2902ZM11.906 28.628L11.1395 29.0928C11.2767 29.319 11.4158 29.5458 11.5571 29.7718L12.3172 29.2966L13.0773 28.8214C12.9413 28.6039 12.8065 28.3842 12.6724 28.1631L11.906 28.628ZM12.3172 29.2966L11.5525 29.7643C11.8175 30.1977 12.077 30.8614 12.1637 31.3955L13.0485 31.2519L13.9333 31.1082C13.8064 30.3263 13.4583 29.4444 13.082 28.829L12.3172 29.2966ZM13.0485 31.2519L12.1583 31.3575L12.1908 31.6312L13.081 31.5255L13.9711 31.4199L13.9386 31.1462L13.0485 31.2519ZM13.081 31.5255L13.9717 31.6263C14.2222 29.4114 13.7905 27.5555 13.2541 25.5907L12.3893 25.8268L11.5246 26.0629C12.0523 27.9959 12.3999 29.5708 12.1902 31.4248L13.081 31.5255ZM12.3893 25.8268L13.2543 25.5914C12.5305 22.9328 11.9857 20.448 12.3788 17.8804L11.4927 17.7448L10.6066 17.6091C10.1514 20.5828 10.797 23.39 11.5244 26.0623L12.3893 25.8268ZM11.4927 17.7448L12.383 17.849C12.3888 17.7993 12.3946 17.7493 12.4004 17.6994C12.4063 17.6494 12.4121 17.5993 12.418 17.5488L11.5277 17.4446L10.6374 17.3404C10.6314 17.3916 10.6255 17.4422 10.6197 17.4922C10.6138 17.5422 10.6081 17.5915 10.6024 17.6405L11.4927 17.7448ZM11.5277 17.4446L12.4138 17.5799C12.7268 15.5311 14.0179 13.4443 15.6662 12.1456L15.1115 11.4415L14.5567 10.7374C12.5841 12.2916 11.0293 14.7712 10.6416 17.3092L11.5277 17.4446ZM15.1115 11.4415L14.7616 12.2668L14.8757 12.3152L15.2257 11.4899L15.5756 10.6646L15.4614 10.6162L15.1115 11.4415ZM15.2257 11.4899L14.3398 11.3528C14.2895 11.6777 14.2393 12.002 14.1888 12.3262L15.0745 12.4643L15.9602 12.6023C16.0109 12.277 16.0613 11.9517 16.1115 11.627L15.2257 11.4899ZM15.0745 12.4643L14.1886 12.3274C14.1818 12.3716 14.1748 12.4162 14.1675 12.4626C14.1602 12.5086 14.1527 12.5563 14.1452 12.6049L15.0311 12.7418L15.917 12.8787C15.924 12.833 15.9312 12.7877 15.9385 12.7414C15.9457 12.6955 15.9531 12.6484 15.9604 12.6012L15.0745 12.4643ZM15.0311 12.7418L14.1454 12.6034C14.073 13.0669 13.9985 13.51 13.903 13.9458L14.7786 14.1378L15.6542 14.3297C15.7617 13.8394 15.8429 13.353 15.9168 12.8802L15.0311 12.7418ZM14.7786 14.1378L14.4287 14.9631L14.658 15.0603L15.0079 14.235L15.3578 13.4097L15.1285 13.3125L14.7786 14.1378ZM15.0079 14.235L15.8506 14.5405C15.8784 14.4638 15.8923 14.4253 15.9064 14.3866C15.9203 14.3481 15.9343 14.3093 15.9625 14.2316L15.1198 13.926L14.2771 13.6205C14.2487 13.6987 14.2346 13.7378 14.2205 13.7766C14.2066 13.8151 14.1928 13.8532 14.1652 13.9295L15.0079 14.235ZM15.1198 13.926L15.9553 14.2508C16.7206 12.282 18.396 11.0251 20.4826 10.0437L20.1011 9.23256L19.7196 8.42141C17.4724 9.47836 15.2962 10.998 14.2843 13.6013L15.1198 13.926ZM20.1011 9.23256L20.4904 10.04C20.5491 10.0117 20.6079 9.98344 20.6676 9.95473C20.7271 9.92608 20.7875 9.89702 20.8489 9.86746L20.4596 9.05999L20.0703 8.25253C20.0098 8.28169 19.9501 8.31041 19.8904 8.33912C19.8309 8.36776 19.7714 8.3964 19.7118 8.4251L20.1011 9.23256ZM20.4596 9.05999L20.8443 9.86966C21.3885 9.61111 21.937 9.3621 22.4905 9.12094L22.1325 8.29915L21.7744 7.47736C21.2043 7.72578 20.6379 7.98286 20.0749 8.25032L20.4596 9.05999ZM22.1325 8.29915L22.4807 9.12515C23.9549 8.50368 24.8026 8.15053 25.5498 7.64897C26.2988 7.14624 26.9328 6.50379 28.0378 5.39353L27.4024 4.76119L26.7671 4.12885C25.6144 5.28704 25.1193 5.77872 24.5506 6.16043C23.9803 6.54331 23.3219 6.82492 21.7843 7.47315L22.1325 8.29915ZM27.1202 16.4315L27.8525 15.9145C26.1888 13.5579 23.3301 12.2684 20.4063 12.8315L20.5758 13.7117L20.7453 14.5919C22.9276 14.1717 25.1004 15.1248 26.388 16.9485L27.1202 16.4315ZM20.5758 13.7117L20.3414 12.8465C18.4221 13.3664 16.7785 14.3582 15.6236 16.1106L16.372 16.6039L17.1205 17.0972C17.986 15.7839 19.2185 15.0081 20.8101 14.5769L20.5758 13.7117ZM16.372 16.6039L15.5768 16.1902C14.7148 17.8473 14.1744 19.6435 14.674 21.6938L15.545 21.4815L16.4159 21.2692C16.0596 19.8075 16.409 18.4752 17.1673 17.0176L16.372 16.6039ZM15.545 21.4815L14.6881 21.7447C15.2253 23.4939 16.1877 25.3765 18.0688 26.4005L18.4974 25.6132L18.926 24.8259C17.6525 24.1327 16.8851 22.7918 16.4018 21.2183L15.545 21.4815ZM18.4974 25.6132L18.1038 26.4186C19.9287 27.3104 21.8375 27.7481 23.9753 27.046L23.6956 26.1944L23.416 25.3427C21.8726 25.8495 20.4644 25.5768 18.891 24.8078L18.4974 25.6132ZM23.6956 26.1944L24.0161 27.0316C25.7183 26.38 27.3716 25.3251 28.2677 23.4566L27.4594 23.069L26.6512 22.6814C26.0327 23.9709 24.8586 24.7894 23.3752 25.3572L23.6956 26.1944ZM27.4594 23.069L28.2787 23.4328C28.9991 21.8107 29.5492 19.9217 28.784 17.906L27.9459 18.2241L27.1079 18.5423C27.6157 19.88 27.3042 21.2101 26.6402 22.7052L27.4594 23.069ZM27.9459 18.2241L28.7702 17.8719C28.7498 17.8241 28.7296 17.7771 28.7099 17.7313C28.6901 17.6852 28.6709 17.6404 28.6518 17.5958L27.8275 17.948L27.0032 18.3002C27.0231 18.3466 27.043 18.393 27.0626 18.4388C27.0824 18.4848 27.102 18.5303 27.1216 18.5763L27.9459 18.2241ZM27.8275 17.948L28.6606 17.617C28.4438 17.0713 28.2036 16.5313 27.9023 15.9933L27.1202 16.4315L26.3382 16.8696C26.588 17.3154 26.7952 17.7774 26.9945 18.2789L27.8275 17.948ZM19.6597 16.9054L20.0381 17.718C20.9482 17.2943 21.8053 17.2325 22.5503 17.4454C23.2965 17.6587 24.0053 18.1693 24.5776 19.0227L25.3221 18.5234L26.0666 18.0242C25.2917 16.8686 24.2506 16.0669 23.043 15.7217C21.8343 15.3762 20.5338 15.5097 19.2814 16.0927L19.6597 16.9054ZM25.3221 18.5234L24.4838 18.841C24.863 19.8418 24.9306 20.9155 24.5854 21.8316L25.4242 22.1477L26.263 22.4638C26.7972 21.0463 26.6549 19.5113 26.1603 18.2058L25.3221 18.5234ZM25.4242 22.1477L24.6123 21.7677C24.4203 22.178 24.1887 22.4281 23.7965 22.6398L24.2224 23.4286L24.6482 24.2174C25.3919 23.8159 25.8874 23.2726 26.236 22.5277L25.4242 22.1477ZM24.2224 23.4286L24.0071 22.5584C23.8992 22.5851 23.8169 22.5805 23.7219 22.5545C23.6051 22.5224 23.4655 22.4572 23.2412 22.3313L22.8023 23.1129L22.3634 23.8945C22.8544 24.1702 23.5389 24.5211 24.4376 24.2988L24.2224 23.4286ZM22.8023 23.1129L23.481 22.5274C23.2045 22.2068 22.9671 21.8547 22.695 21.4447L21.9481 21.9403L21.2012 22.436C21.4678 22.8377 21.763 23.2804 22.1235 23.6984L22.8023 23.1129ZM21.9481 21.9403L22.6907 21.4383C22.4773 21.1226 22.2367 20.8284 21.9151 20.589C21.5873 20.345 21.2261 20.1954 20.8192 20.0952L20.6048 20.9656L20.3905 21.836C20.6277 21.8944 20.7539 21.9596 20.8447 22.0272C20.9415 22.0993 21.0504 22.213 21.2055 22.4424L21.9481 21.9403ZM20.6048 20.9656L20.6731 20.0718C20.4158 20.0521 20.1589 20.0392 19.9041 20.0316L19.8774 20.9276L19.8506 21.8236C20.081 21.8305 20.31 21.8421 20.5366 21.8594L20.6048 20.9656ZM19.8774 20.9276L19.9067 20.0317C19.3231 20.0126 19.0761 19.9663 18.7045 19.7372L18.2341 20.5003L17.7637 21.2634C18.5157 21.7269 19.1219 21.7997 19.848 21.8235L19.8774 20.9276ZM18.2341 20.5003L18.9442 19.9532C18.6953 19.6302 18.6221 19.3849 18.6453 19.1843L17.7548 19.0815L16.8644 18.9786C16.7655 19.8343 17.1346 20.5419 17.524 21.0474L18.2341 20.5003ZM17.7548 19.0815L18.6103 19.3493C18.8414 18.6108 19.3175 18.1038 20.0816 17.6963L19.6597 16.9054L19.2379 16.1144C18.16 16.6893 17.302 17.5273 16.8994 18.8137L17.7548 19.0815Z" fill="white" mask="url(#path-4-outside-1_9231_1123)"/>
</svg>
