<svg width="45" height="50" viewBox="0 0 45 50" fill="none" xmlns="http://www.w3.org/2000/svg">
<mask id="mask0_9231_1123" style="mask-type:luminance" maskUnits="userSpaceOnUse" x="12" y="8" width="33" height="33">
<path d="M12.5469 8.12451H44.993V40.5706H12.5469V8.12451Z" fill="white"/>
</mask>
<g mask="url(#mask0_9231_1123)">
<mask id="mask1_9231_1123" style="mask-type:luminance" maskUnits="userSpaceOnUse" x="12" y="8" width="33" height="33">
<path d="M28.7699 8.12451C19.8103 8.12451 12.5469 15.3877 12.5469 24.3476C12.5469 33.3072 19.8103 40.5706 28.7699 40.5706C37.7298 40.5706 44.993 33.3072 44.993 24.3476C44.993 15.3877 37.7298 8.12451 28.7699 8.12451Z" fill="white"/>
</mask>
<g mask="url(#mask1_9231_1123)">
<path d="M12.5469 8.12451H44.993V40.5706H12.5469V8.12451Z" fill="white"/>
</g>
</g>
<mask id="path-4-outside-1_9231_1123" maskUnits="userSpaceOnUse" x="-1.97852" y="-2.2323" width="41.6141" height="55.4018" fill="black">
<rect fill="white" x="-1.97852" y="-2.2323" width="41.6141" height="55.4018"/>
<path d="M26.8126 3.87179C29.4143 6.23996 30.4101 10.9342 30.6425 14.2795C30.7287 16.1204 30.3973 17.8904 29.9777 19.6725C30.8656 19.313 31.4167 18.0387 31.8299 17.2152C32.4702 19.1821 31.6863 21.7505 30.7981 23.5239C29.1057 26.7989 26.682 28.7731 23.3365 30.2344C23.1373 30.3242 23.1371 30.3244 22.934 30.4159C20.768 31.3483 18.2831 31.9454 15.9274 32.0931C16.6739 32.3373 17.3682 32.4876 18.1507 32.5458C18.3042 32.5574 18.3046 32.5573 18.4612 32.5692C19.7259 32.6472 20.8638 32.4057 22.0532 31.9878C20.6115 33.2645 18.7826 33.5708 16.9524 33.9236C14.8471 34.332 12.8977 34.8621 11.0422 35.9671C12.6908 35.9371 14.2489 35.8021 15.8591 35.4415C15.6282 35.986 15.1628 36.0867 14.6399 36.3205C13.7244 36.6785 12.7702 36.871 11.8068 37.0508C9.97044 37.3958 7.91657 37.8084 6.74328 39.414C6.05842 40.5986 5.53511 41.9289 5.42559 43.2997C5.38715 43.5683 5.38637 43.5683 5.12617 43.8633C4.99952 42.5262 4.95524 41.3274 5.27477 40.008C5.29891 39.8924 5.32331 39.7764 5.34818 39.6572C5.47802 39.1748 5.66275 38.7287 5.85984 38.2704C5.91285 38.1435 5.91249 38.1431 5.96669 38.0134C6.16982 37.5366 6.39251 37.0782 6.64094 36.6233C6.99413 35.9737 7.29731 35.3083 7.58932 34.6293C7.64074 34.5146 7.69221 34.3999 7.74518 34.2817C8.25599 33.094 8.45576 31.984 7.98326 30.7507C7.79455 30.3785 7.58677 30.0245 7.35834 29.6754C7.91125 29.7193 8.09704 29.9899 8.47064 30.3793C9.20341 31.2408 9.47576 32.306 9.39017 33.4316C9.3542 33.6653 9.3051 33.8972 9.25399 34.128C9.55008 34.0082 9.61046 33.6631 9.73069 33.384C10.5218 31.4484 10.2341 29.6593 9.68741 27.6897C9.13928 25.7089 8.59467 23.5737 9.18981 21.5334C9.27562 21.4361 9.36121 21.3386 9.44962 21.2384C9.44411 21.3717 9.43865 21.5055 9.43298 21.6429C9.37987 23.786 10.0073 25.5679 11.1125 27.4008C11.1795 27.5123 11.247 27.6237 11.3161 27.7386C11.4517 27.9622 11.5887 28.1855 11.7274 28.4072C12.048 28.9316 12.3518 29.7045 12.4586 30.3625L12.4911 30.6361C12.7212 28.6017 12.3316 26.8863 11.7995 24.9374C11.0739 22.272 10.4787 19.626 10.9028 16.8554C10.9144 16.7566 10.9259 16.6569 10.9378 16.5552C11.2882 14.2618 12.7112 11.9785 14.5216 10.5521L14.6358 10.6005C14.5855 10.9253 14.5353 11.2501 14.4847 11.5749C14.4705 11.6663 14.4558 11.7582 14.4413 11.8524C14.3681 12.3206 14.2903 12.7853 14.1888 13.2484L14.418 13.3456C14.4735 13.1926 14.4734 13.1925 14.5299 13.0366C15.4185 10.7506 17.3444 9.36233 19.5112 8.34316C19.6295 8.28616 19.7479 8.22931 19.8697 8.17059C20.4233 7.90758 20.9808 7.65454 21.5426 7.40975C24.5545 6.14004 24.5549 6.14023 26.8126 3.87179ZM26.5304 15.5421C25.0548 13.4519 22.539 12.3306 19.9859 12.8223C18.2304 13.2978 16.7924 14.1817 15.7822 15.7145C14.9721 17.2719 14.5271 18.8361 14.9551 20.5921C15.4654 22.2535 16.3302 23.8652 17.9075 24.7238C19.6067 25.5542 21.2652 25.9094 23.1058 25.305C24.6986 24.6953 26.1123 23.7586 26.8696 22.1796C27.5618 20.621 27.9926 19.0114 27.3561 17.3347C27.316 17.2409 27.2766 17.1496 27.2377 17.0586C27.0297 16.535 26.806 16.0339 26.5304 15.5421ZM19.0699 16.016C21.2324 15.0093 23.3851 15.6251 24.7322 17.634C25.1691 18.7871 25.274 20.0915 24.8343 21.2583C24.564 21.8359 24.2004 22.2326 23.6325 22.5392C23.0929 22.6727 22.6784 22.4852 22.2124 22.2235C21.8939 21.8542 21.6276 21.4568 21.3582 21.0509C20.9898 20.5059 20.6592 20.2348 20.015 20.0762C19.773 20.0577 19.5301 20.0455 19.2875 20.0382C18.6327 20.0167 18.206 19.9572 17.6443 19.6109C17.3251 19.1966 17.104 18.7202 17.165 18.1921C17.4819 17.1797 18.1489 16.5072 19.0699 16.016Z"/>
</mask>
<path d="M26.8126 3.87179C29.4143 6.23996 30.4101 10.9342 30.6425 14.2795C30.7287 16.1204 30.3973 17.8904 29.9777 19.6725C30.8656 19.313 31.4167 18.0387 31.8299 17.2152C32.4702 19.1821 31.6863 21.7505 30.7981 23.5239C29.1057 26.7989 26.682 28.7731 23.3365 30.2344C23.1373 30.3242 23.1371 30.3244 22.934 30.4159C20.768 31.3483 18.2831 31.9454 15.9274 32.0931C16.6739 32.3373 17.3682 32.4876 18.1507 32.5458C18.3042 32.5574 18.3046 32.5573 18.4612 32.5692C19.7259 32.6472 20.8638 32.4057 22.0532 31.9878C20.6115 33.2645 18.7826 33.5708 16.9524 33.9236C14.8471 34.332 12.8977 34.8621 11.0422 35.9671C12.6908 35.9371 14.2489 35.8021 15.8591 35.4415C15.6282 35.986 15.1628 36.0867 14.6399 36.3205C13.7244 36.6785 12.7702 36.871 11.8068 37.0508C9.97044 37.3958 7.91657 37.8084 6.74328 39.414C6.05842 40.5986 5.53511 41.9289 5.42559 43.2997C5.38715 43.5683 5.38637 43.5683 5.12617 43.8633C4.99952 42.5262 4.95524 41.3274 5.27477 40.008C5.29891 39.8924 5.32331 39.7764 5.34818 39.6572C5.47802 39.1748 5.66275 38.7287 5.85984 38.2704C5.91285 38.1435 5.91249 38.1431 5.96669 38.0134C6.16982 37.5366 6.39251 37.0782 6.64094 36.6233C6.99413 35.9737 7.29731 35.3083 7.58932 34.6293C7.64074 34.5146 7.69221 34.3999 7.74518 34.2817C8.25599 33.094 8.45576 31.984 7.98326 30.7507C7.79455 30.3785 7.58677 30.0245 7.35834 29.6754C7.91125 29.7193 8.09704 29.9899 8.47064 30.3793C9.20341 31.2408 9.47576 32.306 9.39017 33.4316C9.3542 33.6653 9.3051 33.8972 9.25399 34.128C9.55008 34.0082 9.61046 33.6631 9.73069 33.384C10.5218 31.4484 10.2341 29.6593 9.68741 27.6897C9.13928 25.7089 8.59467 23.5737 9.18981 21.5334C9.27562 21.4361 9.36121 21.3386 9.44962 21.2384C9.44411 21.3717 9.43865 21.5055 9.43298 21.6429C9.37987 23.786 10.0073 25.5679 11.1125 27.4008C11.1795 27.5123 11.247 27.6237 11.3161 27.7386C11.4517 27.9622 11.5887 28.1855 11.7274 28.4072C12.048 28.9316 12.3518 29.7045 12.4586 30.3625L12.4911 30.6361C12.7212 28.6017 12.3316 26.8863 11.7995 24.9374C11.0739 22.272 10.4787 19.626 10.9028 16.8554C10.9144 16.7566 10.9259 16.6569 10.9378 16.5552C11.2882 14.2618 12.7112 11.9785 14.5216 10.5521L14.6358 10.6005C14.5855 10.9253 14.5353 11.2501 14.4847 11.5749C14.4705 11.6663 14.4558 11.7582 14.4413 11.8524C14.3681 12.3206 14.2903 12.7853 14.1888 13.2484L14.418 13.3456C14.4735 13.1926 14.4734 13.1925 14.5299 13.0366C15.4185 10.7506 17.3444 9.36233 19.5112 8.34316C19.6295 8.28616 19.7479 8.22931 19.8697 8.17059C20.4233 7.90758 20.9808 7.65454 21.5426 7.40975C24.5545 6.14004 24.5549 6.14023 26.8126 3.87179ZM26.5304 15.5421C25.0548 13.4519 22.539 12.3306 19.9859 12.8223C18.2304 13.2978 16.7924 14.1817 15.7822 15.7145C14.9721 17.2719 14.5271 18.8361 14.9551 20.5921C15.4654 22.2535 16.3302 23.8652 17.9075 24.7238C19.6067 25.5542 21.2652 25.9094 23.1058 25.305C24.6986 24.6953 26.1123 23.7586 26.8696 22.1796C27.5618 20.621 27.9926 19.0114 27.3561 17.3347C27.316 17.2409 27.2766 17.1496 27.2377 17.0586C27.0297 16.535 26.806 16.0339 26.5304 15.5421ZM19.0699 16.016C21.2324 15.0093 23.3851 15.6251 24.7322 17.634C25.1691 18.7871 25.274 20.0915 24.8343 21.2583C24.564 21.8359 24.2004 22.2326 23.6325 22.5392C23.0929 22.6727 22.6784 22.4852 22.2124 22.2235C21.8939 21.8542 21.6276 21.4568 21.3582 21.0509C20.9898 20.5059 20.6592 20.2348 20.015 20.0762C19.773 20.0577 19.5301 20.0455 19.2875 20.0382C18.6327 20.0167 18.206 19.9572 17.6443 19.6109C17.3251 19.1966 17.104 18.7202 17.165 18.1921C17.4819 17.1797 18.1489 16.5072 19.0699 16.016Z" fill="black"/>
<path d="M26.8126 3.87179L27.416 3.20887L26.782 2.63181L26.1772 3.23944L26.8126 3.87179ZM30.6425 14.2795L31.5379 14.2376L31.5374 14.2275L31.5367 14.2174L30.6425 14.2795ZM29.9777 19.6725L29.1051 19.467L28.708 21.1536L30.314 20.5034L29.9777 19.6725ZM31.8299 17.2152L32.6823 16.9378L32.0071 14.8635L31.0288 16.8132L31.8299 17.2152ZM30.7981 23.5239L31.5945 23.9355L31.5996 23.9253L30.7981 23.5239ZM23.3365 30.2344L22.9777 29.4129L22.9684 29.4171L23.3365 30.2344ZM22.934 30.4159L23.2884 31.2392L23.2953 31.2363L23.3021 31.2332L22.934 30.4159ZM15.9274 32.0931L15.8713 31.1985L15.6488 32.9451L15.9274 32.0931ZM18.1507 32.5458L18.2186 31.652L18.2173 31.6519L18.1507 32.5458ZM18.4612 32.5692L18.3933 33.4631L18.406 33.4639L18.4612 32.5692ZM22.0532 31.9878L22.6475 32.6588L21.756 31.1421L22.0532 31.9878ZM16.9524 33.9236L16.7827 33.0434L16.7817 33.0436L16.9524 33.9236ZM11.0422 35.9671L10.5835 35.1969L7.68219 36.9248L11.0585 36.8634L11.0422 35.9671ZM15.8591 35.4415L16.6843 35.7914L17.3652 34.1855L15.6631 34.5667L15.8591 35.4415ZM14.6399 36.3205L14.9664 37.1553L14.9862 37.1475L15.0057 37.1388L14.6399 36.3205ZM11.8068 37.0508L11.6424 36.1696L11.6413 36.1698L11.8068 37.0508ZM6.74328 39.414L6.01953 38.8851L5.99123 38.9238L5.96723 38.9653L6.74328 39.414ZM5.42559 43.2997L6.31295 43.4267L6.31692 43.399L6.31915 43.3711L5.42559 43.2997ZM5.12617 43.8633L4.23377 43.9478L4.429 46.0089L5.79845 44.4562L5.12617 43.8633ZM5.27477 40.008L6.14599 40.219L6.14935 40.2051L6.15226 40.1911L5.27477 40.008ZM5.34818 39.6572L4.48258 39.4243L4.47592 39.449L4.47069 39.4741L5.34818 39.6572ZM5.85984 38.2704L6.68337 38.6245L6.68694 38.616L5.85984 38.2704ZM5.96669 38.0134L5.142 37.662L5.13959 37.6678L5.96669 38.0134ZM6.64094 36.6233L7.42767 37.053L7.42847 37.0515L6.64094 36.6233ZM7.58932 34.6293L6.77125 34.2626L6.76584 34.2751L7.58932 34.6293ZM7.74518 34.2817L8.56325 34.6484L8.56865 34.6359L7.74518 34.2817ZM7.98326 30.7507L8.82033 30.43L8.80373 30.3867L8.78276 30.3453L7.98326 30.7507ZM7.35834 29.6754L7.42933 28.7818L5.60768 28.6371L6.60826 30.1662L7.35834 29.6754ZM8.47064 30.3793L9.15343 29.7985L9.13605 29.7781L9.11747 29.7587L8.47064 30.3793ZM9.39017 33.4316L10.2761 33.568L10.2814 33.5339L10.284 33.4995L9.39017 33.4316ZM9.25399 34.128L8.37879 33.9342L8.01037 35.598L9.59011 34.959L9.25399 34.128ZM9.73069 33.384L10.554 33.7386L10.5573 33.7309L10.5605 33.7231L9.73069 33.384ZM9.68741 27.6897L8.82348 27.9288L8.82366 27.9294L9.68741 27.6897ZM9.18981 21.5334L8.51754 20.9405L8.38527 21.0904L8.32928 21.2824L9.18981 21.5334ZM9.44962 21.2384L10.3453 21.2753L10.4496 18.7495L8.77735 20.6454L9.44962 21.2384ZM9.43298 21.6429L8.53734 21.6059L8.53704 21.6133L8.53685 21.6207L9.43298 21.6429ZM11.1125 27.4008L11.8805 26.9385L11.8801 26.938L11.1125 27.4008ZM11.3161 27.7386L10.5481 28.2009L10.5497 28.2034L11.3161 27.7386ZM11.7274 28.4072L12.4922 27.9396L12.4874 27.932L11.7274 28.4072ZM12.4586 30.3625L13.3488 30.2568L13.3465 30.2378L13.3435 30.2188L12.4586 30.3625ZM12.4911 30.6361L11.601 30.7418L13.3818 30.7369L12.4911 30.6361ZM11.7995 24.9374L10.9346 25.1729L10.9347 25.1735L11.7995 24.9374ZM10.9028 16.8554L11.7889 16.991L11.7913 16.9753L11.7932 16.9596L10.9028 16.8554ZM10.9378 16.5552L10.0517 16.4198L10.0494 16.4353L10.0475 16.451L10.9378 16.5552ZM14.5216 10.5521L14.8716 9.72681L14.3834 9.51982L13.9669 9.84797L14.5216 10.5521ZM14.6358 10.6005L15.5217 10.7376L15.6284 10.0477L14.9857 9.77522L14.6358 10.6005ZM14.4847 11.5749L13.599 11.4368L13.5988 11.438L14.4847 11.5749ZM14.4413 11.8524L15.3269 11.9908L15.3271 11.9893L14.4413 11.8524ZM14.1888 13.2484L13.3132 13.0564L13.1539 13.7832L13.8389 14.0737L14.1888 13.2484ZM14.418 13.3456L14.0681 14.1709L14.9385 14.5399L15.2608 13.6511L14.418 13.3456ZM14.5299 13.0366L13.6945 12.7119L13.6907 12.7214L13.6872 12.7311L14.5299 13.0366ZM19.5112 8.34316L19.8928 9.15435L19.9005 9.15062L19.5112 8.34316ZM19.8697 8.17059L19.4851 7.36091L19.4805 7.36312L19.8697 8.17059ZM21.5426 7.40975L21.1944 6.58369L21.1846 6.58796L21.5426 7.40975ZM26.5304 15.5421L27.3124 15.1039L27.2896 15.0632L27.2627 15.0251L26.5304 15.5421ZM19.9859 12.8223L19.8164 11.9421L19.7837 11.9484L19.7516 11.9571L19.9859 12.8223ZM15.7822 15.7145L15.0337 15.2212L15.0083 15.2598L14.987 15.3008L15.7822 15.7145ZM14.9551 20.5921L14.0842 20.8044L14.0905 20.83L14.0982 20.8553L14.9551 20.5921ZM17.9075 24.7238L17.479 25.5111L17.4963 25.5205L17.5139 25.5292L17.9075 24.7238ZM23.1058 25.305L23.3854 26.1566L23.406 26.1499L23.4262 26.1421L23.1058 25.305ZM26.8696 22.1796L27.6778 22.5672L27.6835 22.5554L27.6888 22.5434L26.8696 22.1796ZM27.3561 17.3347L28.1941 17.0166L28.1876 16.9994L28.1804 16.9825L27.3561 17.3347ZM27.2377 17.0586L26.4046 17.3895L26.4089 17.4002L26.4134 17.4108L27.2377 17.0586ZM19.0699 16.016L18.6916 15.2033L18.6695 15.2136L18.6481 15.225L19.0699 16.016ZM24.7322 17.634L25.5705 17.3164L25.534 17.2202L25.4767 17.1348L24.7322 17.634ZM24.8343 21.2583L25.6462 21.6383L25.6609 21.6069L25.6731 21.5744L24.8343 21.2583ZM23.6325 22.5392L23.8477 23.4094L23.9582 23.3821L24.0584 23.328L23.6325 22.5392ZM22.2124 22.2235L21.5337 22.809L21.6364 22.9281L21.7735 23.0051L22.2124 22.2235ZM21.3582 21.0509L22.1052 20.5553L22.1009 20.5489L21.3582 21.0509ZM20.015 20.0762L20.2294 19.2058L20.1573 19.188L20.0833 19.1824L20.015 20.0762ZM19.2875 20.0382L19.2582 20.9341L19.2608 20.9342L19.2875 20.0382ZM17.6443 19.6109L16.9342 20.158L17.0343 20.2879L17.1739 20.374L17.6443 19.6109ZM17.165 18.1921L16.3095 17.9243L16.2842 18.0051L16.2745 18.0892L17.165 18.1921ZM26.8126 3.87179L26.2092 4.5347C27.3453 5.56879 28.1818 7.16584 28.7622 8.98208C29.3383 10.7851 29.6357 12.7212 29.7482 14.3416L30.6425 14.2795L31.5367 14.2174C31.4169 12.4925 31.1002 10.4088 30.4699 8.43639C29.8439 6.47713 28.8816 4.54295 27.416 3.20887L26.8126 3.87179ZM30.6425 14.2795L29.7471 14.3214C29.8272 16.0329 29.5205 17.7031 29.1051 19.467L29.9777 19.6725L30.8502 19.8779C31.2741 18.0777 31.6302 16.2079 31.5379 14.2376L30.6425 14.2795ZM29.9777 19.6725L30.314 20.5034C31.0219 20.2168 31.5076 19.6122 31.8354 19.1032C32.17 18.5837 32.4438 17.9905 32.6311 17.6173L31.8299 17.2152L31.0288 16.8132C30.8028 17.2635 30.5944 17.7191 30.3282 18.1325C30.0552 18.5564 29.8214 18.7687 29.6413 18.8416L29.9777 19.6725ZM31.8299 17.2152L30.9776 17.4927C31.2318 18.2739 31.2188 19.2363 31.0089 20.2625C30.8009 21.2795 30.4134 22.2902 29.9966 23.1225L30.7981 23.5239L31.5996 23.9253C32.0709 22.9842 32.5195 21.824 32.7654 20.6217C33.0094 19.4286 33.0683 18.1235 32.6823 16.9378L31.8299 17.2152ZM30.7981 23.5239L30.0017 23.1124C28.4216 26.1702 26.1734 28.0171 22.9777 29.413L23.3365 30.2344L23.6954 31.0559C27.1905 29.5292 29.7898 27.4277 31.5944 23.9354L30.7981 23.5239ZM23.3365 30.2344L22.9684 29.4171C22.8686 29.4621 22.8186 29.4846 22.7682 29.5074C22.7179 29.53 22.6672 29.5529 22.5658 29.5986L22.934 30.4159L23.3021 31.2332C23.4039 31.1873 23.4548 31.1643 23.5053 31.1416C23.5555 31.1189 23.6052 31.0965 23.7047 31.0517L23.3365 30.2344ZM22.934 30.4159L22.5795 29.5925C20.5074 30.4846 18.1234 31.0573 15.8713 31.1985L15.9274 32.0931L15.9835 32.9878C18.4427 32.8336 21.0285 32.2121 23.2884 31.2392L22.934 30.4159ZM15.9274 32.0931L15.6488 32.9451C16.4538 33.2084 17.2196 33.3754 18.0842 33.4397L18.1507 32.5458L18.2173 31.6519C17.5168 31.5997 16.894 31.4661 16.2061 31.2411L15.9274 32.0931ZM18.1507 32.5458L18.0829 33.4396C18.16 33.4455 18.1987 33.4484 18.2377 33.4513C18.2764 33.4542 18.3154 33.4571 18.3933 33.463L18.4612 32.5692L18.529 31.6754C18.4504 31.6694 18.4109 31.6664 18.3719 31.6635C18.3331 31.6606 18.295 31.6577 18.2186 31.652L18.1507 32.5458ZM18.4612 32.5692L18.406 33.4639C19.8283 33.5517 21.0905 33.2761 22.3503 32.8335L22.0532 31.9878L21.756 31.1421C20.6371 31.5352 19.6236 31.7428 18.5164 31.6745L18.4612 32.5692ZM22.0532 31.9878L21.4589 31.3167C20.2358 32.3999 18.6771 32.6783 16.7827 33.0434L16.9524 33.9236L17.122 34.8038C18.8881 34.4634 20.9872 34.1292 22.6475 32.6588L22.0532 31.9878ZM16.9524 33.9236L16.7817 33.0436C14.6397 33.4591 12.5711 34.0133 10.5835 35.1969L11.0422 35.9671L11.5009 36.7373C13.2244 35.7108 15.0545 35.2048 17.1231 34.8036L16.9524 33.9236ZM11.0422 35.9671L11.0585 36.8634C12.7468 36.8326 14.3685 36.6939 16.055 36.3162L15.8591 35.4415L15.6631 34.5667C14.1293 34.9103 12.6348 35.0416 11.0259 35.0709L11.0422 35.9671ZM15.8591 35.4415L15.0338 35.0915C15.0089 35.1503 14.9876 35.1765 14.9083 35.2227C14.8543 35.2541 14.783 35.2877 14.6709 35.3349C14.5762 35.3747 14.4153 35.439 14.2741 35.5021L14.6399 36.3205L15.0057 37.1388C15.1559 37.0717 15.5488 36.9241 15.8096 36.7724C16.1514 36.5736 16.4783 36.2772 16.6843 35.7914L15.8591 35.4415ZM14.6399 36.3205L14.3134 35.4856C13.4853 35.8094 12.6069 35.9896 11.6424 36.1696L11.8068 37.0508L11.9712 37.932C12.9335 37.7524 13.9634 37.5475 14.9664 37.1553L14.6399 36.3205ZM11.8068 37.0508L11.6413 36.1698C9.87844 36.501 7.43644 36.9461 6.01953 38.8851L6.74328 39.414L7.46703 39.9429C8.3967 38.6706 10.0624 38.2906 11.9723 37.9318L11.8068 37.0508ZM6.74328 39.414L5.96723 38.9653C5.24043 40.2225 4.65552 41.6828 4.53204 43.2283L5.42559 43.2997L6.31915 43.3711C6.41469 42.1751 6.87642 40.9747 7.51932 39.8626L6.74328 39.414ZM5.42559 43.2997L4.53824 43.1727C4.53319 43.208 4.53005 43.2297 4.52724 43.2472C4.52452 43.2642 4.5237 43.267 4.52469 43.2627C4.52596 43.257 4.52989 43.2407 4.53783 43.2184C4.54613 43.195 4.55638 43.1718 4.5679 43.1501C4.58894 43.1106 4.60482 43.0948 4.58275 43.1219C4.57266 43.1342 4.55806 43.1515 4.53566 43.1773C4.51324 43.2031 4.48719 43.2326 4.4539 43.2703L5.12617 43.8633L5.79845 44.4562C5.85858 44.388 5.92112 44.3174 5.9719 44.2552C6.02436 44.1909 6.09161 44.103 6.15018 43.9931C6.27589 43.7571 6.29953 43.5205 6.31295 43.4267L5.42559 43.2997ZM5.12617 43.8633L6.01858 43.7787C5.8946 42.4699 5.86218 41.3909 6.14599 40.219L5.27477 40.008L4.40356 39.797C4.0483 41.264 4.10444 42.5825 4.23377 43.9478L5.12617 43.8633ZM5.27477 40.008L6.15226 40.1911C6.16424 40.1337 6.1763 40.0762 6.18854 40.0178C6.20076 39.9595 6.21315 39.9004 6.22567 39.8404L5.34818 39.6572L4.47069 39.4741C4.45834 39.5332 4.4461 39.5917 4.43386 39.6501C4.42165 39.7083 4.40944 39.7666 4.39728 39.8248L5.27477 40.008ZM5.34818 39.6572L6.21377 39.8902C6.32537 39.4756 6.48694 39.0812 6.68333 38.6245L5.85984 38.2704L5.03636 37.9163C4.83856 38.3762 4.63068 38.874 4.48258 39.4243L5.34818 39.6572ZM5.85984 38.2704L6.68694 38.616C6.71401 38.5512 6.72761 38.5183 6.74114 38.4856C6.75422 38.454 6.76724 38.4225 6.79379 38.359L5.96669 38.0134L5.13959 37.6678C5.11194 37.734 5.09804 37.7676 5.08449 37.8003C5.0714 37.832 5.05868 37.8627 5.03275 37.9248L5.85984 38.2704ZM5.96669 38.0134L6.79136 38.3647C6.9829 37.9152 7.19287 37.4829 7.42767 37.053L6.64094 36.6233L5.85421 36.1937C5.59215 36.6736 5.35674 37.158 5.14202 37.662L5.96669 38.0134ZM6.64094 36.6233L7.42847 37.0515C7.80082 36.3666 8.11648 35.6724 8.41279 34.9834L7.58932 34.6293L6.76584 34.2751C6.47813 34.9441 6.18744 35.5808 5.85341 36.1952L6.64094 36.6233ZM7.58932 34.6293L8.40729 34.996C8.43296 34.9387 8.45865 34.8814 8.48457 34.8236C8.51048 34.7658 8.53663 34.7075 8.56315 34.6484L7.74518 34.2817L6.92721 33.915C6.90076 33.974 6.87468 34.0322 6.84876 34.09C6.82285 34.1477 6.7971 34.2052 6.77135 34.2626L7.58932 34.6293ZM7.74518 34.2817L8.56865 34.6359C9.13069 33.3291 9.40738 31.9623 8.82033 30.43L7.98326 30.7507L7.14619 31.0714C7.50413 32.0057 7.3813 32.859 6.92172 33.9275L7.74518 34.2817ZM7.98326 30.7507L8.78276 30.3453C8.57751 29.9406 8.35278 29.558 8.10843 29.1846L7.35834 29.6754L6.60826 30.1662C6.82077 30.491 7.01158 30.8165 7.18376 31.1561L7.98326 30.7507ZM7.35834 29.6754L7.28735 30.569C7.35587 30.5744 7.38806 30.5847 7.39992 30.5891C7.41006 30.5929 7.42185 30.5984 7.44355 30.6146C7.47031 30.6347 7.50852 30.6685 7.57437 30.7362C7.60696 30.7697 7.64155 30.8065 7.68401 30.8518C7.7249 30.8955 7.77262 30.9465 7.82381 30.9999L8.47064 30.3793L9.11747 29.7587C8.98691 29.6226 8.75954 29.3608 8.5199 29.1809C8.21686 28.9534 7.86885 28.8167 7.42933 28.7818L7.35834 29.6754ZM8.47064 30.3793L7.78784 30.9601C8.34121 31.6106 8.56736 32.4298 8.49635 33.3636L9.39017 33.4316L10.284 33.4995C10.3842 32.1821 10.0656 30.8709 9.15343 29.7985L8.47064 30.3793ZM9.39017 33.4316L8.5042 33.2952C8.47294 33.4983 8.42925 33.7063 8.37879 33.9342L9.25399 34.128L10.1292 34.3218C10.181 34.088 10.2355 33.8322 10.2761 33.568L9.39017 33.4316ZM9.25399 34.128L9.59011 34.959C10.0265 34.7825 10.2474 34.4451 10.3623 34.2122C10.4182 34.0988 10.4599 33.9876 10.4878 33.9123C10.5208 33.8232 10.5359 33.7806 10.554 33.7386L9.73069 33.384L8.90743 33.0293C8.86539 33.1269 8.82787 33.2321 8.80645 33.29C8.77994 33.3616 8.76555 33.3965 8.75432 33.4193C8.74412 33.44 8.74933 33.4235 8.77618 33.3942C8.80778 33.3598 8.85639 33.3219 8.91786 33.297L9.25399 34.128ZM9.73069 33.384L10.5605 33.7231C11.4684 31.5017 11.111 29.4672 10.5512 27.45L9.68741 27.6897L8.82366 27.9294C9.35709 29.8514 9.57522 31.3951 8.90092 33.0448L9.73069 33.384ZM9.68741 27.6897L10.5513 27.4506C9.99388 25.4362 9.53698 23.5443 10.0503 21.7844L9.18981 21.5334L8.32928 21.2824C7.65236 23.603 8.28467 25.9817 8.82348 27.9288L9.68741 27.6897ZM9.18981 21.5334L9.86209 22.1263C9.9054 22.0772 9.9486 22.0281 9.99171 21.9791C10.0349 21.93 10.0781 21.881 10.1219 21.8313L9.44962 21.2384L8.77735 20.6454C8.73274 20.696 8.6889 20.7458 8.64577 20.7948C8.60253 20.844 8.56004 20.8923 8.51754 20.9405L9.18981 21.5334ZM9.44962 21.2384L8.55399 21.2014C8.55123 21.2682 8.54848 21.335 8.54572 21.4023C8.54295 21.4696 8.54017 21.5373 8.53734 21.6059L9.43298 21.6429L10.3286 21.6798C10.3315 21.611 10.3342 21.5432 10.337 21.4759C10.3398 21.4086 10.3425 21.3419 10.3453 21.2753L9.44962 21.2384ZM9.43298 21.6429L8.53685 21.6207C8.47842 23.9787 9.17759 25.9278 10.3448 27.8637L11.1125 27.4008L11.8801 26.938C10.8371 25.208 10.2813 23.5934 10.3291 21.6651L9.43298 21.6429ZM11.1125 27.4008L10.3445 27.8631C10.3783 27.9193 10.4122 27.9755 10.4461 28.0316C10.48 28.0878 10.5139 28.1439 10.5481 28.2009L11.3161 27.7386L12.0841 27.2763C12.0492 27.2183 12.0148 27.1613 11.981 27.1053C11.9471 27.049 11.9137 26.9937 11.8805 26.9385L11.1125 27.4008ZM11.3161 27.7386L10.5497 28.2034C10.6868 28.4296 10.826 28.6564 10.9673 28.8824L11.7274 28.4072L12.4874 27.932C12.3514 27.7145 12.2167 27.4948 12.0826 27.2737L11.3161 27.7386ZM11.7274 28.4072L10.9626 28.8749C11.2277 29.3083 11.4871 29.972 11.5738 30.5061L12.4586 30.3625L13.3435 30.2188C13.2165 29.4369 12.8684 28.555 12.4921 27.9396L11.7274 28.4072ZM12.4586 30.3625L11.5685 30.4681L11.601 30.7418L12.4911 30.6361L13.3813 30.5305L13.3488 30.2568L12.4586 30.3625ZM12.4911 30.6361L13.3818 30.7369C13.6323 28.522 13.2007 26.6661 12.6642 24.7013L11.7995 24.9374L10.9347 25.1735C11.4625 27.1065 11.8101 28.6814 11.6004 30.5354L12.4911 30.6361ZM11.7995 24.9374L12.6644 24.702C11.9407 22.0434 11.3958 19.5586 11.7889 16.991L10.9028 16.8554L10.0168 16.7197C9.56151 19.6934 10.2071 22.5006 10.9346 25.1729L11.7995 24.9374ZM10.9028 16.8554L11.7932 16.9596C11.799 16.9098 11.8048 16.8599 11.8106 16.81C11.8164 16.76 11.8223 16.7099 11.8282 16.6594L10.9378 16.5552L10.0475 16.451C10.0415 16.5022 10.0356 16.5528 10.0298 16.6028C10.024 16.6528 10.0183 16.7021 10.0125 16.7511L10.9028 16.8554ZM10.9378 16.5552L11.824 16.6905C12.137 14.6417 13.4281 12.5549 15.0764 11.2562L14.5216 10.5521L13.9669 9.84797C11.9943 11.4022 10.4395 13.8818 10.0517 16.4198L10.9378 16.5552ZM14.5216 10.5521L14.1717 11.3774L14.2859 11.4258L14.6358 10.6005L14.9857 9.77522L14.8716 9.72681L14.5216 10.5521ZM14.6358 10.6005L13.75 10.4634C13.6997 10.7883 13.6495 11.1126 13.599 11.4368L14.4847 11.5749L15.3704 11.7129C15.4211 11.3876 15.4714 11.0623 15.5217 10.7376L14.6358 10.6005ZM14.4847 11.5749L13.5988 11.438C13.592 11.4822 13.5849 11.5268 13.5776 11.5732C13.5704 11.6192 13.5629 11.6669 13.5554 11.7155L14.4413 11.8524L15.3271 11.9893C15.3342 11.9436 15.3413 11.8983 15.3486 11.852C15.3559 11.8061 15.3633 11.759 15.3706 11.7118L14.4847 11.5749ZM14.4413 11.8524L13.5556 11.714C13.4832 12.1775 13.4087 12.6206 13.3132 13.0564L14.1888 13.2484L15.0644 13.4403C15.1719 12.95 15.253 12.4636 15.3269 11.9908L14.4413 11.8524ZM14.1888 13.2484L13.8389 14.0737L14.0681 14.1709L14.418 13.3456L14.768 12.5203L14.5387 12.4231L14.1888 13.2484ZM14.418 13.3456L15.2608 13.6511C15.2886 13.5744 15.3025 13.5359 15.3165 13.4972C15.3305 13.4587 15.3445 13.4199 15.3727 13.3422L14.5299 13.0366L13.6872 12.7311C13.6589 12.8093 13.6447 12.8484 13.6307 12.8872C13.6167 12.9257 13.603 12.9638 13.5753 13.0401L14.418 13.3456ZM14.5299 13.0366L15.3654 13.3614C16.1307 11.3926 17.8062 10.1357 19.8928 9.15431L19.5112 8.34316L19.1297 7.532C16.8825 8.58895 14.7064 10.1086 13.6945 12.7119L14.5299 13.0366ZM19.5112 8.34316L19.9005 9.15062C19.9592 9.12233 20.018 9.09404 20.0777 9.06533C20.1373 9.03667 20.1977 9.00761 20.259 8.97805L19.8697 8.17059L19.4805 7.36312C19.42 7.39228 19.3603 7.42101 19.3006 7.44971C19.241 7.47836 19.1815 7.50699 19.122 7.53569L19.5112 8.34316ZM19.8697 8.17059L20.2544 8.98025C20.7986 8.72171 21.3472 8.4727 21.9007 8.23154L21.5426 7.40975L21.1846 6.58796C20.6144 6.83638 20.0481 7.09345 19.4851 7.36092L19.8697 8.17059ZM21.5426 7.40975L21.8909 8.23574C23.365 7.61428 24.2128 7.26113 24.96 6.75956C25.7089 6.25683 26.3429 5.61438 27.4479 4.50413L26.8126 3.87179L26.1772 3.23944C25.0245 4.39764 24.5295 4.88932 23.9608 5.27103C23.3904 5.65391 22.7321 5.93551 21.1944 6.58375L21.5426 7.40975ZM26.5304 15.5421L27.2627 15.0251C25.599 12.6685 22.7403 11.379 19.8164 11.9421L19.9859 12.8223L20.1555 13.7025C22.3378 13.2823 24.5106 14.2354 25.7981 16.0591L26.5304 15.5421ZM19.9859 12.8223L19.7516 11.9571C17.8323 12.477 16.1886 13.4688 15.0337 15.2212L15.7822 15.7145L16.5307 16.2078C17.3962 14.8945 18.6286 14.1187 20.2203 13.6875L19.9859 12.8223ZM15.7822 15.7145L14.987 15.3008C14.1249 16.9579 13.5845 18.7541 14.0842 20.8044L14.9551 20.5921L15.826 20.3798C15.4698 18.9181 15.8192 17.5858 16.5774 16.1282L15.7822 15.7145ZM14.9551 20.5921L14.0982 20.8553C14.6355 22.6045 15.5978 24.4871 17.479 25.5111L17.9075 24.7238L18.3361 23.9365C17.0626 23.2432 16.2953 21.9024 15.812 20.3289L14.9551 20.5921ZM17.9075 24.7238L17.5139 25.5292C19.3388 26.421 21.2476 26.8586 23.3854 26.1566L23.1058 25.305L22.8261 24.4533C21.2828 24.9601 19.8746 24.6874 18.3011 23.9184L17.9075 24.7238ZM23.1058 25.305L23.4262 26.1421C25.1284 25.4906 26.7818 24.4357 27.6778 22.5672L26.8696 22.1796L26.0613 21.792C25.4429 23.0815 24.2688 23.9 22.7853 24.4678L23.1058 25.305ZM26.8696 22.1796L27.6888 22.5434C28.4092 20.9213 28.9593 19.0323 28.1941 17.0166L27.3561 17.3347L26.518 17.6529C27.0259 18.9906 26.7143 20.3207 26.0503 21.8158L26.8696 22.1796ZM27.3561 17.3347L28.1804 16.9825C28.16 16.9347 28.1398 16.8877 28.1201 16.8419C28.1003 16.7958 28.081 16.751 28.062 16.7064L27.2377 17.0586L26.4134 17.4108C26.4332 17.4572 26.4531 17.5036 26.4728 17.5494C26.4926 17.5954 26.5121 17.6409 26.5318 17.6869L27.3561 17.3347ZM27.2377 17.0586L28.0707 16.7276C27.8539 16.1819 27.6138 15.6419 27.3124 15.1039L26.5304 15.5421L25.7484 15.9802C25.9981 16.426 26.2054 16.888 26.4046 17.3895L27.2377 17.0586ZM19.0699 16.016L19.4482 16.8286C20.3584 16.4049 21.2155 16.3431 21.9605 16.556C22.7066 16.7693 23.4155 17.2799 23.9877 18.1333L24.7322 17.634L25.4767 17.1348C24.7018 15.9792 23.6608 15.1775 22.4532 14.8323C21.2444 14.4867 19.9439 14.6203 18.6916 15.2033L19.0699 16.016ZM24.7322 17.634L23.894 17.9516C24.2731 18.9523 24.3407 20.0261 23.9955 20.9422L24.8343 21.2583L25.6731 21.5744C26.2073 20.1569 26.0651 18.6219 25.5705 17.3164L24.7322 17.634ZM24.8343 21.2583L24.0225 20.8783C23.8304 21.2886 23.5989 21.5387 23.2066 21.7504L23.6325 22.5392L24.0584 23.328C24.802 22.9265 25.2976 22.3832 25.6462 21.6383L24.8343 21.2583ZM23.6325 22.5392L23.4173 21.669C23.3094 21.6957 23.2271 21.6911 23.132 21.6651C23.0152 21.633 22.8756 21.5678 22.6513 21.4419L22.2124 22.2235L21.7735 23.0051C22.2646 23.2808 22.949 23.6317 23.8477 23.4094L23.6325 22.5392ZM22.2124 22.2235L22.8912 21.638C22.6147 21.3174 22.3772 20.9653 22.1052 20.5553L21.3582 21.0509L20.6113 21.5465C20.8779 21.9483 21.1731 22.391 21.5337 22.809L22.2124 22.2235ZM21.3582 21.0509L22.1009 20.5489C21.8875 20.2332 21.6468 19.939 21.3252 19.6996C20.9975 19.4556 20.6363 19.306 20.2294 19.2058L20.015 20.0762L19.8006 20.9466C20.0379 21.005 20.1641 21.0702 20.2548 21.1378C20.3517 21.2098 20.4606 21.3236 20.6156 21.553L21.3582 21.0509ZM20.015 20.0762L20.0833 19.1824C19.8259 19.1627 19.569 19.1498 19.3143 19.1422L19.2875 20.0382L19.2608 20.9342C19.4911 20.9411 19.7202 20.9527 19.9467 20.97L20.015 20.0762ZM19.2875 20.0382L19.3169 19.1423C18.7333 19.1232 18.4862 19.0769 18.1146 18.8478L17.6443 19.6109L17.1739 20.374C17.9258 20.8375 18.5321 20.9103 19.2582 20.9341L19.2875 20.0382ZM17.6443 19.6109L18.3544 19.0638C18.1055 18.7408 18.0323 18.4955 18.0555 18.2949L17.165 18.1921L16.2745 18.0892C16.1757 18.9448 16.5448 19.6525 16.9342 20.158L17.6443 19.6109ZM17.165 18.1921L18.0205 18.4598C18.2516 17.7214 18.7277 17.2144 19.4917 16.8069L19.0699 16.016L18.6481 15.225C17.5702 15.7999 16.7122 16.6379 16.3095 17.9243L17.165 18.1921Z" fill="white" mask="url(#path-4-outside-1_9231_1123)"/>
</svg>
