<svg width="57" height="57" viewBox="0 0 57 57" fill="none" xmlns="http://www.w3.org/2000/svg">
<g clip-path="url(#clip0_519_318)">
<path d="M12.046 2.84556e-05C10.4632 -0.00341564 8.8952 0.305813 7.43215 0.909961C5.96911 1.51411 4.6398 2.40128 3.52054 3.52054C2.40128 4.6398 1.51411 5.96911 0.909961 7.43215C0.305813 8.8952 -0.00341564 10.4632 2.84556e-05 12.046V44.954C-0.00341564 46.5369 0.305813 48.1049 0.909961 49.5679C1.51411 51.0309 2.40128 52.3603 3.52054 53.4795C4.6398 54.5988 5.96911 55.4859 7.43215 56.0901C8.8952 56.6942 10.4632 57.0035 12.046 57H44.954C46.5369 57.0035 48.1049 56.6942 49.5679 56.0901C51.0309 55.4859 52.3603 54.5988 53.4795 53.4795C54.5988 52.3603 55.4859 51.0309 56.0901 49.5679C56.6942 48.1049 57.0035 46.5369 57 44.954V12.046C57.0035 10.4632 56.6942 8.8952 56.0901 7.43215C55.4859 5.96911 54.5988 4.6398 53.4795 3.52054C52.3603 2.40128 51.0309 1.51411 49.5679 0.909961C48.1049 0.305813 46.5369 -0.00341564 44.954 2.84556e-05H12.046ZM28.4858 11.2077L40.375 23.1017V42.7833H33.2643V30.9035H23.7643V42.7833H16.625V23.0684L28.4858 11.2077Z" fill="black"/>
</g>
<defs>
<clipPath id="clip0_519_318">
<rect width="57" height="57" rx="28.5" fill="white"/>
</clipPath>
</defs>
</svg>
