<svg width="24" height="25" viewBox="0 0 24 25" fill="none" xmlns="http://www.w3.org/2000/svg">
<path d="M17 2.2998H7C4.23858 2.2998 2 4.53838 2 7.2998V17.2998C2 20.0612 4.23858 22.2998 7 22.2998H17C19.7614 22.2998 22 20.0612 22 17.2998V7.2998C22 4.53838 19.7614 2.2998 17 2.2998Z" stroke="white" stroke-width="2" stroke-linecap="round" stroke-linejoin="round"/>
<path d="M15.9997 11.6696C16.1231 12.5019 15.981 13.3518 15.5935 14.0986C15.206 14.8454 14.5929 15.451 13.8413 15.8293C13.0898 16.2076 12.2382 16.3392 11.4075 16.2056C10.5768 16.0719 9.80947 15.6797 9.21455 15.0848C8.61962 14.4899 8.22744 13.7225 8.09377 12.8918C7.96011 12.0612 8.09177 11.2095 8.47003 10.458C8.84829 9.70647 9.45389 9.09336 10.2007 8.70586C10.9475 8.31836 11.7975 8.17621 12.6297 8.29962C13.4786 8.4255 14.2646 8.82108 14.8714 9.42792C15.4782 10.0348 15.8738 10.8207 15.9997 11.6696Z" stroke="white" stroke-width="2" stroke-linecap="round" stroke-linejoin="round"/>
<path d="M17.5 6.7998H17.51" stroke="white" stroke-width="2" stroke-linecap="round" stroke-linejoin="round"/>
</svg>
