<svg width="24" height="25" viewBox="0 0 24 25" fill="none" xmlns="http://www.w3.org/2000/svg">
<path d="M16 8.2998C17.5913 8.2998 19.1174 8.93195 20.2426 10.0572C21.3679 11.1824 22 12.7085 22 14.2998V21.2998H18V14.2998C18 13.7694 17.7893 13.2607 17.4142 12.8856C17.0391 12.5105 16.5304 12.2998 16 12.2998C15.4696 12.2998 14.9609 12.5105 14.5858 12.8856C14.2107 13.2607 14 13.7694 14 14.2998V21.2998H10V14.2998C10 12.7085 10.6321 11.1824 11.7574 10.0572C12.8826 8.93195 14.4087 8.2998 16 8.2998Z" fill="white"/>
<path d="M6 9.2998H2V21.2998H6V9.2998Z" fill="white"/>
<path d="M4 6.2998C5.10457 6.2998 6 5.40437 6 4.2998C6 3.19524 5.10457 2.2998 4 2.2998C2.89543 2.2998 2 3.19524 2 4.2998C2 5.40437 2.89543 6.2998 4 6.2998Z" fill="white"/>
</svg>
