<svg width="46" height="46" viewBox="0 0 46 46" fill="none" xmlns="http://www.w3.org/2000/svg">
<circle cx="23.3348" cy="22.5262" r="21.7753" stroke="#007AFF" stroke-width="1.50175"/>
<path d="M24.0856 12.0137C21.4976 12.0164 19.0166 12.9497 17.1866 14.6087C15.3567 16.2677 14.3273 18.517 14.3242 20.8632C14.3211 22.7806 15.0119 24.6459 16.2907 26.173C16.2907 26.173 16.5569 26.4908 16.6004 26.5366L24.0856 34.5399L31.5743 26.5326C31.6133 26.49 31.8804 26.173 31.8804 26.173L31.8813 26.1706C33.1594 24.6441 33.8499 22.7797 33.8469 20.8632C33.8439 18.517 32.8144 16.2677 30.9845 14.6087C29.1546 12.9497 26.6735 12.0164 24.0856 12.0137ZM24.0856 24.0813C23.3835 24.0813 22.6973 23.8925 22.1135 23.5389C21.5298 23.1853 21.0748 22.6827 20.8062 22.0947C20.5375 21.5067 20.4672 20.8597 20.6042 20.2354C20.7412 19.6112 21.0792 19.0378 21.5756 18.5878C22.0721 18.1377 22.7045 17.8312 23.3931 17.7071C24.0816 17.5829 24.7953 17.6466 25.4439 17.8902C26.0925 18.1337 26.6469 18.5462 27.0369 19.0754C27.427 19.6046 27.6351 20.2268 27.6351 20.8632C27.634 21.7164 27.2596 22.5343 26.5942 23.1376C25.9288 23.7408 25.0266 24.0802 24.0856 24.0813Z" fill="#007AFF"/>
</svg>
