<svg width="87" height="64" viewBox="0 0 87 64" fill="none" xmlns="http://www.w3.org/2000/svg">
<path d="M86.644 52.9239C86.644 58.7095 67.3699 63.3994 43.5939 63.3994C19.8182 63.3994 0.543945 58.7095 0.543945 52.9239C0.543945 47.1384 19.8182 42.4484 43.5939 42.4484C67.3699 42.4484 86.644 47.1384 86.644 52.9239Z" fill="#ACDCD7"/>
<path d="M81.9691 51.4505C81.9691 55.7941 64.788 59.3152 43.594 59.3152C22.3999 59.3152 5.21881 55.7941 5.21881 51.4505C5.21881 47.107 22.3999 43.5859 43.594 43.5859C64.788 43.5859 81.9691 47.107 81.9691 51.4505Z" fill="#79BDBA"/>
<path d="M43.8633 0.621569V0.598389C43.8579 0.602292 43.8535 0.606563 43.848 0.610345C43.8437 0.606563 43.8339 0.621569 43.8339 0.621569C40.7495 3.05144 32.659 8.19691 35.3158 17.0623C37.3537 23.8605 42.0626 26.1263 43.5967 29.0097V29.0654C43.601 29.0567 43.6054 29.046 43.6098 29.0373C43.6152 29.046 43.6197 29.0567 43.6251 29.0654V29.0097C45.1571 26.1263 51.0291 22.8823 53.0658 16.0846C55.7239 7.2186 46.9478 3.05144 43.8633 0.621569Z" fill="#F6B8CD"/>
<path d="M38.223 48.5412C38.223 48.5412 35.4747 49.3193 31.8952 49.9237C28.6669 50.4703 24.7576 50.8691 21.6012 50.4249C14.9556 49.48 11.4752 46.3419 7.98706 43.5128C9.96392 40.7669 12.5905 38.4585 15.5586 36.7869C16.7587 36.1054 18.0162 35.5264 19.3055 35.07C20.2586 34.7295 21.238 34.4591 22.2236 34.2536C23.6174 33.9703 25.0427 33.8289 26.4626 33.8678C27.6877 33.8935 28.8749 34.0864 30.0673 34.3371C30.5209 34.4331 30.8973 34.4722 31.2476 34.4784C31.9016 34.4916 32.4729 34.4079 33.315 34.4079C33.9766 34.4079 39.3513 38.7672 41.4055 40.3104C41.8212 40.619 42.0998 40.8186 42.1769 40.844C42.6513 41.0049 38.223 48.5412 38.223 48.5412Z" fill="#F08FB9"/>
<path d="M40.1183 42.5708C40.1183 42.5708 30.8396 41.9842 22.7339 38.5709C20.5742 37.6612 18.4939 36.5463 16.6988 35.1964C8.15013 28.7607 6.87708 22.1685 7.67683 18.7158C8.46563 15.2532 9.25332 14.0013 9.25332 14.0013C9.25332 14.0013 12.6763 14.5878 16.7684 17.0921C18.6419 18.2268 20.6537 19.7722 22.5468 21.8556C28.5614 28.4476 40.1183 42.5708 40.1183 42.5708Z" fill="#F39FC3"/>
<path d="M80.9254 43.5129C77.4436 46.342 73.9556 49.48 67.311 50.4249C64.109 50.8755 60.1214 50.4575 56.8607 49.898C53.3605 49.3001 50.6893 48.5414 50.6893 48.5414C50.6893 48.5414 46.2612 41.0048 46.7344 40.844C46.741 40.844 46.7475 40.8382 46.7606 40.8313C47.4351 40.5038 54.8118 34.4144 55.5963 34.4079C56.7768 34.4013 57.7234 34.9734 58.9159 34.7872C60.4784 34.5364 61.8786 33.8809 63.5185 33.8036C64.5433 33.7584 65.5604 33.8226 66.5788 33.9898C72.2768 34.9287 77.6766 39.0117 80.9254 43.5129Z" fill="#F08FB9"/>
<path d="M50.6743 42.9058L44.4465 42.2779V41.7408L37.7465 42.4164C37.7465 42.4164 29.0499 47.2566 36.1635 52.9346C39.5678 55.6525 41.8342 56.7248 43.2246 57.1331C43.4564 57.3825 43.7013 57.6263 43.9743 57.8568C48.3699 56.7771 50.8754 54.5269 52.2573 53.4241C59.3697 47.7454 50.6743 42.9058 50.6743 42.9058Z" fill="#F39FC3"/>
<path d="M72.2159 35.1964C69.9082 36.9273 67.1479 38.2675 64.3364 39.2944C56.7345 42.0721 48.7963 42.5707 48.7963 42.5707C48.7963 42.5707 60.3434 28.4476 66.358 21.8555C68.2325 19.7916 70.2237 18.2657 72.0875 17.1212C76.2101 14.5982 79.6612 14.0015 79.6612 14.0015C79.6612 14.0015 80.45 15.2532 81.2388 18.7157C82.0277 22.1684 80.7656 28.7607 72.2159 35.1964Z" fill="#F39FC3"/>
<path d="M43.6249 24.3549C41.1813 16.3975 36.1274 5.42779 26.4778 3.08442C25.9239 2.94948 22.8372 13.4455 27.111 23.6496C30.3914 31.4822 39.546 32.7476 43.6249 32.9127V24.3549Z" fill="#F39FC3"/>
<path d="M43.6458 24.3549C46.0883 16.3975 51.1421 5.42792 60.7917 3.08454C61.3467 2.94961 64.4323 13.4456 60.1586 23.6497C56.8781 31.4824 47.5298 42.5725 43.452 42.7371L43.6458 24.3549Z" fill="#F39FC3"/>
<path d="M43.7577 44.0676C42.6228 44.4781 41.4401 44.7129 40.2368 44.8009C36.5985 45.0647 32.8209 43.9401 29.7646 41.8961C25.702 39.1864 22.7926 35.0203 20.8701 30.5504C17.4875 22.6767 16.8565 13.6884 19.3414 5.49207C26.1752 9.51196 29.7744 16.2703 32.1311 23.7139C32.8905 26.0902 33.5118 28.5453 34.084 31.0004C36.2145 35.6754 41.6176 39.3823 43.7577 44.0676Z" fill="#F6B8CD"/>
<path d="M68.0347 30.5503C66.1219 35.0202 63.2138 39.1864 59.15 41.8961C55.7379 44.1749 51.449 45.309 47.4254 44.6539C46.6562 44.5267 45.8969 44.3314 45.158 44.0675C47.2871 39.3822 52.2475 33.8073 54.378 29.1226C54.7032 27.7239 55.0578 26.3544 55.4528 25.0245C57.8976 16.7789 61.8026 10.0694 69.5732 5.49207C72.0581 13.6884 71.4271 22.6766 68.0347 30.5503Z" fill="#F6B8CD"/>
<path d="M43.6053 10.95C43.5965 11.1491 43.5824 10.95 43.5824 10.95C35.4212 16.3366 31.1334 25.8577 33.836 34.9741C34.899 38.5584 36.8542 42.4883 40.0019 44.4002C41.4652 45.2894 43.2016 45.737 44.8609 45.4263C48.99 44.6525 52.2083 38.8304 53.3518 34.9741C56.0545 25.8577 51.7666 16.3366 43.6053 10.95Z" fill="#F08FB9"/>
</svg>
