<svg width="34" height="34" viewBox="0 0 34 34" fill="none" xmlns="http://www.w3.org/2000/svg">
<path d="M17 15.7356L30.5788 7.0125C30.0328 6.60303 29.3699 6.37957 28.6875 6.375H5.3125C4.63009 6.37957 3.96717 6.60303 3.42125 7.0125L17 15.7356Z" fill="black"/>
<path d="M17.5738 17.8926L17.3931 17.9776H17.3081C17.2103 18.0213 17.1064 18.05 17 18.0626C16.9118 18.0737 16.8226 18.0737 16.7344 18.0626H16.6494L16.4688 17.9776L2.23125 8.77637C2.16323 9.033 2.12753 9.29713 2.125 9.56262V24.4376C2.125 25.283 2.46083 26.0937 3.0586 26.6915C3.65637 27.2893 4.46712 27.6251 5.3125 27.6251H28.6875C29.5329 27.6251 30.3436 27.2893 30.9414 26.6915C31.5392 26.0937 31.875 25.283 31.875 24.4376V9.56262C31.8725 9.29713 31.8368 9.033 31.7687 8.77637L17.5738 17.8926Z" fill="black"/>
</svg>
