<svg width="46" height="46" viewBox="0 0 46 46" fill="none" xmlns="http://www.w3.org/2000/svg">
<path d="M33.0939 18.4617L24.0834 24.0932L15.0729 18.4617V16.209L24.0834 21.8406L33.0939 16.209M33.0939 13.9564H15.0729C13.8227 13.9564 12.8203 14.9588 12.8203 16.209V29.7248C12.8203 30.3222 13.0576 30.8951 13.4801 31.3176C13.9025 31.74 14.4755 31.9774 15.0729 31.9774H33.0939C33.6913 31.9774 34.2643 31.74 34.6867 31.3176C35.1092 30.8951 35.3465 30.3222 35.3465 29.7248V16.209C35.3465 15.6116 35.1092 15.0386 34.6867 14.6162C34.2643 14.1937 33.6913 13.9564 33.0939 13.9564Z" fill="#007AFF"/>
<circle cx="23.3348" cy="22.967" r="21.7753" stroke="#007AFF" stroke-width="1.50175"/>
</svg>
