<svg width="205" height="61" viewBox="0 0 205 61" fill="none" xmlns="http://www.w3.org/2000/svg">
<path d="M197.407 59.9996H7.59295C6.59306 60.0096 5.60106 59.8226 4.6753 59.4492C3.74954 59.0759 2.90885 58.5239 2.20179 57.8255C1.49472 57.127 0.935933 56.2962 0.557966 55.3818C0.179999 54.4673 -0.00976513 53.4874 0.000386839 52.4997V7.50029C-0.00976513 6.5126 0.179999 5.5327 0.557966 4.61824C0.935933 3.70378 1.49472 2.87299 2.20179 2.17455C2.90885 1.47611 3.74954 0.924145 4.6753 0.550791C5.60106 0.177437 6.59306 -0.00964526 7.59295 0.000382817H197.407C198.407 -0.00964526 199.399 0.177437 200.325 0.550791C201.25 0.924145 202.091 1.47611 202.798 2.17455C203.505 2.87299 204.064 3.70378 204.442 4.61824C204.82 5.5327 205.01 6.5126 205 7.50029V52.4997C205.01 53.4874 204.82 54.4673 204.442 55.3818C204.064 56.2962 203.505 57.127 202.798 57.8255C202.091 58.5239 201.25 59.0759 200.325 59.4492C199.399 59.8226 198.407 60.0096 197.407 59.9996Z" fill="black"/>
<path d="M71.9785 15.489C72.0132 16.0406 71.9371 16.5934 71.7546 17.1151C71.572 17.6367 71.287 18.1165 70.916 18.5261C70.2575 19.1893 69.4166 19.6418 68.5003 19.8255C67.5839 20.0091 66.6334 19.9157 65.7702 19.5574C64.907 19.1991 64.1702 18.5921 63.6533 17.8135C63.1364 17.0349 62.8625 16.12 62.8674 15.1854C62.8619 14.5657 62.9797 13.9509 63.2144 13.3773C63.449 12.8037 63.7957 12.2829 64.2339 11.8447C64.6721 11.4065 65.1936 11.0599 65.7672 10.8252C66.3408 10.5906 66.9552 10.4724 67.5749 10.4778C68.2097 10.4846 68.8342 10.6407 69.3974 10.9335C69.9393 11.1602 70.4109 11.527 70.764 11.9964L70.0047 12.7556C69.7172 12.3936 69.3457 12.1075 68.9222 11.9222C68.4987 11.7369 68.0359 11.6582 67.5749 11.6927C67.1158 11.6735 66.6583 11.7592 66.2373 11.9433C65.8163 12.1275 65.4426 12.4054 65.1451 12.7556C64.7802 13.0742 64.494 13.4732 64.3095 13.9212C64.1251 14.3692 64.0478 14.8542 64.0826 15.3374C64.0478 15.8206 64.1251 16.3052 64.3095 16.7532C64.494 17.2012 64.7802 17.6002 65.1451 17.9188C65.8065 18.5453 66.666 18.9212 67.5749 18.9817C68.0565 19.0019 68.5365 18.9172 68.9822 18.7337C69.4279 18.5502 69.829 18.2723 70.1567 17.9188C70.3996 17.682 70.592 17.3986 70.7224 17.0854C70.8529 16.7722 70.9189 16.4359 70.916 16.0967H67.5749V14.8818H71.9785V15.489Z" fill="white" stroke="white" stroke-width="0.303704" stroke-miterlimit="10"/>
<path d="M78.9672 11.6925H74.8669V14.5779H78.6632V15.6408H74.8669V18.5259H78.9672V19.7407H73.6523V10.6296H78.9672V11.6925Z" fill="white" stroke="white" stroke-width="0.303704" stroke-miterlimit="10"/>
<path d="M83.9721 19.7407H82.7576V11.6925H80.1758V10.6296H86.5539V11.6925H83.9721V19.7407Z" fill="white" stroke="white" stroke-width="0.303704" stroke-miterlimit="10"/>
<path d="M90.9609 19.7407V10.6296H92.1762V19.7407H90.9609Z" fill="white" stroke="white" stroke-width="0.303704" stroke-miterlimit="10"/>
<path d="M97.3354 19.7407H96.1201V11.6925H93.5391V10.6296H99.7651V11.6925H97.1834V19.7407H97.3354Z" fill="white" stroke="white" stroke-width="0.303704" stroke-miterlimit="10"/>
<path d="M111.764 18.5259C111.105 19.1891 110.264 19.6416 109.348 19.8253C108.431 20.009 107.481 19.9156 106.618 19.5573C105.755 19.199 105.018 18.5919 104.501 17.8133C103.984 17.0347 103.71 16.1198 103.715 15.1852C103.715 13.9367 104.211 12.7392 105.094 11.8564C105.977 10.9736 107.174 10.4777 108.422 10.4777C109.671 10.4777 110.868 10.9736 111.751 11.8564C112.634 12.7392 113.13 13.9367 113.13 15.1852C113.147 15.8065 113.035 16.4247 112.799 16.9999C112.564 17.5752 112.211 18.0948 111.764 18.5259ZM105.993 17.7666C106.637 18.4186 107.506 18.7989 108.422 18.8295C108.882 18.8487 109.339 18.7631 109.76 18.5789C110.181 18.3947 110.555 18.1169 110.852 17.7666C111.533 17.0801 111.916 16.1523 111.916 15.1852C111.95 14.702 111.872 14.2174 111.688 13.7694C111.503 13.3214 111.217 12.9224 110.852 12.6038C110.208 11.9518 109.338 11.5715 108.422 11.5409C107.963 11.5217 107.506 11.6073 107.085 11.7915C106.664 11.9757 106.29 12.2536 105.993 12.6038C105.312 13.2903 104.93 14.2182 104.93 15.1852C104.895 15.6684 104.973 16.1531 105.158 16.601C105.342 17.049 105.628 17.448 105.993 17.7666Z" fill="white" stroke="white" stroke-width="0.303704" stroke-miterlimit="10"/>
<path d="M114.801 19.7407V10.6296H116.167L120.571 17.7666V10.6296H121.786V19.7407H120.571L115.863 12.3002V19.7407H114.801Z" fill="white" stroke="white" stroke-width="0.303704" stroke-miterlimit="10"/>
<path d="M103.414 33.1037C102.551 33.0844 101.693 33.2399 100.892 33.5612C100.091 33.8825 99.3642 34.3631 98.754 34.9733C98.1437 35.5835 97.6635 36.3108 97.3422 37.1117C97.0209 37.9126 96.8647 38.7707 96.884 39.6334C96.8775 40.4927 97.0423 41.3444 97.3682 42.1396C97.694 42.9347 98.1745 43.6574 98.7821 44.265C99.3898 44.8726 100.112 45.3531 100.907 45.6789C101.702 46.0048 102.555 46.1692 103.414 46.1628C104.277 46.182 105.134 46.0266 105.935 45.7053C106.736 45.384 107.464 44.9037 108.074 44.2935C108.684 43.6833 109.165 42.9557 109.486 42.1548C109.807 41.3538 109.963 40.4962 109.943 39.6334C109.975 38.7674 109.829 37.9039 109.512 37.0972C109.195 36.2906 108.715 35.558 108.102 34.9451C107.49 34.3323 106.757 33.8525 105.95 33.5356C105.143 33.2188 104.28 33.0718 103.414 33.1037ZM103.414 43.4297C102.42 43.3517 101.493 42.9018 100.816 42.17C100.139 41.4381 99.7638 40.4781 99.7638 39.4814C99.7638 38.4847 100.139 37.5247 100.816 36.7929C101.493 36.0611 102.42 35.6111 103.414 35.5331C103.918 35.5363 104.415 35.6432 104.876 35.8468C105.337 36.0503 105.751 36.3463 106.093 36.7165C106.435 37.0867 106.697 37.5232 106.863 37.9989C107.029 38.4745 107.095 38.979 107.058 39.4814C107.082 39.9809 107.007 40.4803 106.836 40.9503C106.665 41.4202 106.403 41.8514 106.063 42.2189C105.724 42.5864 105.315 42.8826 104.86 43.0905C104.405 43.2983 103.914 43.4138 103.414 43.4297ZM89.2914 33.1037C88.4286 33.0844 87.5713 33.2399 86.7704 33.5612C85.9695 33.8825 85.2415 34.3631 84.6313 34.9733C84.0211 35.5835 83.5409 36.3108 83.2195 37.1117C82.8982 37.9126 82.7428 38.7707 82.7621 39.6334C82.7556 40.4927 82.9204 41.3444 83.2462 42.1396C83.5721 42.9347 84.0526 43.6574 84.6602 44.265C85.2678 44.8726 85.9901 45.3531 86.7852 45.6789C87.5804 46.0048 88.4321 46.1692 89.2914 46.1628C90.1542 46.182 91.0122 46.0266 91.8131 45.7053C92.614 45.384 93.3413 44.9037 93.9515 44.2935C94.5617 43.6833 95.0419 42.9557 95.3632 42.1548C95.6846 41.3538 95.8408 40.4962 95.8215 39.6334C95.8534 38.7674 95.706 37.9039 95.3892 37.0972C95.0723 36.2906 94.5925 35.558 93.9797 34.9451C93.3669 34.3323 92.6346 33.8525 91.8279 33.5356C91.0213 33.2188 90.1575 33.0718 89.2914 33.1037ZM89.2914 43.4297C88.2978 43.3517 87.3707 42.9018 86.694 42.17C86.0174 41.4381 85.6412 40.4781 85.6412 39.4814C85.6412 38.4847 86.0174 37.5247 86.694 36.7929C87.3707 36.0611 88.2978 35.6111 89.2914 35.5331C89.7952 35.5363 90.2935 35.6432 90.7543 35.8468C91.2151 36.0503 91.6293 36.3463 91.971 36.7165C92.3128 37.0867 92.5746 37.5232 92.7407 37.9989C92.9068 38.4745 92.9735 38.979 92.9364 39.4814C92.9605 39.9809 92.8848 40.4803 92.714 40.9503C92.5431 41.4202 92.2798 41.8514 91.9406 42.2189C91.6015 42.5864 91.1928 42.8826 90.738 43.0905C90.2832 43.2983 89.7912 43.4138 89.2914 43.4297ZM72.4364 35.0779V37.8109H78.9658C78.8718 39.114 78.3361 40.3461 77.4472 41.3036C76.7932 41.9604 76.0103 42.4749 75.148 42.8147C74.2856 43.1544 73.3627 43.312 72.4364 43.2777C71.4837 43.2872 70.5383 43.1039 69.6582 42.739C68.778 42.3742 67.981 41.835 67.3144 41.1542C66.6478 40.4734 66.1251 39.6651 65.7788 38.7774C65.4325 37.8897 65.2696 36.9411 65.2991 35.9888C65.2824 35.0397 65.4547 34.0969 65.8055 33.2149C66.1564 32.333 66.6785 31.5297 67.3426 30.8515C68.0066 30.1733 68.7994 29.6338 69.6737 29.2644C70.5481 28.8951 71.4873 28.7031 72.4364 28.6998C74.2931 28.7174 76.0774 29.4205 77.4472 30.6739L79.421 28.6998C77.5889 26.9292 75.1355 25.9481 72.5877 25.9668C69.9209 25.9843 67.3665 27.0411 65.4667 28.9126C63.5668 30.7841 62.4717 33.3225 62.4141 35.9888C62.4717 38.655 63.5668 41.1938 65.4667 43.0653C67.3665 44.9368 69.9209 45.9936 72.5877 46.0111C73.8937 46.0836 75.1995 45.8621 76.4085 45.3627C77.6174 44.8634 78.6989 44.0987 79.573 43.1257C81.1759 41.3932 82.0466 39.1079 82.0028 36.748C82.0349 36.1868 81.9836 35.6241 81.8508 35.0779H72.4364ZM141.377 37.2036C141.004 36.0374 140.277 35.0162 139.298 34.2815C138.318 33.5469 137.134 33.1353 135.91 33.1037C135.075 33.1076 134.249 33.2825 133.483 33.6179C132.718 33.9534 132.029 34.4423 131.46 35.0541C130.891 35.666 130.454 36.3879 130.174 37.1755C129.895 37.963 129.78 38.7997 129.836 39.6334C129.813 40.4845 129.96 41.3316 130.271 42.1244C130.581 42.9172 131.047 43.6392 131.642 44.2483C132.237 44.8573 132.949 45.3408 133.734 45.6697C134.519 45.9986 135.363 46.1661 136.214 46.1628C137.272 46.1731 138.315 45.9139 139.245 45.4091C140.175 44.9042 140.961 44.1706 141.529 43.2777L139.403 41.7592C139.076 42.3142 138.609 42.7742 138.05 43.0938C137.491 43.4134 136.858 43.5814 136.214 43.5813C135.545 43.6156 134.881 43.445 134.311 43.0924C133.741 42.7396 133.293 42.2214 133.025 41.6072L141.68 37.9629L141.377 37.2036ZM132.569 39.3294C132.538 38.3902 132.866 37.4746 133.487 36.7691C134.108 36.0637 134.975 35.6215 135.91 35.5331C136.401 35.517 136.888 35.6362 137.316 35.8772C137.744 36.1181 138.099 36.4718 138.34 36.9L132.569 39.3294ZM125.433 45.5555H128.318V26.574H125.433V45.5555ZM120.877 34.4702C119.959 33.5232 118.703 32.9774 117.384 32.9517C115.705 33.0299 114.122 33.7523 112.962 34.9685C111.802 36.1847 111.157 37.801 111.159 39.4814C111.147 40.3095 111.298 41.1319 111.605 41.9012C111.912 42.6705 112.367 43.3717 112.946 43.9643C113.524 44.557 114.214 45.0294 114.976 45.3546C115.737 45.6797 116.556 45.8512 117.384 45.8591C118.018 45.8642 118.645 45.731 119.222 45.4687C119.799 45.2065 120.312 44.8214 120.725 44.3406H120.877V45.2519C120.962 46.0902 120.738 46.9309 120.246 47.6153C119.754 48.2997 119.029 48.7806 118.208 48.9673C117.386 49.1541 116.525 49.0335 115.785 48.6289C115.046 48.2242 114.481 47.5633 114.196 46.7704L111.766 47.8333C112.25 48.962 113.055 49.9236 114.081 50.5986C115.107 51.2735 116.308 51.6321 117.536 51.6296C120.877 51.6296 123.61 49.6556 123.61 44.9482V33.4073H120.877V34.4702ZM117.536 43.4297C116.542 43.3517 115.615 42.9018 114.938 42.17C114.261 41.4381 113.886 40.4781 113.886 39.4814C113.886 38.4847 114.261 37.5247 114.938 36.7929C115.615 36.0611 116.542 35.6111 117.536 35.5331C118.028 35.5532 118.511 35.6725 118.956 35.8838C119.401 36.0952 119.797 36.3945 120.124 36.7632C120.45 37.132 120.699 37.5629 120.854 38.03C121.01 38.4971 121.069 38.9907 121.029 39.4814C121.069 39.9721 121.01 40.4657 120.854 40.9328C120.699 41.4 120.45 41.8309 120.124 42.1996C119.797 42.5684 119.401 42.8677 118.956 43.079C118.511 43.2903 118.028 43.4097 117.536 43.4297ZM154.588 26.574H147.754V45.5555H150.64V38.4185H154.588C156.158 38.4185 157.665 37.7945 158.775 36.6839C159.886 35.5732 160.511 34.0668 160.511 32.4961C160.511 30.9254 159.886 29.4193 158.775 28.3087C157.665 27.198 156.158 26.574 154.588 26.574ZM154.74 35.6851H150.64V29.1554H154.74C155.6 29.1545 156.428 29.4856 157.05 30.0797C157.672 30.6737 158.042 31.485 158.081 32.3445C158.047 33.2197 157.684 34.05 157.065 34.6693C156.446 35.2887 155.615 35.6514 154.74 35.6851ZM172.203 32.9517C171.174 32.8692 170.144 33.1009 169.249 33.6161C168.355 34.1312 167.637 34.9057 167.192 35.8371L169.773 36.9C170.025 36.4471 170.403 36.0767 170.861 35.8342C171.319 35.5916 171.838 35.487 172.355 35.5331C173.074 35.4793 173.787 35.7 174.351 36.1508C174.914 36.6015 175.286 37.2491 175.392 37.9629V38.1149C174.509 37.6239 173.517 37.3628 172.507 37.3556C169.773 37.3556 167.04 38.8739 167.04 41.6072C167.065 42.1971 167.208 42.776 167.459 43.3103C167.71 43.8446 168.065 44.3238 168.503 44.7195C168.941 45.1152 169.453 45.4199 170.01 45.6156C170.567 45.8112 171.158 45.8939 171.747 45.8591C172.459 45.8828 173.164 45.7288 173.801 45.4105C174.437 45.0923 174.984 44.6201 175.392 44.037H175.544V45.5555H178.277V38.2665C178.166 36.7602 177.466 35.3584 176.33 34.3638C175.193 33.3692 173.71 32.8618 172.203 32.9517ZM171.899 43.4297C170.988 43.4297 169.622 42.974 169.622 41.7592C169.622 40.2407 171.292 39.785 172.659 39.785C173.554 39.788 174.437 39.996 175.24 40.3927C175.124 41.2088 174.727 41.9588 174.117 42.5133C173.507 43.0677 172.723 43.3919 171.899 43.4297ZM187.844 33.4073L184.655 41.6072H184.503L181.162 33.4073H178.125L183.136 44.9482L180.251 51.3259H183.136L190.881 33.4073H187.844ZM162.332 45.5555H165.217V26.574H162.332V45.5555Z" fill="white"/>
<path d="M15.7989 11.3889C15.3302 11.9929 15.1128 12.7543 15.1916 13.5147V47.0741C15.1586 47.8545 15.431 48.6169 15.9509 49.1999L16.1029 49.3519L34.9324 30.5224V30.2184L15.7989 11.3889Z" fill="url(#paint0_linear_8260_549)"/>
<path d="M41.0073 36.9001L34.7812 30.674V30.2184L41.0073 23.9927L41.1593 24.1443L48.5999 28.3962C50.7258 29.611 50.7258 31.5853 48.5999 32.8002L41.0073 36.9001Z" fill="url(#paint1_linear_8260_549)"/>
<path d="M41.1564 36.7481L34.7784 30.3704L15.7969 49.3519C16.5561 50.1112 17.6192 50.1113 18.9859 49.5039L41.1564 36.7481Z" fill="url(#paint2_linear_8260_549)"/>
<path d="M41.1564 23.9925L18.9859 11.3887C18.5232 11.0307 17.948 10.8493 17.3636 10.8771C16.7791 10.9049 16.2235 11.1403 15.7969 11.5407L34.7784 30.3702L41.1564 23.9925Z" fill="url(#paint3_linear_8260_549)"/>
<path opacity="0.2" d="M41.0044 36.5965L18.9859 49.0483C18.5511 49.3844 18.017 49.5666 17.4674 49.5666C16.9178 49.5666 16.3837 49.3844 15.9489 49.0483L15.7969 49.1999L15.9489 49.3519C16.3837 49.6881 16.9178 49.8706 17.4674 49.8706C18.017 49.8706 18.5511 49.6881 18.9859 49.3519L41.0044 36.5965Z" fill="black"/>
<path opacity="0.12" d="M15.7989 49.0483C15.3302 48.4443 15.1128 47.6825 15.1916 46.9221V47.0741C15.1586 47.8545 15.431 48.6169 15.9509 49.1999V49.0483H15.7989Z" fill="black"/>
<path opacity="0.12" d="M48.6004 32.3446L41.0078 36.5965L41.1598 36.7481L48.6004 32.4962C49.0234 32.3141 49.3886 32.0197 49.6562 31.645C49.9239 31.2703 50.0839 30.8296 50.1189 30.3704C50.1189 31.1297 49.5115 31.7372 48.6004 32.3446Z" fill="black"/>
<path opacity="0.25" d="M18.9916 11.541L48.6027 28.3963C49.5138 29.0037 50.1212 29.6112 50.1212 30.3705C50.0862 29.9113 49.9262 29.4706 49.6586 29.0959C49.3909 28.7212 49.0257 28.4268 48.6027 28.2447L18.9916 11.389C16.8657 10.1742 15.1953 11.0851 15.1953 13.5148V13.6668C15.1953 11.389 16.8657 10.3262 18.9916 11.541Z" fill="white"/>
<defs>
<linearGradient id="paint0_linear_8260_549" x1="33.1148" y1="263.159" x2="2.91444" y2="254.978" gradientUnits="userSpaceOnUse">
<stop stop-color="#00A0FF"/>
<stop offset="0.007" stop-color="#00A1FF"/>
<stop offset="0.26" stop-color="#00BEFF"/>
<stop offset="0.512" stop-color="#00D2FF"/>
<stop offset="0.76" stop-color="#00DFFF"/>
<stop offset="1" stop-color="#00E3FF"/>
</linearGradient>
<linearGradient id="paint1_linear_8260_549" x1="51.3812" y1="246" x2="14.6363" y2="246" gradientUnits="userSpaceOnUse">
<stop stop-color="#FFE000"/>
<stop offset="0.409" stop-color="#FFBD00"/>
<stop offset="0.775" stop-color="#FFA500"/>
<stop offset="1" stop-color="#FF9C00"/>
</linearGradient>
<linearGradient id="paint2_linear_8260_549" x1="37.7075" y1="242.507" x2="13.4564" y2="201.816" gradientUnits="userSpaceOnUse">
<stop stop-color="#FF3A44"/>
<stop offset="1" stop-color="#C31162"/>
</linearGradient>
<linearGradient id="paint3_linear_8260_549" x1="11.08" y1="276.291" x2="21.8433" y2="258.084" gradientUnits="userSpaceOnUse">
<stop stop-color="#32A071"/>
<stop offset="0.068" stop-color="#2DA771"/>
<stop offset="0.476" stop-color="#15CF74"/>
<stop offset="0.801" stop-color="#06E775"/>
<stop offset="1" stop-color="#00F076"/>
</linearGradient>
</defs>
</svg>
