<svg width="29" height="29" viewBox="0 0 29 29" fill="none" xmlns="http://www.w3.org/2000/svg">
<path d="M13.5489 2.94902C13.8483 2.02771 15.1517 2.02771 15.4511 2.94902L17.4187 9.00475C17.5526 9.41677 17.9365 9.69573 18.3697 9.69573H24.7371C25.7058 9.69573 26.1086 10.9353 25.3249 11.5048L20.1736 15.2474C19.8231 15.502 19.6764 15.9534 19.8103 16.3654L21.7779 22.4212C22.0773 23.3425 21.0228 24.1086 20.2391 23.5392L15.0878 19.7965C14.7373 19.5419 14.2627 19.5419 13.9122 19.7965L8.7609 23.5392C7.97719 24.1086 6.92271 23.3425 7.22206 22.4212L9.18969 16.3654C9.32356 15.9534 9.1769 15.502 8.82642 15.2474L3.67511 11.5048C2.89139 10.9353 3.29417 9.69573 4.26289 9.69573H10.6303C11.0635 9.69573 11.4474 9.41677 11.5813 9.00475L13.5489 2.94902Z" fill="white"/>
</svg>
