<svg width="24" height="25" viewBox="0 0 24 25" fill="none" xmlns="http://www.w3.org/2000/svg">
<path d="M23 3.29961C22.0424 3.97508 20.9821 4.49172 19.86 4.82961C19.2577 4.13712 18.4573 3.6463 17.567 3.42353C16.6767 3.20077 15.7395 3.2568 14.8821 3.58406C14.0247 3.91132 13.2884 4.49401 12.773 5.25332C12.2575 6.01264 11.9877 6.91194 12 7.82961V8.82961C10.2426 8.87517 8.50127 8.48542 6.93101 7.69505C5.36074 6.90469 4.01032 5.73824 3 4.29961C3 4.29961 -1 13.2996 8 17.2996C5.94053 18.6976 3.48716 19.3985 1 19.2996C10 24.2996 21 19.2996 21 7.79961C20.9991 7.52106 20.9723 7.2432 20.92 6.96961C21.9406 5.9631 22.6608 4.69232 23 3.29961Z" fill="white"/>
</svg>
