<svg width="464" height="370" viewBox="0 0 464 370" fill="none" xmlns="http://www.w3.org/2000/svg">
<path d="M348.94 293.558C283.936 279.372 178.885 279.372 114.303 293.558C49.7214 307.745 50.0636 330.746 115.068 344.932C180.072 359.119 285.124 359.118 349.706 344.932C414.287 330.745 413.945 307.744 348.94 293.558ZM331.572 340.974C276.938 352.976 188.075 352.976 133.084 340.975C78.0988 328.975 77.8089 309.518 132.442 297.517C187.076 285.516 275.939 285.516 330.925 297.516C385.916 309.516 386.205 328.973 331.572 340.974Z" fill="white"/>
<path d="M330.922 297.516C275.937 285.516 187.073 285.516 132.439 297.517C77.8058 309.518 78.0957 328.975 133.081 340.975C188.072 352.976 276.935 352.976 331.569 340.975C386.202 328.973 385.913 309.517 330.922 297.516Z" fill="#D0E6FF"/>
<path d="M463.812 319.24L463.023 319.162C453.946 318.28 448.977 317.387 444.598 316.596C440.332 315.829 436.309 315.104 429.351 314.551C421.949 313.962 413.961 314.198 407.452 315.199C406.723 315.311 405.999 315.435 405.282 315.572C404.873 314.679 404.34 313.809 403.687 312.97C404.564 313.064 405.47 313.148 406.403 313.221C413.886 313.807 421.798 313.573 428.135 312.579C434.414 311.595 437.392 310.671 440.559 309.691C443.753 308.703 447.371 307.584 455.045 306.22L455.712 306.102L454.859 306.074C445.057 305.735 439.203 305.152 434.04 304.637C429.018 304.137 424.282 303.663 416.914 303.524C409.066 303.374 401.646 304.054 396.543 305.39C395.989 305.535 395.446 305.693 394.915 305.866C393.446 305.017 391.911 304.211 390.314 303.45C391.26 303.491 392.224 303.52 393.199 303.538C401.101 303.681 408.473 303.007 413.414 301.687C418.296 300.38 420.092 299.317 421.984 298.191C423.897 297.055 426.067 295.766 431.859 294.015L432.364 293.862L431.512 293.883C421.642 294.111 415.308 293.88 409.719 293.674C404.28 293.473 399.15 293.286 391.874 293.567C384.12 293.868 377.756 294.946 374.42 296.527C374.059 296.696 373.719 296.882 373.404 297.083C370.993 296.35 368.548 295.657 366.073 295.005C367.048 294.991 368.027 294.965 369.005 294.926C376.797 294.616 383.111 293.547 386.313 291.991C389.494 290.451 389.962 289.32 390.462 288.125C390.967 286.917 391.534 285.549 395.052 283.528L395.362 283.353L394.56 283.42C385.307 284.2 378.92 284.333 373.286 284.452C367.799 284.568 362.624 284.676 355.937 285.361C348.808 286.091 343.944 287.493 342.584 289.211C342.432 289.401 342.324 289.602 342.261 289.809C339.108 289.241 335.937 288.708 332.752 288.211C333.67 288.142 334.578 288.062 335.469 287.969C342.624 287.229 347.451 285.837 348.709 284.151C349.957 282.482 349.073 281.364 348.143 280.18C347.198 278.985 346.132 277.629 347.141 275.475L347.23 275.287L346.53 275.398C338.531 276.677 332.521 277.168 327.221 277.602C322.067 278.024 317.199 278.423 311.552 279.464C305.535 280.573 302.502 282.205 303.224 283.942C303.306 284.141 303.436 284.337 303.609 284.53C299.937 284.165 296.257 283.832 292.569 283.531C293.348 283.417 294.121 283.288 294.886 283.146C300.914 282.024 303.931 280.404 303.151 278.704C302.377 277.019 300.204 275.987 297.902 274.896C295.588 273.793 292.949 272.544 291.381 270.404L291.243 270.218L290.706 270.365C284.487 272.053 279.268 272.87 274.669 273.589C270.193 274.29 265.964 274.951 261.751 276.277C257.254 277.689 256.25 279.44 259.003 281.079C259.342 281.279 259.706 281.465 260.09 281.634C256.129 281.49 252.166 281.376 248.201 281.293C248.818 281.139 249.423 280.968 250.015 280.782C254.512 279.356 255.505 277.619 252.737 276.019C250.006 274.435 246.688 273.56 243.174 272.635C239.634 271.7 235.617 270.643 231.57 268.663L231.217 268.492L230.869 268.663C226.871 270.647 222.8 271.734 219.212 272.69C215.721 273.621 212.423 274.499 209.917 276.021C207.245 277.64 208.355 279.389 212.943 280.819C213.501 280.991 214.071 281.149 214.651 281.294C210.685 281.377 206.717 281.491 202.78 281.634C203.186 281.454 203.567 281.256 203.92 281.04C206.576 279.405 205.477 277.671 200.916 276.28C199.358 275.807 197.754 275.391 196.113 275.035C193.315 274.425 190.551 273.995 187.685 273.55C184.497 273.055 181.011 272.514 177.043 271.648C175.267 271.26 173.515 270.834 171.79 270.369L171.249 270.222L171.117 270.408C169.602 272.553 166.957 273.833 164.623 274.961C162.353 276.059 160.206 277.095 159.594 278.708C158.996 280.265 161.514 281.75 166.548 282.849C167.066 282.962 167.61 283.071 168.18 283.175C168.881 283.303 169.608 283.422 170.355 283.532C166.678 283.834 163.007 284.167 159.346 284.531C159.523 284.332 159.655 284.12 159.736 283.9C160.299 282.344 157.843 280.881 152.948 279.813C152.376 279.689 151.798 279.575 151.215 279.47C145.23 278.395 140.365 277.999 135.22 277.58C130.021 277.159 124.131 276.678 116.116 275.404L115.418 275.295L115.507 275.481C116.585 277.642 115.544 279.029 114.624 280.252C113.73 281.441 112.884 282.565 114.202 284.159C115.085 285.232 117.385 286.186 120.788 286.928C122.765 287.359 125.114 287.72 127.772 287.991C128.605 288.075 129.452 288.15 130.308 288.214C127.139 288.711 123.986 289.244 120.85 289.811C120.777 289.588 120.651 289.373 120.478 289.171C119.571 288.093 117.282 287.144 113.931 286.412C111.969 285.984 109.643 285.631 107.016 285.369C99.9692 284.669 94.807 284.562 89.3483 284.449C83.8305 284.334 77.5788 284.206 68.3358 283.428L67.5314 283.361L67.8465 283.536C71.4357 285.564 72.0658 286.963 72.6232 288.198C73.1748 289.399 73.6879 290.532 76.8316 292C78.0453 292.565 79.6597 293.065 81.5988 293.488C85.0209 294.236 89.4535 294.741 94.4648 294.935C95.3748 294.97 96.2868 294.994 97.1944 295.007C94.7415 295.659 92.3192 296.351 89.9304 297.084C89.5875 296.868 89.2165 296.67 88.8209 296.49C87.5853 295.921 85.9623 295.419 84.0266 294.996C80.6197 294.253 76.2471 293.756 71.3338 293.577C63.7104 293.3 58.6015 293.488 53.1909 293.689C47.7369 293.892 41.5499 294.122 31.711 293.892L30.8533 293.872L31.3626 294.026C37.223 295.782 39.4914 297.099 41.4928 298.261C43.4347 299.391 45.2733 300.458 50.0477 301.697C50.5122 301.818 50.9967 301.933 51.4998 302.043C56.4988 303.134 63.3183 303.675 70.5276 303.536C71.4342 303.518 72.33 303.491 73.2105 303.453C71.6371 304.213 70.1265 305.019 68.6842 305.868C68.1094 305.682 67.521 305.512 66.9208 305.359C66.4575 305.24 65.9889 305.129 65.5153 305.026C60.4706 303.925 53.684 303.384 46.6027 303.535C38.9103 303.699 34.2045 304.171 29.2298 304.672C24.2009 305.177 18.5047 305.748 8.73328 306.085L7.88704 306.114L8.55194 306.233C10.8256 306.635 12.7546 307.017 14.429 307.383C18.4528 308.261 21.0063 309.041 23.3356 309.754C25.3832 310.379 27.356 310.982 30.0832 311.577C31.6415 311.917 33.4459 312.255 35.651 312.592C42.1202 313.581 50.1205 313.806 57.5958 313.209C58.4635 313.14 59.3079 313.06 60.1246 312.973C59.497 313.813 58.9895 314.683 58.6077 315.575C57.8342 315.427 57.0533 315.294 56.266 315.176C49.7373 314.187 41.8022 313.963 34.5044 314.564C27.277 315.157 23.2923 315.881 19.081 316.647C14.8222 317.419 9.99837 318.296 0.973775 319.175L0.1875 319.253L0.976157 319.328C10.0588 320.211 15.0221 321.106 19.4018 321.895C23.6626 322.662 27.6958 323.387 34.6438 323.941C42.0564 324.53 50.0386 324.293 56.5535 323.293C57.281 323.181 58.0028 323.057 58.7182 322.92C59.1274 323.813 59.6611 324.683 60.3135 325.522C59.4354 325.428 58.5268 325.343 57.5911 325.27C50.1143 324.683 42.202 324.917 35.8647 325.911C29.592 326.896 26.6026 327.82 23.4408 328.799C20.2471 329.787 16.6241 330.908 8.95507 332.27L8.28827 332.388L9.1407 332.416C18.9487 332.756 24.7973 333.339 29.96 333.853C34.977 334.355 39.7185 334.827 47.0915 334.968C54.9338 335.116 62.3597 334.437 67.4624 333.101C68.0152 332.957 68.5574 332.798 69.0873 332.626C70.555 333.474 72.0895 334.279 73.6855 335.04C72.725 334.998 71.7633 334.969 70.8008 334.952C62.8989 334.809 55.5326 335.485 50.5912 336.804C45.7036 338.11 43.9131 339.174 42.0159 340.299C40.1078 341.436 37.9322 342.724 32.1403 344.475L31.6358 344.628L32.493 344.608C42.3572 344.379 48.6964 344.612 54.286 344.817C59.7191 345.017 64.8551 345.206 72.1253 344.923C79.8801 344.625 86.2431 343.544 89.5843 341.965C89.9459 341.795 90.2855 341.609 90.6 341.409C93.0115 342.141 95.4558 342.834 97.9302 343.486C96.955 343.501 95.9764 343.527 94.9998 343.566C87.2022 343.874 80.8929 344.945 77.6807 346.501C74.5061 348.042 74.0372 349.17 73.5432 350.367C73.0325 351.573 72.4656 352.941 68.9421 354.964L68.6375 355.14L69.44 355.073C78.6921 354.291 85.0799 354.158 90.7185 354.04C96.1954 353.924 101.381 353.815 108.068 353.13C115.191 352.402 120.056 350.997 121.411 349.28C121.569 349.081 121.676 348.88 121.735 348.681C124.889 349.249 128.061 349.782 131.249 350.279C130.33 350.348 129.422 350.429 128.531 350.521C121.37 351.263 116.543 352.655 115.291 354.339C114.048 356.01 114.928 357.127 115.862 358.312C116.802 359.508 117.873 360.863 116.865 363.017L116.77 363.204L117.47 363.093C125.474 361.815 131.479 361.323 136.779 360.889C141.933 360.467 146.801 360.068 152.453 359.028C158.466 357.918 161.504 356.287 160.777 354.549C160.691 354.344 160.561 354.147 160.392 353.961C164.067 354.326 167.75 354.659 171.441 354.961C170.661 355.075 169.887 355.204 169.12 355.346C163.081 356.468 160.07 358.087 160.85 359.787C161.625 361.472 163.797 362.504 166.094 363.596C168.418 364.699 171.047 365.948 172.621 368.087L172.764 368.274L173.301 368.127C179.515 366.438 184.728 365.622 189.333 364.902C193.809 364.2 198.037 363.539 202.256 362.215C206.748 360.801 207.752 359.05 204.999 357.412C204.66 357.211 204.297 357.026 203.913 356.857C207.859 357 211.827 357.114 215.802 357.198C215.184 357.352 214.579 357.522 213.987 357.709C209.49 359.135 208.497 360.872 211.26 362.473C214.001 364.057 217.314 364.931 220.822 365.856C224.368 366.79 228.39 367.849 232.437 369.829L232.79 370L233.133 369.828C237.131 367.843 241.202 366.759 244.795 365.802C248.286 364.871 251.584 363.993 254.09 362.471C256.757 360.85 255.647 359.102 251.058 357.675C250.499 357.501 249.927 357.342 249.345 357.197C253.309 357.114 257.271 357 261.23 356.856C260.802 357.048 260.42 357.247 260.088 357.451C257.432 359.087 258.531 360.821 263.086 362.211C264.643 362.684 266.247 363.1 267.888 363.456C270.688 364.067 273.453 364.496 276.316 364.94C279.505 365.435 282.993 365.977 286.963 366.844C288.626 367.207 290.373 367.626 292.217 368.123L292.758 368.27L292.89 368.084C294.4 365.938 297.045 364.658 299.379 363.529C301.654 362.433 303.796 361.396 304.414 359.784C305.011 358.228 302.498 356.744 297.465 355.646C296.921 355.528 296.371 355.418 295.817 355.317C295.097 355.185 294.371 355.066 293.64 354.959C297.32 354.658 300.993 354.324 304.657 353.96C304.479 354.158 304.348 354.371 304.267 354.591C303.703 356.145 306.152 357.608 311.047 358.676C311.598 358.796 312.181 358.912 312.793 359.022C318.773 360.096 323.637 360.492 328.782 360.911C333.981 361.335 339.871 361.813 347.887 363.086L348.589 363.198L348.495 363.01C347.417 360.849 348.463 359.463 349.373 358.24C350.271 357.05 351.112 355.927 349.805 354.333C348.924 353.26 346.623 352.307 343.223 351.566C341.244 351.134 338.891 350.773 336.23 350.503C335.395 350.417 334.545 350.343 333.687 350.278C336.905 349.773 340.065 349.239 343.153 348.68C343.221 348.893 343.344 349.108 343.524 349.322C344.434 350.399 346.72 351.348 350.07 352.079C352.032 352.508 354.36 352.861 356.991 353.122C364.038 353.823 369.194 353.929 374.653 354.042C380.171 354.157 386.423 354.285 395.671 355.063L396.475 355.131L396.16 354.956C392.571 352.928 391.936 351.528 391.373 350.294C390.831 349.093 390.313 347.959 387.169 346.491C385.956 345.926 384.341 345.426 382.402 345.003C378.98 344.256 374.549 343.75 369.541 343.557C368.628 343.522 367.714 343.498 366.802 343.484C369.257 342.832 371.681 342.14 374.072 341.407C374.416 341.623 374.789 341.822 375.185 342.003C376.42 342.571 378.044 343.073 379.98 343.496C383.386 344.239 387.758 344.736 392.667 344.914C400.296 345.193 405.4 345.003 410.81 344.802C416.27 344.6 422.451 344.372 432.29 344.599L433.148 344.619L432.644 344.466C426.773 342.71 424.51 341.392 422.508 340.23C420.567 339.1 418.728 338.033 413.953 336.794C413.476 336.67 412.993 336.555 412.505 336.448C407.508 335.358 400.679 334.817 393.473 334.955C392.566 334.973 391.671 335 390.791 335.038C392.364 334.278 393.875 333.472 395.317 332.623C395.892 332.808 396.48 332.978 397.081 333.132C397.544 333.251 398.014 333.362 398.488 333.466C403.535 334.567 410.318 335.107 417.399 334.956C425.091 334.792 429.797 334.32 434.777 333.82C439.806 333.315 445.503 332.744 455.268 332.406L456.114 332.377L455.444 332.259C453.182 331.859 451.262 331.478 449.593 331.114C445.56 330.234 443.002 329.452 440.665 328.737C438.625 328.113 436.656 327.512 433.934 326.918C432.371 326.577 430.56 326.238 428.345 325.9C421.881 324.91 413.886 324.686 406.406 325.282C405.538 325.352 404.694 325.431 403.876 325.519C404.504 324.679 405.012 323.808 405.393 322.917C406.167 323.064 406.948 323.197 407.735 323.315C414.264 324.305 422.199 324.528 429.502 323.928C436.724 323.334 440.709 322.611 444.925 321.846C449.179 321.072 453.997 320.196 463.027 319.317L463.812 319.24ZM56.1099 323.156C49.8102 324.125 42.0759 324.353 34.9061 323.784C28.0771 323.24 24.2813 322.557 19.8911 321.766C15.5985 320.992 10.7485 320.119 2.05943 319.251C10.6904 318.388 15.3957 317.532 19.5689 316.774C23.7311 316.019 27.662 315.304 34.7766 314.72C41.8374 314.14 49.5136 314.356 55.8367 315.312C56.7415 315.448 57.6375 315.605 58.523 315.78C58.4773 315.896 58.4335 316.011 58.3926 316.126C53.6306 315.46 47.9592 315.323 42.7241 315.753C37.3492 316.195 34.3916 316.733 31.2565 317.301C28.1104 317.873 24.5341 318.521 17.8521 319.175L17.0658 319.25L17.8545 319.325C24.5774 319.981 28.2541 320.642 31.5035 321.226C34.6662 321.797 37.6562 322.336 42.8336 322.748C48.1048 323.167 53.7644 323.026 58.4859 322.366C58.5306 322.481 58.5782 322.598 58.6277 322.713C57.7976 322.879 56.9578 323.026 56.1099 323.156ZM51.7925 317.123C45.1039 317.673 44.6137 318.441 36.343 319.249C44.6375 320.054 45.4042 320.862 51.8501 321.374C54.059 321.55 56.2232 321.558 58.1803 321.448C58.2474 321.689 58.3255 321.934 58.4135 322.175C53.8248 322.85 48.2604 323.001 43.0901 322.59C38.0421 322.19 35.2364 321.684 31.9813 321.098C28.8291 320.53 25.2713 319.888 18.9316 319.25C25.2204 318.615 28.6834 317.987 31.7486 317.43C34.9646 316.846 37.7394 316.341 42.9959 315.909C48.1238 315.488 53.7059 315.636 58.326 316.317C58.2457 316.558 58.1754 316.799 58.1151 317.042C56.0093 316.925 53.8881 316.952 51.7925 317.123ZM397.132 305.498C402.063 304.204 409.257 303.545 416.851 303.689C424.085 303.827 428.556 304.274 433.724 304.79C438.784 305.294 444.497 305.863 453.907 306.21C446.599 307.533 443.067 308.627 439.938 309.596C436.808 310.563 433.856 311.477 427.691 312.445C421.564 313.405 413.899 313.631 406.666 313.065C405.579 312.98 404.531 312.879 403.527 312.765C403.436 312.651 403.343 312.537 403.248 312.424C408.624 312.798 414.254 312.608 418.797 311.897C423.462 311.164 425.683 310.477 428.035 309.75C430.396 309.018 433.074 308.188 438.759 307.181L439.42 307.061L438.574 307.032C431.312 306.782 426.981 306.349 423.157 305.97C419.431 305.596 415.905 305.246 410.419 305.141C404.853 305.034 399.573 305.488 395.799 306.39C395.617 306.28 395.434 306.171 395.248 306.061C395.858 305.853 396.487 305.665 397.132 305.498ZM403.339 306.979C401.016 306.935 398.932 307.048 397.181 307.263C396.828 307.031 396.465 306.8 396.091 306.569C399.721 305.662 404.896 305.202 410.361 305.306C415.707 305.409 419.017 305.738 422.846 306.12C426.561 306.491 430.757 306.91 437.62 307.167C432.301 308.136 429.709 308.94 427.406 309.652C424.997 310.4 422.914 311.044 418.352 311.76C413.895 312.458 408.348 312.629 403.085 312.235C402.878 311.994 402.661 311.757 402.437 311.521C404.455 311.516 406.524 311.384 408.426 311.086C414.23 310.176 413.798 309.403 420.827 308.156C411.866 307.845 410.173 307.111 403.339 306.979ZM403.715 331.506C410.831 331.355 412.211 330.639 421.163 330.331C420.238 330.17 419.321 329.99 418.414 329.794C416.684 329.416 415.549 329.079 414.518 328.763C413.481 328.447 412.544 328.152 411.218 327.862C410.508 327.707 409.687 327.554 408.68 327.4C406.757 327.106 404.682 326.975 402.666 326.97C402.886 326.732 403.096 326.493 403.295 326.254C408.526 325.864 414.077 326.033 418.586 326.723C420.21 326.971 421.522 327.215 422.655 327.462C424.598 327.887 426.012 328.319 427.562 328.793C429.306 329.327 431.222 329.912 434.245 330.572C435.335 330.81 436.569 331.057 437.991 331.316C431.163 331.572 427.076 331.982 423.453 332.347C419.652 332.727 416.372 333.056 410.783 333.175C405.73 333.283 400.894 332.898 397.294 332.112C397.017 332.052 396.742 331.988 396.47 331.92C396.831 331.693 397.186 331.463 397.536 331.229C399.296 331.444 401.389 331.556 403.715 331.506ZM375.113 296.597C378.347 295.067 384.505 294.022 392.007 293.732C399.153 293.455 403.992 293.634 409.598 293.838C415.069 294.039 421.257 294.266 430.75 294.067C425.259 295.761 423.142 297.02 421.266 298.133C419.395 299.245 417.626 300.295 412.819 301.581C408.039 302.858 400.91 303.51 393.256 303.372C392.123 303.351 391.007 303.314 389.917 303.262C389.692 303.156 389.468 303.052 389.238 302.946C394.857 303.001 400.055 302.499 403.588 301.555C407.224 300.583 408.555 299.793 409.96 298.956C411.377 298.114 412.985 297.161 417.275 295.864L417.774 295.712L416.928 295.732C409.624 295.9 404.93 295.728 400.786 295.577C396.75 295.428 392.931 295.289 387.515 295.498C382.014 295.712 377.45 296.45 374.877 297.538C374.572 297.442 374.265 297.346 373.955 297.251C374.274 297.03 374.659 296.811 375.113 296.597ZM382.855 297.677C380.56 297.766 378.68 297.994 377.245 298.301C376.624 298.095 375.999 297.893 375.372 297.694C377.804 296.61 382.256 295.872 387.652 295.662C392.938 295.458 396.515 295.589 400.664 295.741C404.689 295.89 409.237 296.056 416.164 295.916C412.181 297.155 410.621 298.079 409.242 298.898C407.799 299.758 406.548 300.499 402.993 301.448C399.531 302.374 394.398 302.855 388.863 302.774C388.374 302.552 387.88 302.333 387.383 302.118C389.315 301.998 391.147 301.754 392.622 301.36C397.15 300.15 395.813 299.429 401.122 297.822C392.108 298.033 389.608 297.417 382.855 297.677ZM343.34 289.24C344.652 287.577 349.361 286.218 356.263 285.512C362.832 284.839 367.71 284.737 373.36 284.618C378.88 284.503 385.122 284.37 394.046 283.642C390.753 285.59 390.196 286.925 389.702 288.109C389.212 289.29 388.749 290.406 385.623 291.921C382.517 293.426 376.413 294.461 368.863 294.76C367.729 294.805 366.591 294.833 365.462 294.844C365.121 294.755 364.784 294.667 364.439 294.579C369.94 294.315 374.384 293.534 376.684 292.418C379.04 291.273 379.394 290.435 379.764 289.546C380.139 288.651 380.555 287.638 383.164 286.141L383.468 285.965L382.672 286.033C375.821 286.61 371.094 286.71 366.916 286.798C362.841 286.884 358.992 286.964 354.017 287.474C348.952 287.993 345.417 288.967 344.222 290.167C343.812 290.091 343.408 290.016 342.996 289.941C343.046 289.697 343.162 289.46 343.34 289.24ZM352.09 289.845C349.97 290.062 348.421 290.391 347.399 290.771C346.562 290.608 345.724 290.448 344.884 290.291C345.943 289.103 349.372 288.134 354.343 287.626C359.194 287.129 362.806 287.053 366.988 286.966C371.047 286.88 375.635 286.784 382.151 286.255C379.773 287.68 379.367 288.66 379.003 289.531C378.623 290.441 378.295 291.231 375.982 292.351C373.735 293.444 369.324 294.201 363.869 294.434C363.139 294.249 362.408 294.066 361.675 293.887C363.412 293.662 364.904 293.32 365.868 292.852C368.802 291.426 366.662 290.804 369.897 288.952C361.442 289.664 358.297 289.211 352.09 289.845ZM303.984 283.927C303.285 282.244 306.227 280.665 312.046 279.593C317.589 278.569 322.178 278.194 327.488 277.759C332.686 277.333 338.551 276.852 346.297 275.641C345.422 277.712 346.461 279.036 347.39 280.208C348.308 281.378 349.182 282.482 347.961 284.124C346.739 285.754 342.074 287.101 335.139 287.819C334.106 287.926 333.05 288.017 331.982 288.091C331.545 288.024 331.116 287.958 330.677 287.891C335.666 287.324 339.016 286.318 339.919 285.113C340.845 283.87 340.19 283.04 339.498 282.159C338.794 281.274 338.008 280.271 338.756 278.676L338.845 278.489L338.151 278.598C332.223 279.545 327.774 279.909 323.848 280.231C320.019 280.544 316.399 280.842 312.2 281.615C307.932 282.402 305.676 283.54 305.925 284.765C305.441 284.714 304.957 284.665 304.473 284.617C304.253 284.403 304.088 284.17 303.984 283.927ZM329.268 282.144C321.957 283.311 318.384 283.052 313.146 284.018C311.37 284.345 310.266 284.747 309.724 285.169C308.72 285.059 307.715 284.951 306.71 284.846C306.346 283.641 308.51 282.515 312.692 281.744C316.789 280.988 320.188 280.711 324.12 280.387C327.932 280.075 332.247 279.722 337.911 278.843C337.297 280.354 338.062 281.326 338.743 282.187C339.452 283.091 340.073 283.871 339.164 285.085C338.285 286.268 334.935 287.247 329.961 287.784C329.044 287.646 328.115 287.509 327.188 287.376C328.588 287.061 329.615 286.648 329.991 286.143C331.143 284.598 328.348 284.118 329.268 282.144ZM259.724 281.022C257.058 279.436 258.025 277.74 262.373 276.373C266.521 275.071 270.503 274.448 275.113 273.726C279.626 273.021 284.721 272.224 290.763 270.613C292.368 272.665 294.937 273.884 297.212 274.965C299.482 276.044 301.633 277.064 302.391 278.719C303.149 280.365 300.233 281.932 294.388 283.019C293.493 283.184 292.588 283.331 291.675 283.458C291.178 283.418 290.675 283.379 290.177 283.34C294.318 282.508 296.362 281.348 295.801 280.131C295.227 278.878 293.614 278.112 291.904 277.301C290.182 276.483 288.233 275.558 287.071 273.975L286.934 273.787L286.391 273.935C281.794 275.187 277.926 275.79 274.521 276.322C271.196 276.844 268.054 277.335 264.915 278.321C261.718 279.326 260.895 280.557 262.599 281.729C262.078 281.708 261.548 281.688 261.026 281.668C260.562 281.475 260.127 281.259 259.724 281.022ZM287.445 281.69C286.72 280.131 283.454 279.825 282.012 277.865C276.335 279.408 272.582 279.359 268.674 280.589C267.338 281.008 266.748 281.462 266.729 281.904C265.636 281.854 264.542 281.807 263.448 281.763C261.657 280.616 262.411 279.402 265.541 278.418C268.606 277.454 271.554 276.993 274.964 276.46C278.284 275.941 282.028 275.356 286.459 274.183C287.651 275.679 289.536 276.575 291.209 277.371C292.963 278.203 294.478 278.922 295.041 280.147C295.588 281.34 293.518 282.477 289.353 283.276C288.301 283.195 287.248 283.117 286.194 283.041C287.172 282.656 287.676 282.198 287.445 281.69ZM213.567 280.721C209.125 279.338 208.054 277.645 210.635 276.076C213.093 274.583 216.198 273.755 219.802 272.795C223.319 271.858 227.294 270.798 231.224 268.9C235.193 270.792 239.118 271.825 242.594 272.741C246.058 273.655 249.339 274.52 252.026 276.078C254.701 277.625 253.74 279.305 249.387 280.687C248.695 280.905 247.985 281.101 247.258 281.274C246.733 281.263 246.207 281.253 245.681 281.244C248.707 280.203 249.321 278.963 247.339 277.816C245.299 276.636 242.836 275.988 240.227 275.299C237.601 274.608 234.629 273.823 231.631 272.359L231.278 272.186L230.935 272.358C227.97 273.829 224.957 274.63 222.298 275.34C219.704 276.031 217.255 276.685 215.389 277.817C213.489 278.968 214.154 280.207 217.183 281.244C216.651 281.253 216.128 281.263 215.596 281.274C214.905 281.11 214.228 280.925 213.567 280.721ZM241.108 279.796C238.574 278.329 235.062 278.22 231.352 276.405C227.696 278.22 224.015 278.384 221.696 279.796C220.9 280.278 220.87 280.752 221.378 281.18C220.27 281.194 219.16 281.21 218.054 281.229C214.956 280.222 214.249 279.003 216.108 277.873C217.93 276.769 220.223 276.156 222.893 275.446C225.471 274.757 228.398 273.979 231.289 272.595C234.205 273.973 237.085 274.733 239.64 275.406C242.315 276.112 244.632 276.722 246.623 277.874C248.569 278.999 247.907 280.219 244.809 281.229C243.704 281.211 242.599 281.194 241.495 281.18C241.993 280.751 241.941 280.278 241.108 279.796ZM168.669 283.046C168.137 282.949 167.609 282.844 167.087 282.73C162.213 281.666 159.77 280.23 160.348 278.722C160.956 277.138 162.98 276.161 165.319 275.031C167.605 273.925 170.186 272.675 171.735 270.618C173.301 271.031 174.89 271.414 176.498 271.765C180.509 272.64 184.028 273.187 187.245 273.687C190.08 274.127 192.812 274.551 195.575 275.154C197.189 275.504 198.766 275.912 200.297 276.378C204.706 277.721 205.767 279.4 203.196 280.984C202.811 281.221 202.356 281.45 201.84 281.669C201.324 281.688 200.8 281.708 200.285 281.729C201.975 280.553 201.092 279.32 197.824 278.324C196.663 277.971 195.467 277.661 194.242 277.395C192.166 276.942 190.118 276.624 187.99 276.293C185.627 275.927 183.041 275.526 180.1 274.884C178.786 274.597 177.491 274.282 176.216 273.938L175.675 273.792L175.542 273.977C174.423 275.566 172.463 276.513 170.734 277.35C169.048 278.166 167.453 278.936 166.996 280.135C166.548 281.296 168.426 282.402 172.181 283.221C172.366 283.262 172.556 283.301 172.75 283.341C172.248 283.38 171.743 283.42 171.242 283.46C170.377 283.339 169.519 283.201 168.669 283.046ZM194.159 280.591C193.449 280.375 192.717 280.185 191.968 280.023C190.611 279.727 189.272 279.524 187.842 279.302C186.411 279.08 184.894 278.839 183.179 278.465C182.351 278.284 181.533 278.084 180.729 277.867C179.351 279.828 175.992 280.197 175.421 281.691C175.226 282.199 175.749 282.656 176.736 283.041C175.678 283.117 174.625 283.196 173.572 283.277C173.287 283.223 173.004 283.165 172.723 283.103C169.129 282.319 167.328 281.26 167.752 280.149C168.209 278.978 169.697 278.256 171.426 277.419C173.113 276.605 175.013 275.688 176.166 274.186C177.356 274.499 178.491 274.768 179.578 275.006C182.551 275.655 185.164 276.06 187.551 276.431C189.725 276.769 191.712 277.078 193.718 277.515C194.912 277.775 196.078 278.077 197.211 278.421C200.413 279.398 201.211 280.613 199.426 281.764C198.339 281.809 197.252 281.855 196.166 281.904C196.136 281.461 195.526 281.008 194.159 280.591ZM128.093 287.837C125.515 287.575 123.238 287.227 121.321 286.808C118.031 286.09 115.805 285.167 114.951 284.129C113.666 282.563 114.459 281.506 115.379 280.278C116.278 279.08 117.299 277.726 116.362 275.649C124.112 276.855 129.862 277.324 134.958 277.737C140.044 278.15 144.843 278.541 150.731 279.598C151.292 279.698 151.848 279.808 152.398 279.928C157.141 280.963 159.52 282.379 158.975 283.887C158.878 284.145 158.712 284.392 158.485 284.618C158.002 284.667 157.526 284.715 157.045 284.765C157.252 283.664 155.423 282.636 151.938 281.876C151.511 281.783 151.078 281.697 150.642 281.619C146.193 280.82 142.581 280.526 138.753 280.215C134.903 279.902 130.541 279.548 124.607 278.604L123.909 278.494L123.998 278.68C124.804 280.28 124.032 281.307 123.35 282.213C122.689 283.097 122.06 283.932 123.032 285.119C123.688 285.919 125.402 286.629 127.936 287.182C129.22 287.462 130.715 287.702 132.387 287.892C131.95 287.959 131.516 288.025 131.081 288.093C130.082 288.023 129.086 287.938 128.093 287.837ZM150.596 284.181C150.328 284.123 150.057 284.069 149.784 284.02C144.253 283.025 140.957 283.315 133.606 282.147C134.59 284.122 131.783 284.667 133.002 286.145C133.415 286.648 134.461 287.06 135.867 287.376C134.944 287.509 134.015 287.646 133.101 287.784C131.354 287.595 129.802 287.351 128.481 287.063C126.055 286.534 124.413 285.854 123.781 285.089C122.831 283.93 123.418 283.148 124.1 282.24C124.767 281.359 125.507 280.365 124.847 278.847C130.517 279.724 134.744 280.067 138.491 280.372C142.416 280.692 145.811 280.967 150.158 281.749C150.577 281.823 150.991 281.905 151.401 281.995C154.825 282.742 156.576 283.76 156.26 284.847C155.26 284.952 154.259 285.059 153.266 285.169C152.801 284.813 151.934 284.473 150.596 284.181ZM94.5924 294.77C89.7414 294.583 85.4521 294.094 82.1371 293.37C80.2608 292.961 78.6969 292.476 77.5212 291.929C74.4371 290.489 73.9468 289.419 73.389 288.182C72.8426 286.973 72.2182 285.606 68.8565 283.651C77.7645 284.378 83.8705 284.504 89.275 284.617C94.669 284.728 99.7717 284.834 106.7 285.522C109.243 285.775 111.494 286.117 113.394 286.531C116.635 287.238 118.848 288.157 119.723 289.2C119.934 289.448 120.064 289.697 120.119 289.945C119.713 290.019 119.312 290.093 118.908 290.169C118.156 289.425 116.509 288.77 114.162 288.257C112.7 287.938 110.967 287.675 109.01 287.481C103.767 286.96 99.9316 286.881 95.8755 286.796C91.7871 286.711 87.1589 286.616 80.3132 286.04L79.5088 285.973L79.8187 286.149C82.4831 287.651 82.9514 288.687 83.3641 289.601C83.771 290.492 84.1504 291.335 86.4959 292.426C87.3997 292.849 88.6044 293.222 90.0513 293.538C92.4153 294.054 95.4262 294.415 98.8274 294.579C98.4809 294.669 98.1425 294.757 97.8003 294.847C96.7301 294.837 95.6605 294.811 94.5924 294.77ZM114.16 290.323C113.298 290.135 112.253 289.973 111.014 289.85C104.496 289.202 101.661 289.668 93.1845 288.955C96.469 290.809 94.4139 291.495 97.3296 292.856C97.9012 293.122 98.6394 293.348 99.4928 293.534C100.129 293.673 100.83 293.79 101.574 293.886C100.843 294.066 100.115 294.249 99.3881 294.435C95.9688 294.287 92.9446 293.933 90.5896 293.419C89.2045 293.116 88.0513 292.759 87.1851 292.355C84.899 291.292 84.5421 290.501 84.1294 289.585C83.7225 288.696 83.2656 287.692 80.8339 286.262C87.345 286.789 91.8328 286.881 95.8022 286.964C99.9716 287.05 103.569 287.124 108.694 287.633C110.566 287.819 112.224 288.071 113.623 288.376C115.959 288.886 117.572 289.545 118.248 290.292C117.415 290.449 116.584 290.609 115.754 290.772C115.318 290.611 114.788 290.46 114.16 290.323ZM70.4557 303.37C63.4739 303.504 56.8657 302.98 52.0291 301.925C51.5569 301.822 51.0899 301.711 50.6288 301.591C45.9411 300.373 44.2115 299.367 42.2096 298.203C40.2463 297.064 38.0322 295.778 32.4744 294.078C41.935 294.276 47.9768 294.053 53.3227 293.855C58.6687 293.656 63.7081 293.468 71.2072 293.742C75.9634 293.916 80.1923 294.396 83.4902 295.116C85.3626 295.524 86.9347 296.01 88.1322 296.561C88.6239 296.787 89.0403 297.019 89.3835 297.253C89.0798 297.347 88.7766 297.443 88.4773 297.538C87.6029 297.171 86.5054 296.844 85.2236 296.565C82.6816 296.01 79.4179 295.64 75.7516 295.506C70.0764 295.299 66.282 295.44 62.2669 295.588C58.2246 295.739 53.644 295.909 46.3566 295.74L45.5042 295.719L46.0135 295.872C50.3518 297.172 52.0324 298.148 53.5121 299.008C54.959 299.848 56.3241 300.64 59.87 301.563C60.216 301.653 60.5767 301.738 60.9508 301.82C64.4791 302.59 69.2211 302.992 74.2743 302.947C74.0458 303.053 73.825 303.158 73.6018 303.265C72.5737 303.314 71.5228 303.349 70.4557 303.37ZM80.4917 297.683C73.4352 297.425 71.2491 298.038 62.2302 297.828C67.5871 299.435 66.4124 300.214 70.835 301.365C71.0506 301.421 71.2739 301.474 71.5028 301.523C72.8688 301.821 74.4561 302.014 76.111 302.117C75.6179 302.333 75.1289 302.553 74.6441 302.775C69.6594 302.845 64.9565 302.458 61.4877 301.701C61.1399 301.625 60.796 301.544 60.4563 301.456C56.9918 300.556 55.7082 299.812 54.2289 298.95C52.7877 298.113 51.1609 297.167 47.1253 295.924C54.0295 296.064 58.4649 295.899 62.3992 295.753C66.5219 295.601 70.0787 295.468 75.6303 295.67C79.1347 295.798 82.2532 296.153 84.6853 296.684C86.0033 296.971 87.1194 297.311 87.9861 297.694C87.3658 297.893 86.7485 298.095 86.1341 298.3C84.6877 297.993 82.7977 297.767 80.4917 297.683ZM60.2793 312.768C59.3004 312.879 58.3167 312.974 57.3293 313.052C50.091 313.631 42.35 313.412 36.0912 312.456C33.8975 312.121 32.1246 311.791 30.5949 311.457C27.9643 310.883 26.0528 310.298 23.9601 309.658C21.6045 308.939 19.0292 308.151 14.9659 307.265C13.2259 306.887 11.4682 306.54 9.69519 306.222C19.0511 305.878 24.6235 305.319 29.5501 304.825C34.4658 304.33 39.1126 303.863 46.6755 303.702C53.5264 303.556 60.0898 304.078 64.9698 305.143C65.4424 305.246 65.9003 305.355 66.3401 305.468C67.03 305.644 67.7034 305.843 68.3572 306.063C68.1763 306.172 67.9955 306.282 67.8194 306.391C67.6284 306.345 67.4362 306.301 67.243 306.259C63.4863 305.439 58.4235 305.037 53.1457 305.149C47.4261 305.271 43.9264 305.622 40.2277 305.994C36.502 306.367 32.286 306.791 25.0533 307.042L24.2071 307.071L24.8777 307.189C26.3382 307.445 27.785 307.728 29.216 308.038C32.1998 308.689 34.0922 309.268 35.8199 309.796C37.3363 310.26 38.7999 310.706 40.8213 311.148C41.9845 311.401 43.3324 311.654 44.9806 311.906C49.5779 312.609 55.2042 312.793 60.5501 312.425C60.4578 312.539 60.3675 312.653 60.2793 312.768ZM60.6615 331.511C62.9841 331.555 65.0693 331.442 66.8194 331.228C67.1725 331.46 67.5357 331.69 67.9093 331.921C64.2835 332.83 59.1037 333.289 53.644 333.185C48.2933 333.084 44.9882 332.753 41.1597 332.372C37.4386 332 33.2483 331.582 26.3803 331.323C31.6986 330.354 34.2969 329.551 36.5938 328.838C39.0093 328.092 41.0921 327.448 45.6536 326.732C50.0995 326.033 55.6516 325.861 60.9147 326.255C61.1208 326.494 61.3373 326.732 61.5644 326.97C59.5463 326.975 57.4769 327.107 55.5745 327.405C49.7697 328.315 50.2076 329.088 43.1782 330.337C52.1343 330.646 53.8277 331.383 60.6615 331.511ZM60.2855 306.985C53.1752 307.137 51.7892 307.851 42.8431 308.161C43.7583 308.321 44.6649 308.499 45.5618 308.693C47.3014 309.073 48.4423 309.412 49.477 309.729C50.5108 310.044 51.4422 310.338 52.7639 310.626C53.4779 310.782 54.3065 310.937 55.3265 311.092C57.2465 311.386 59.3198 311.516 61.3349 311.521C61.1161 311.757 60.9058 311.996 60.7043 312.238C55.4759 312.628 49.9277 312.458 45.4204 311.769C43.7946 311.521 42.4809 311.276 41.3477 311.029C39.4034 310.604 37.9908 310.172 36.4439 309.699C34.6895 309.164 32.7705 308.577 29.7429 307.916C28.512 307.649 27.2691 307.403 26.0157 307.176C32.8438 306.92 36.9251 306.509 40.5485 306.147C44.3495 305.764 47.6288 305.435 53.2185 305.316C58.2712 305.208 63.1069 305.593 66.7071 306.379C66.9893 306.44 67.2644 306.504 67.5314 306.571C67.1698 306.798 66.8142 307.029 66.4648 307.263C64.7042 307.047 62.6119 306.935 60.2855 306.985ZM66.8736 332.994C61.9375 334.287 54.7487 334.947 47.1491 334.802C39.916 334.663 35.4501 334.218 30.2765 333.701C25.2161 333.197 19.5027 332.628 10.0988 332.282C17.4019 330.96 20.9335 329.864 24.0681 328.896C27.1918 327.928 30.1389 327.015 36.3144 326.047C42.4367 325.086 50.101 324.859 57.3402 325.427C58.4245 325.512 59.4716 325.613 60.4744 325.726C60.5644 325.839 60.6581 325.954 60.7529 326.067C55.3769 325.693 49.7469 325.882 45.2091 326.595C40.5395 327.327 38.3173 328.014 35.9665 328.741C33.6048 329.473 30.9261 330.303 25.247 331.311L24.5802 331.429L25.4269 331.459C32.6886 331.709 37.0198 332.141 40.8432 332.524C44.5747 332.896 48.101 333.246 53.5759 333.351C59.1475 333.457 64.4277 333.003 68.2025 332.101C68.3839 332.211 68.5695 332.322 68.7556 332.431C68.1455 332.639 67.5172 332.827 66.8736 332.994ZM88.8933 341.895C85.6591 343.425 79.495 344.468 71.9935 344.759C64.8475 345.035 60.0085 344.859 54.4079 344.654C48.932 344.452 42.7379 344.225 33.2507 344.424C38.7418 342.729 40.8584 341.473 42.7346 340.357C44.6051 339.245 46.3747 338.196 51.1866 336.911C55.9614 335.635 63.0908 334.981 70.7441 335.119C71.8774 335.139 72.994 335.176 74.0839 335.229C74.3086 335.335 74.5332 335.439 74.7626 335.545C69.1397 335.491 63.9456 335.992 60.4135 336.936C56.7772 337.907 55.4517 338.699 54.0409 339.534C52.6245 340.376 51.021 341.33 46.7264 342.627L46.2272 342.779L47.0786 342.76C54.3827 342.591 59.0713 342.762 63.2145 342.913C67.2554 343.063 71.0754 343.203 76.4808 342.994C81.9914 342.78 86.5506 342.041 89.1236 340.953C89.432 341.05 89.7357 341.144 90.0489 341.24C89.73 341.462 89.3454 341.68 88.8933 341.895ZM81.1452 340.813C83.4407 340.725 85.3198 340.497 86.7557 340.19C87.3678 340.393 87.9966 340.597 88.6282 340.797C86.2017 341.882 81.7492 342.62 76.349 342.829C71.0621 343.033 67.4853 342.902 63.3363 342.75C59.3112 342.601 54.7687 342.436 47.8364 342.575C51.8244 341.336 53.3798 340.412 54.7587 339.593C56.207 338.734 57.4469 337.993 61.008 337.042C64.4715 336.116 69.6137 335.636 75.1405 335.718C75.6297 335.94 76.1231 336.158 76.6207 336.374C74.6893 336.494 72.8597 336.738 71.3838 337.132C66.856 338.342 68.1878 339.064 62.879 340.668C71.8921 340.46 74.398 341.075 81.1452 340.813ZM120.661 349.251C119.343 350.915 114.634 352.274 107.743 352.98C101.169 353.652 96.2901 353.754 90.641 353.872C85.1156 353.989 78.8787 354.12 69.9602 354.85C73.2529 352.902 73.8045 351.565 74.3043 350.382C74.7935 349.202 75.2571 348.086 78.3832 346.57C81.4826 345.065 87.5929 344.031 95.1378 343.731C96.272 343.686 97.4095 343.658 98.5385 343.646C98.8793 343.736 99.2205 343.824 99.5656 343.912C94.0598 344.176 89.6167 344.956 87.3164 346.072C84.9609 347.217 84.612 348.056 84.2422 348.945C83.8619 349.839 83.4455 350.852 80.8363 352.349L80.5317 352.525L81.3341 352.458C88.1793 351.88 92.9122 351.781 97.0897 351.693C101.16 351.606 105.009 351.526 109.989 351.017C115.054 350.499 118.584 349.523 119.783 348.324C120.189 348.4 120.597 348.474 121.005 348.549C120.955 348.793 120.839 349.03 120.661 349.251ZM111.911 348.646C114.031 348.429 115.579 348.1 116.601 347.719C117.434 347.882 118.269 348.041 119.113 348.199C118.056 349.388 114.631 350.356 109.658 350.865C104.807 351.362 101.19 351.439 97.0121 351.528C92.9532 351.612 88.3711 351.708 81.8491 352.236C84.2275 350.814 84.6335 349.831 84.9976 348.962C85.3779 348.05 85.7058 347.262 88.0185 346.141C90.2716 345.048 94.6761 344.29 100.132 344.058C100.857 344.242 101.587 344.424 102.33 344.606C100.593 344.831 99.102 345.172 98.1377 345.64C95.1935 347.066 97.3377 347.687 94.1083 349.541C102.564 348.827 105.703 349.282 111.911 348.646ZM160.017 354.564C160.716 356.246 157.779 357.827 151.955 358.9C146.412 359.922 141.823 360.297 136.507 360.733C131.315 361.158 125.45 361.638 117.703 362.85C118.578 360.779 117.534 359.457 116.616 358.284C115.688 357.114 114.819 356.009 116.046 354.368C117.256 352.738 121.933 351.39 128.862 350.671C129.895 350.565 130.952 350.474 132.021 350.4C132.457 350.467 132.887 350.533 133.326 350.599C128.333 351.167 124.985 352.171 124.082 353.38C123.156 354.621 123.816 355.452 124.503 356.332C125.201 357.218 125.993 358.222 125.251 359.816L125.162 360.003L125.85 359.892C131.778 358.946 136.227 358.582 140.153 358.259C143.982 357.946 147.607 357.65 151.801 356.875C156.066 356.09 158.326 354.949 158.072 353.726C158.559 353.776 159.041 353.825 159.53 353.874C159.756 354.1 159.92 354.33 160.017 354.564ZM134.733 356.347C142.048 355.18 145.622 355.44 150.855 354.475C152.632 354.147 153.736 353.744 154.277 353.321C155.278 353.431 156.282 353.539 157.291 353.645C157.655 354.85 155.491 355.976 151.309 356.747C147.212 357.503 143.819 357.781 139.881 358.104C136.063 358.416 131.755 358.768 126.084 359.649C126.704 358.137 125.94 357.165 125.263 356.304C124.549 355.4 123.934 354.621 124.837 353.406C125.722 352.223 129.067 351.243 134.04 350.707C134.957 350.845 135.886 350.981 136.813 351.114C135.411 351.43 134.382 351.844 134.005 352.349C132.863 353.893 135.657 354.374 134.733 356.347ZM204.282 357.469C206.947 359.056 205.975 360.75 201.628 362.117C197.484 363.421 193.498 364.043 188.888 364.765C184.379 365.47 179.285 366.268 173.237 367.878C171.638 365.827 169.064 364.606 166.788 363.526C164.518 362.447 162.373 361.428 161.61 359.772C160.857 358.127 163.773 356.56 169.612 355.472C170.508 355.306 171.413 355.16 172.326 355.032C172.823 355.072 173.325 355.112 173.824 355.151C169.683 355.982 167.643 357.143 168.199 358.36C168.773 359.613 170.392 360.38 172.102 361.191C173.818 362.008 175.768 362.932 176.935 364.517L177.067 364.703L177.604 364.557C182.206 363.307 186.069 362.702 189.48 362.169C192.81 361.648 195.951 361.157 199.086 360.17C202.277 359.166 203.105 357.934 201.402 356.762C201.923 356.783 202.455 356.803 202.977 356.823C203.441 357.016 203.878 357.232 204.282 357.469ZM176.561 356.802C177.275 358.361 180.547 358.665 181.984 360.626C187.665 359.082 191.419 359.132 195.332 357.903C196.667 357.483 197.256 357.029 197.273 356.587C198.365 356.636 199.457 356.683 200.552 356.728C202.343 357.875 201.588 359.089 198.459 360.075C195.395 361.037 192.446 361.498 189.036 362.031C185.722 362.551 181.977 363.136 177.546 364.309C176.354 362.813 174.464 361.916 172.791 361.122C171.037 360.288 169.522 359.569 168.959 358.344C168.412 357.151 170.482 356.014 174.647 355.215C175.696 355.296 176.753 355.375 177.808 355.451C176.83 355.835 176.327 356.293 176.561 356.802ZM250.433 357.769C254.875 359.153 255.947 360.846 253.365 362.415C250.913 363.908 247.798 364.737 244.199 365.696C240.686 366.633 236.707 367.692 232.777 369.591C228.807 367.698 224.882 366.665 221.412 365.75C217.942 364.835 214.667 363.972 211.974 362.413C209.299 360.866 210.26 359.186 214.618 357.805C215.312 357.586 216.023 357.39 216.751 357.217C217.278 357.227 217.802 357.237 218.328 357.247C215.295 358.286 214.685 359.528 216.667 360.676C218.702 361.854 221.165 362.505 223.774 363.192C226.4 363.883 229.372 364.668 232.37 366.134L232.723 366.305L233.066 366.133C236.031 364.664 239.044 363.86 241.703 363.151C244.297 362.46 246.752 361.807 248.617 360.675C250.508 359.523 249.846 358.283 246.811 357.247C247.342 357.237 247.873 357.227 248.405 357.217C249.095 357.381 249.772 357.565 250.433 357.769ZM222.892 358.695C225.427 360.161 228.939 360.271 232.649 362.085C236.305 360.271 239.985 360.107 242.31 358.696C243.105 358.213 243.134 357.739 242.624 357.31C243.738 357.296 244.835 357.28 245.948 357.261C249.039 358.268 249.753 359.486 247.892 360.618C246.076 361.723 243.777 362.334 241.113 363.045C238.524 363.735 235.608 364.513 232.717 365.896C229.795 364.517 226.915 363.757 224.36 363.084C221.685 362.378 219.368 361.769 217.378 360.616C215.437 359.492 216.099 358.273 219.192 357.261C220.294 357.28 221.403 357.296 222.506 357.31C222.008 357.739 222.059 358.213 222.892 358.695ZM295.332 355.444C295.863 355.541 296.39 355.647 296.912 355.76C301.79 356.825 304.226 358.262 303.652 359.769C303.045 361.352 301.021 362.33 298.687 363.461C296.396 364.566 293.815 365.815 292.26 367.874C290.689 367.459 289.095 367.074 287.481 366.722C283.482 365.849 279.965 365.303 276.75 364.805C273.918 364.365 271.185 363.94 268.418 363.336C266.807 362.987 265.232 362.579 263.703 362.115C259.293 360.769 258.234 359.09 260.798 357.508C261.184 357.271 261.641 357.041 262.158 356.822C262.677 356.802 263.197 356.782 263.716 356.762C262.031 357.938 262.908 359.171 266.171 360.168C267.329 360.519 268.522 360.828 269.743 361.093C271.827 361.548 273.881 361.867 276.01 362.197C278.374 362.564 280.959 362.965 283.9 363.607C285.13 363.875 286.421 364.185 287.784 364.553L288.325 364.699L288.457 364.514C289.577 362.925 291.536 361.978 293.265 361.143C294.952 360.327 296.542 359.557 297.009 358.357C297.451 357.195 295.573 356.089 291.818 355.27C291.63 355.228 291.44 355.189 291.249 355.151C291.751 355.111 292.256 355.071 292.757 355.031C293.646 355.155 294.507 355.293 295.332 355.444ZM269.842 357.9C270.589 358.129 271.317 358.314 272.041 358.472C273.391 358.767 274.729 358.969 276.153 359.191C277.581 359.413 279.105 359.656 280.829 360.032C281.653 360.212 282.466 360.41 283.265 360.625C284.654 358.664 288.008 358.297 288.579 356.8C288.774 356.291 288.251 355.834 287.264 355.451C288.322 355.374 289.375 355.295 290.428 355.214C290.721 355.27 291.004 355.328 291.276 355.388C294.871 356.172 296.671 357.231 296.243 358.343C295.796 359.514 294.303 360.235 292.568 361.074C290.887 361.886 288.987 362.803 287.834 364.305C286.711 364.01 285.573 363.737 284.422 363.485C281.449 362.836 278.836 362.431 276.449 362.06C274.276 361.723 272.292 361.416 270.292 360.979C269.097 360.72 267.928 360.416 266.795 360.071C263.593 359.094 262.79 357.878 264.574 356.727C265.663 356.682 266.748 356.636 267.834 356.587C267.863 357.029 268.472 357.483 269.842 357.9ZM335.907 350.653C338.486 350.916 340.764 351.266 342.68 351.684C345.97 352.402 348.195 353.323 349.049 354.362C350.334 355.927 349.546 356.986 348.621 358.213C347.722 359.41 346.707 360.766 347.644 362.843C339.893 361.637 334.138 361.169 329.047 360.755C323.956 360.34 319.157 359.95 313.269 358.893C312.704 358.792 312.145 358.681 311.591 358.561C306.856 357.528 304.48 356.11 305.025 354.604C305.122 354.346 305.288 354.099 305.516 353.873C305.999 353.824 306.475 353.775 306.956 353.726C306.752 354.827 308.578 355.855 312.062 356.615C312.471 356.705 312.903 356.79 313.357 356.872C317.807 357.671 321.419 357.965 325.247 358.276C329.096 358.588 333.458 358.943 339.393 359.887L340.096 359.998L340.001 359.81C339.201 358.212 339.973 357.185 340.65 356.278C341.316 355.395 341.94 354.559 340.973 353.374C340.314 352.574 338.598 351.863 336.062 351.309C334.778 351.029 333.284 350.789 331.611 350.599C332.048 350.532 332.483 350.465 332.917 350.398C333.928 350.469 334.927 350.554 335.907 350.653ZM313.405 354.31C313.659 354.365 313.929 354.419 314.217 354.47C319.754 355.467 323.05 355.176 330.395 356.344C329.411 354.371 332.213 353.824 330.999 352.345C330.587 351.842 329.541 351.43 328.134 351.115C329.057 350.981 329.986 350.844 330.899 350.707C332.647 350.896 334.199 351.139 335.519 351.427C337.945 351.957 339.588 352.637 340.219 353.402C341.169 354.56 340.582 355.343 339.9 356.251C339.239 357.133 338.489 358.127 339.153 359.644C333.484 358.766 329.257 358.423 325.515 358.12C321.585 357.801 318.194 357.525 313.842 356.742C313.424 356.667 313.01 356.585 312.601 356.496C309.178 355.749 307.428 354.731 307.746 353.643C308.741 353.539 309.748 353.43 310.735 353.322C311.199 353.677 312.066 354.018 313.405 354.31ZM369.408 343.721C374.259 343.908 378.547 344.398 381.859 345.12C383.737 345.53 385.3 346.015 386.474 346.562C389.569 348.003 390.054 349.071 390.611 350.309C391.163 351.519 391.782 352.885 395.144 354.84C386.236 354.112 380.13 353.987 374.725 353.876C369.326 353.764 364.228 353.659 357.305 352.97C354.76 352.717 352.507 352.375 350.607 351.96C347.365 351.252 345.153 350.334 344.277 349.291C344.075 349.058 343.942 348.806 343.881 348.546C344.287 348.472 344.683 348.398 345.087 348.323C345.842 349.066 347.49 349.721 349.837 350.233C351.3 350.553 353.036 350.816 354.995 351.011C360.239 351.532 364.074 351.611 368.13 351.696C372.213 351.78 376.847 351.875 383.687 352.45L384.492 352.518L384.176 352.343C381.523 350.841 381.049 349.806 380.636 348.89C380.229 347.998 379.85 347.155 377.504 346.064C376.6 345.642 375.396 345.268 373.949 344.953C371.585 344.437 368.574 344.076 365.173 343.911C365.519 343.822 365.858 343.733 366.199 343.643C367.265 343.654 368.338 343.679 369.408 343.721ZM349.838 348.17C350.701 348.358 351.746 348.52 352.987 348.643C359.51 349.29 362.34 348.822 370.816 349.535C367.526 347.683 369.592 346.997 366.676 345.636C366.105 345.369 365.366 345.144 364.513 344.958C363.831 344.812 363.133 344.694 362.425 344.605C363.155 344.425 363.883 344.242 364.609 344.056C368.031 344.205 371.057 344.558 373.412 345.072C374.797 345.374 375.949 345.732 376.816 346.135C379.107 347.2 379.464 347.991 379.876 348.907C380.283 349.796 380.73 350.8 383.167 352.228C376.656 351.704 372.174 351.611 368.204 351.528C364.034 351.442 360.436 351.368 355.311 350.859C353.436 350.673 351.776 350.421 350.377 350.115C348.039 349.605 346.429 348.946 345.752 348.199C346.586 348.041 347.418 347.881 348.241 347.72C348.678 347.881 349.209 348.032 349.838 348.17ZM393.545 335.121C400.532 334.987 407.141 335.512 411.986 336.569C412.467 336.674 412.932 336.784 413.377 336.9C418.059 338.117 419.789 339.123 421.796 340.289C423.754 341.427 425.968 342.712 431.526 344.412C422.065 344.214 416.029 344.438 410.677 344.635C405.337 344.835 400.292 345.021 392.793 344.748C388.04 344.575 383.808 344.095 380.509 343.375C378.638 342.967 377.067 342.481 375.874 341.931C375.38 341.704 374.962 341.471 374.618 341.236C374.925 341.141 375.222 341.048 375.524 340.952C376.399 341.319 377.498 341.646 378.782 341.926C381.324 342.481 384.587 342.851 388.254 342.985C393.924 343.191 397.712 343.051 401.733 342.902C405.78 342.752 410.361 342.582 417.643 342.752L418.495 342.771L417.991 342.619C413.648 341.318 411.972 340.343 410.487 339.482C409.046 338.643 407.675 337.849 404.13 336.927C403.774 336.835 403.414 336.749 403.05 336.67C399.523 335.9 394.775 335.497 389.723 335.544C389.949 335.439 390.176 335.331 390.397 335.225C391.426 335.177 392.477 335.141 393.545 335.121ZM383.514 340.809C390.565 341.065 392.757 340.454 401.77 340.663C396.413 339.058 397.588 338.277 393.165 337.128C392.943 337.07 392.718 337.017 392.49 336.967C391.126 336.669 389.54 336.476 387.887 336.374C388.381 336.158 388.87 335.938 389.355 335.715C394.345 335.646 399.044 336.032 402.512 336.789C402.869 336.867 403.213 336.949 403.543 337.034C407.008 337.934 408.291 338.678 409.776 339.541C411.218 340.378 412.839 341.322 416.88 342.567C409.976 342.427 405.535 342.591 401.601 342.737C397.483 342.89 393.921 343.021 388.369 342.819C384.868 342.693 381.751 342.339 379.32 341.808C377.999 341.52 376.882 341.18 376.014 340.796C376.634 340.597 377.251 340.395 377.865 340.19C379.314 340.498 381.206 340.725 383.514 340.809ZM349.702 344.932C285.12 359.119 180.069 359.119 115.064 344.932C50.0596 330.746 49.7173 307.745 114.299 293.558C178.881 279.372 283.932 279.372 348.936 293.558C413.941 307.744 414.283 330.745 349.702 344.932ZM406.671 325.439C413.904 324.861 421.651 325.078 427.909 326.035C430.103 326.371 431.875 326.701 433.406 327.035C436.035 327.609 437.948 328.193 440.04 328.833C442.396 329.552 444.971 330.34 449.037 331.227C450.778 331.605 452.536 331.953 454.311 332.27C444.944 332.615 439.382 333.173 434.456 333.668C429.535 334.161 424.888 334.628 417.325 334.789C410.474 334.936 403.915 334.414 399.036 333.349C398.574 333.249 398.117 333.14 397.666 333.024C396.974 332.848 396.299 332.648 395.643 332.427C395.824 332.319 396.005 332.209 396.181 332.1C396.37 332.145 396.562 332.189 396.758 332.232C400.518 333.052 405.576 333.454 410.854 333.342C416.573 333.22 420.067 332.869 423.772 332.496C427.498 332.123 431.714 331.699 438.952 331.45L439.798 331.421L439.127 331.303C437.667 331.047 436.22 330.764 434.789 330.454C431.805 329.803 429.911 329.224 428.18 328.695C426.661 328.231 425.194 327.784 423.167 327.341C422.007 327.088 420.662 326.836 419.019 326.585C414.426 325.883 408.793 325.698 403.449 326.067C403.541 325.953 403.633 325.836 403.721 325.722C404.7 325.612 405.684 325.517 406.671 325.439ZM444.432 321.716C440.269 322.472 436.339 323.186 429.224 323.77C422.169 324.351 414.492 324.135 408.164 323.177C407.259 323.041 406.363 322.885 405.478 322.71C405.524 322.594 405.567 322.479 405.608 322.364C410.37 323.03 416.041 323.167 421.276 322.737C426.651 322.296 429.609 321.76 432.744 321.189C435.89 320.617 439.466 319.969 446.148 319.318L446.935 319.24L446.147 319.165C439.424 318.512 435.747 317.848 432.498 317.264C429.334 316.694 426.345 316.154 421.173 315.743C415.9 315.324 410.238 315.465 405.516 316.126C405.471 316.01 405.423 315.893 405.373 315.777C406.203 315.612 407.043 315.464 407.891 315.335C414.196 314.367 421.925 314.137 429.1 314.708C435.929 315.252 439.724 315.934 444.115 316.725C448.402 317.499 453.257 318.372 461.941 319.239C453.31 320.102 448.604 320.958 444.432 321.716ZM412.208 321.368C418.897 320.817 419.387 320.049 427.663 319.243C419.363 318.436 418.602 317.63 412.145 317.117C410.048 316.951 407.927 316.927 405.821 317.044C405.753 316.8 405.675 316.557 405.587 316.315C410.18 315.642 415.74 315.49 420.911 315.9C425.958 316.303 428.77 316.808 432.019 317.392C435.177 317.962 438.734 318.604 445.069 319.24C438.78 319.875 435.317 320.504 432.251 321.061C429.041 321.645 426.261 322.149 421.005 322.582C415.871 323.004 410.299 322.855 405.675 322.174C405.755 321.933 405.826 321.691 405.886 321.448C407.847 321.558 410.01 321.549 412.208 321.368Z" fill="#D0E6FF"/>
<path d="M168.941 102.521C168.941 102.521 175.512 112.604 176.776 118.787C178.246 125.984 187.959 121.61 187.154 113.152C186.553 106.848 168.941 102.521 168.941 102.521ZM302.189 102.521C302.189 102.521 295.619 112.604 294.355 118.787C292.885 125.984 283.172 121.61 283.977 113.152C284.577 106.848 302.189 102.521 302.189 102.521Z" fill="#FFCCBD"/>
<path d="M264.483 32.354C260.683 48.4752 251.241 56.8639 234.906 56.8639C218.571 56.8639 209.049 49.2151 205.33 32.354C203.609 24.554 207.726 14.8458 216.452 12.3002C225.379 9.6965 223.204 0 234.906 0C246.957 0 244.937 10.3582 253.571 12.8147C262.942 15.4815 266.338 24.4816 264.483 32.354Z" fill="#512C2C"/>
<path d="M310.848 335.147C286.712 346.234 232.459 345.54 232.459 345.54C232.459 345.54 184.632 345.336 155.472 334.347C126.335 323.358 106.845 274.522 155.589 269.262C195.301 264.977 181.957 195.428 182.837 170.927C182.837 170.927 183.387 168.7 183.792 167.679C187.045 159.585 196.87 153.519 206.274 150.152C206.274 150.152 232.318 149.312 233.731 149.055L260.41 148.231C270.051 151.591 280.352 159.411 283.669 167.699C284.075 168.72 284.624 170.927 284.624 170.927C284.238 198.778 268.231 262.399 307.117 268.111C353.427 274.915 342.022 320.825 310.848 335.147Z" fill="#FFCCBD"/>
<path d="M310.848 335.146C286.712 346.234 232.459 345.54 232.459 345.54C232.459 345.54 184.632 345.335 155.472 334.346C126.335 323.357 106.845 274.522 155.589 269.262C195.301 264.977 181.957 195.428 182.837 170.926C182.837 170.926 183.387 168.7 183.792 167.679C187.045 159.584 196.87 153.518 206.274 150.151L214.544 200.97C224.185 204.329 280.421 207.231 281.119 227.174C281.833 247.548 287.466 265.224 307.117 268.111C353.427 274.915 342.022 320.824 310.848 335.146Z" fill="#D6434B"/>
<path d="M310.848 335.141C286.717 346.237 232.459 345.542 232.459 345.542C232.459 345.542 184.637 345.337 155.469 334.345C149.677 332.159 144.262 328.48 139.695 323.935C140.385 324.256 141.087 324.549 141.8 324.813C170.957 335.806 218.789 336.01 218.789 336.01C218.789 336.01 273.038 336.705 297.179 325.61C319.991 315.138 332.22 287.739 318.98 271.137C351.039 283.509 339.004 322.218 310.848 335.141Z" fill="#F0DED3"/>
<path d="M206.273 150.152C206.927 152.603 207.878 155.648 209.512 158.662V158.672C213.139 165.364 220.086 171.964 234.511 171.871C252.533 171.749 260.409 154.361 260.409 148.231C257.109 147.567 253.707 147.117 250.468 146.8C248.333 146.596 246.494 145.431 245.412 143.746C244.695 142.661 244.315 141.388 244.319 140.088V131.026H220.28V141.652C220.28 144.951 217.889 147.751 214.64 148.323C211.841 148.814 208.991 149.416 206.273 150.152Z" fill="#FFCCBD"/>
<path d="M260.41 148.236C260.41 150.156 247.68 152.881 236.013 143.067C232.157 139.823 223.959 142.515 220.25 142.259C220.271 142.065 220.281 141.861 220.281 141.657V131.032H244.32V140.094C244.32 141.443 244.718 142.699 245.413 143.752C246.496 145.437 248.335 146.602 250.47 146.806C253.708 147.122 257.11 147.572 260.41 148.236Z" fill="#FFB49E"/>
<path d="M286.745 110.366C292.075 109.992 301.731 107.056 304.113 98.4229C305.197 94.5153 304.482 90.5129 302.151 87.448C299.987 84.6037 296.751 82.9717 293.271 82.9717C290.029 82.9717 286.847 84.4325 284.313 87.0841L283.164 88.2867L282.669 93.9705L282.048 101.228L281.219 110.753L286.745 110.366Z" fill="#FFCCBD"/>
<path d="M288.845 91.6666L288.564 94.8997L288.065 100.722L287.785 103.944C287.785 103.944 296.626 103.325 298.334 97.1352C299.958 91.2763 293.616 86.6748 288.845 91.6666Z" fill="#FABCAA"/>
<path d="M183.222 108.881C177.892 108.507 168.236 105.571 165.854 96.938C164.771 93.0305 165.486 89.0281 167.816 85.9631C169.98 83.1183 173.216 81.4868 176.696 81.4868C179.938 81.4868 183.12 82.9476 185.654 85.5993L186.804 86.8019L187.298 92.4857L187.92 99.7428L188.749 109.268L183.222 108.881Z" fill="#FFCCBD"/>
<path d="M181.118 90.1823L181.4 93.4154L181.898 99.2381L182.179 102.46C182.179 102.46 173.338 101.84 171.631 95.6509C170.006 89.7915 176.348 85.1905 181.118 90.1823Z" fill="#FABCAA"/>
<path d="M215.4 35.1289H254.288C273.078 35.1289 288.31 50.361 288.31 69.1505V103.992C288.31 123.041 272.868 138.482 253.82 138.482H215.869C196.821 138.482 181.379 123.041 181.379 103.992V69.1505C181.379 50.3605 196.611 35.1289 215.4 35.1289Z" fill="#FFCCBD"/>
<path d="M292.909 77.0682C292.983 82.4923 289.789 94.8541 287.545 101.083C283.399 77.2589 274.413 63.8353 263.732 62.957C250.742 61.8889 246.431 68.7161 234.838 68.8809C222.686 69.0535 217.363 63.6343 207.015 63.8329C191.435 64.1322 182.724 86.8894 182.104 102.459C182.104 102.459 177.643 86.5881 177.048 74.6914C175.839 50.5354 190.941 33.7941 220.089 26.9258C254.219 18.8833 292.354 36.1362 292.909 77.0682Z" fill="#512C2C"/>
<path d="M232 294.828C232 294.828 218.127 299.231 192.249 286.042C174.085 276.786 155.389 274.109 140.422 273.108C144.488 271.249 149.514 269.921 155.593 269.266C159.046 268.888 162.09 268.03 164.788 266.743C173.911 269.011 187.059 273.097 196.295 279.442C210.516 289.219 221.232 293.766 232 294.828ZM296.71 264.568C288.864 266.519 280.752 269.318 272.743 273.395C246.855 286.594 232.982 282.191 232.982 282.191C243.76 281.128 254.466 276.572 268.687 266.805C274.552 262.77 281.989 259.654 288.967 257.345C291.02 260.256 293.574 262.708 296.71 264.568Z" fill="#F0DED3"/>
<path d="M198.328 110.753C198.328 113.018 201.042 114.855 204.39 114.855C207.738 114.855 210.452 113.018 210.452 110.753C210.452 108.488 207.738 106.651 204.39 106.651C201.042 106.652 198.328 108.488 198.328 110.753Z" fill="#FABCAA"/>
<path d="M265.292 114.855C268.64 114.855 271.354 113.018 271.354 110.753C271.354 108.488 268.64 106.651 265.292 106.651C261.944 106.651 259.23 108.488 259.23 110.753C259.23 113.018 261.944 114.855 265.292 114.855Z" fill="#FABCAA"/>
<path d="M227.514 121.547C226.712 121.487 226.12 122.284 226.433 123.025C227.382 125.273 228.74 126.945 230.289 128.022V128.065C233.63 130.486 237.891 130.319 240.982 127.814C242.422 126.675 243.593 125.052 244.346 122.948C244.606 122.22 244.011 121.474 243.241 121.538C243.198 121.542 243.155 121.545 243.112 121.548C237.89 122.384 232.753 122.384 227.531 121.548C227.525 121.548 227.519 121.547 227.514 121.547Z" fill="#D15A5A"/>
<path d="M234.142 102.216C234.384 101.833 234.676 101.484 234.915 101.099C235.113 100.78 235.339 100.366 235.285 99.9741C235.242 99.6567 235.362 99.3364 235.701 99.243C235.978 99.1671 236.388 99.3378 236.432 99.6582C236.552 100.538 236.233 101.299 235.733 102.011C235.349 102.556 234.803 103.155 234.807 103.84C234.809 104.061 234.866 104.298 235.058 104.439C235.278 104.6 235.616 104.604 235.877 104.615C236.431 104.64 237.13 104.701 237.522 104.274C238.041 103.71 238.879 104.552 238.362 105.115C237.781 105.748 236.893 105.832 236.082 105.811C235.17 105.787 234.197 105.613 233.793 104.682C233.433 103.854 233.68 102.949 234.142 102.216Z" fill="#E09E9E"/>
<path d="M221.301 82.5544C221.301 82.5544 209.587 71.583 201.469 82.5544C201.469 82.5544 208.867 76.8535 221.301 82.5544ZM216.327 96.6808C214.841 97.5616 213.022 97.9856 211.246 97.7836C210.244 97.679 209.274 97.3728 208.388 96.9209C207.527 97.2476 207.249 97.9357 207.145 98.324C206.827 97.5225 207.12 96.7796 207.432 96.3536C207.155 96.1631 206.89 95.9558 206.639 95.733C205.153 95.8338 204.431 96.7776 204.11 97.3268C203.955 95.9355 204.78 94.9163 205.436 94.4336C205.278 94.225 205.128 94.0096 204.988 93.788C204.023 93.5318 203.378 93.9876 203.067 94.2693C203.239 93.3919 203.93 92.9244 204.428 92.7483C204.224 92.3078 204.057 91.8513 203.928 91.3834C205.043 92.5903 206.163 93.6677 207.424 94.459C208.675 95.2552 210.042 95.7565 211.448 95.9057C212.855 96.0592 214.298 95.8602 215.684 95.3418C217.077 94.8317 218.393 94.012 219.703 93.0202C219.005 94.5099 217.819 95.8034 216.327 96.6808ZM248.256 82.5544C248.256 82.5544 259.97 71.583 268.088 82.5544C268.088 82.5544 260.689 76.8535 248.256 82.5544ZM253.229 96.6808C254.716 97.5616 256.534 97.9856 258.31 97.7836C259.312 97.679 260.282 97.3728 261.168 96.9209C262.029 97.2476 262.307 97.9357 262.411 98.324C262.729 97.5225 262.436 96.7796 262.124 96.3536C262.403 96.1619 262.667 95.9545 262.917 95.733C264.403 95.8338 265.125 96.7776 265.446 97.3268C265.601 95.9355 264.776 94.9163 264.12 94.4336C264.279 94.2238 264.429 94.0091 264.568 93.788C265.534 93.5318 266.179 93.9876 266.489 94.2693C266.317 93.3919 265.626 92.9244 265.129 92.7483C265.332 92.3078 265.5 91.8513 265.628 91.3834C264.513 92.5903 263.393 93.6677 262.132 94.459C260.881 95.2552 259.514 95.7565 258.108 95.9057C256.701 96.0592 255.258 95.8602 253.873 95.3418C252.479 94.8317 251.164 94.012 249.853 93.0202C250.552 94.5099 251.737 95.8034 253.229 96.6808Z" fill="#65170F"/>
<path d="M234.821 83.4917H234.798C233.272 83.4824 231.236 82.5249 230.204 78.0143C229.612 75.4292 229.62 72.8934 229.621 72.7868C229.622 72.6771 229.666 72.5722 229.744 72.4949C229.822 72.4176 229.927 72.3741 230.036 72.374H230.039C230.093 72.3743 230.147 72.3854 230.198 72.4066C230.248 72.4277 230.293 72.4586 230.332 72.4974C230.37 72.5361 230.4 72.5821 230.421 72.6326C230.442 72.6831 230.452 72.7372 230.452 72.7917C230.451 72.89 230.446 82.6354 234.803 82.6618C235.564 82.676 236.195 82.3923 236.767 81.8245C239.188 79.4233 239.228 72.8548 239.228 72.7887C239.228 72.5594 239.444 72.3652 239.643 72.3745C239.753 72.3748 239.859 72.4187 239.937 72.4966C240.014 72.5746 240.058 72.6802 240.058 72.7902C240.057 73.0739 240.017 79.7685 237.352 82.4134C236.63 83.1293 235.779 83.4917 234.821 83.4917Z" fill="#BE3639"/>
<path d="M180.43 246.285C187.825 222.583 182.265 187.021 182.848 170.926C182.848 170.926 183.394 168.702 183.801 167.678C186.554 160.796 194.072 155.395 202.031 151.848C202.049 151.848 202.066 151.83 202.084 151.83C203.606 151.215 205.149 150.65 206.708 150.136H206.726C207.273 149.96 207.82 149.783 208.367 149.624C208.367 149.624 208.402 149.783 208.455 150.083C209.144 153.507 211.961 179.598 232.981 193.605C253.45 207.244 282.438 197.734 282.438 197.734C280.903 214.077 279.773 232.396 283.85 246.285H180.43Z" fill="#D6434B"/>
<path d="M282.439 197.733C282.263 199.586 282.104 201.458 281.945 203.345C236.606 215.505 208.385 189.774 204.273 150.982C205.078 150.679 205.89 150.396 206.709 150.135H206.727C207.274 149.959 207.821 149.782 208.368 149.623C208.368 149.623 208.403 149.782 208.456 150.082C209.144 153.506 211.968 179.59 232.988 193.603C253.443 207.246 282.439 197.733 282.439 197.733Z" fill="#FFA63B"/>
<path d="M206.278 178.31C206.278 178.31 217.886 219.074 266.347 217.731C266.347 217.731 220.567 230.335 206.278 178.31ZM204.16 203.03C204.16 203.03 210.555 248.996 254.416 255C254.417 255 205.577 256.365 204.16 203.03Z" fill="#F0DED3"/>
<path d="M230.875 294.903L237.603 319.572C248.125 318.347 290.094 316.995 290.585 307.164C291.226 294.329 267.916 304.16 263.89 299.51C252.887 286.803 251.971 293.113 230.875 294.903Z" fill="#FFCCBD"/>
<path d="M231.306 293.488L239.171 320.593L233.308 321.02L226.336 293.849L231.306 293.488Z" fill="#FFA63B"/>
<path d="M160.212 199.381C168.412 178.752 178.432 168.323 193.352 159.362L197.356 190.388C197.356 190.388 188.914 203.031 182.478 219.075C179.013 227.712 178.726 232.135 179.549 234.182C181.625 239.349 214.601 257.749 214.601 257.749L214.76 271.653C214.76 271.653 159.341 262.869 152.539 247.233C146.797 234.034 152.473 218.848 160.212 199.381Z" fill="#FCC2B4"/>
<path d="M213.649 271.424C211.866 271.26 208.932 269.6 205.489 269.155C202.171 268.726 199.851 266.705 200.165 262.897L200.267 261.665C200.639 257.169 203.065 256.58 207.867 256.725L212.777 257.398C214.153 257.927 215.648 257.879 216.996 257.262C222.09 254.931 227.283 250.007 228.997 252.882C231.208 256.589 222.943 258.906 224.608 259.965C229.717 263.219 245.716 260.103 245.872 262.643C246.238 268.595 233.37 280.459 215.539 271.953C214.945 271.666 214.305 271.487 213.649 271.424Z" fill="#FCC2B4"/>
<path d="M304.911 201.747C296.711 181.118 288.308 164.353 273.388 155.392L263.418 194.459C263.418 194.459 272.741 208.057 280.683 222.113C285.261 230.216 286.397 234.5 285.574 236.548C283.499 241.715 250.523 260.114 250.523 260.114L250.363 274.019C250.363 274.019 305.295 267.696 312.584 249.598C317.962 236.248 312.649 221.213 304.911 201.747Z" fill="#FFCCBD"/>
<path d="M251.469 273.79C253.252 273.626 256.036 272.732 259.479 272.287C262.796 271.858 265.267 269.07 264.953 265.264L264.851 264.031C264.48 259.535 262.053 258.946 257.251 259.091L252.341 259.764C250.965 260.293 249.471 260.245 248.123 259.628C243.028 257.297 237.835 252.374 236.121 255.248C233.911 258.955 242.175 261.272 240.51 262.331C235.401 265.585 219.402 262.469 219.246 265.009C218.88 270.962 231.749 282.825 249.58 274.32C250.181 274.032 250.818 273.85 251.469 273.79Z" fill="#FFCCBD"/>
<path d="M180.63 98.4905C180.63 98.4905 182.431 123.299 193.799 133.392C207.636 145.677 200.879 150.17 215.539 152.501C230.198 154.832 229.086 161.378 235.247 161.997C235.247 161.997 239.422 133.392 234.112 132.85C223.706 131.787 224.838 128.821 213.694 129.673C201.299 130.621 181.684 108.911 183.03 83.501C183.029 83.501 179.576 88.0692 180.63 98.4905Z" fill="#512C2C"/>
<path d="M289.237 98.4905C289.237 98.4905 287.436 123.299 276.067 133.392C262.232 145.677 268.987 150.17 254.328 152.501C239.669 154.832 240.781 161.378 234.619 161.997L234.109 132.85C239.968 132.85 244.695 130.679 256.173 129.673C268.558 128.588 288.183 108.911 286.837 83.501C286.837 83.501 290.291 88.0692 289.237 98.4905Z" fill="#512C2C"/>
<path d="M252.533 115.362C246.431 112.863 240.762 113.847 236.911 111.558C235.601 110.779 234.058 110.779 232.749 111.558C228.898 113.847 223.229 112.863 217.127 115.362C209.805 118.362 213.748 134.158 213.748 134.158L221.207 132.477C221.207 132.477 220.346 126.683 221.325 122.34C222.303 117.997 231.618 118.848 234.594 117.64C234.675 117.607 234.735 117.556 234.808 117.515C234.88 117.556 234.94 117.607 235.021 117.64C237.997 118.848 247.521 117.605 248.499 121.948C249.477 126.291 248.454 132.477 248.454 132.477L255.913 134.158C255.912 134.158 259.855 118.362 252.533 115.362Z" fill="#512C2C"/>
<path d="M206.003 34.0782C207.459 34.0782 208.639 32.898 208.639 31.4422C208.639 29.9863 207.459 28.8062 206.003 28.8062C204.547 28.8062 203.367 29.9863 203.367 31.4422C203.367 32.898 204.547 34.0782 206.003 34.0782Z" fill="#FFA63B"/>
<path d="M213.241 32.1138C214.697 32.1138 215.878 30.9336 215.878 29.4778C215.878 28.022 214.697 26.8418 213.241 26.8418C211.786 26.8418 210.605 28.022 210.605 29.4778C210.605 30.9336 211.786 32.1138 213.241 32.1138Z" fill="#FFA63B"/>
<path d="M220.476 30.4595C221.932 30.4595 223.112 29.2793 223.112 27.8235C223.112 26.3677 221.932 25.1875 220.476 25.1875C219.02 25.1875 217.84 26.3677 217.84 27.8235C217.84 29.2793 219.02 30.4595 220.476 30.4595Z" fill="#FFA63B"/>
<path d="M227.714 29.1158C229.17 29.1158 230.35 27.9356 230.35 26.4798C230.35 25.0239 229.17 23.8438 227.714 23.8438C226.258 23.8438 225.078 25.0239 225.078 26.4798C225.078 27.9356 226.258 29.1158 227.714 29.1158Z" fill="#FFA63B"/>
<path d="M263.894 34.0782C265.35 34.0782 266.53 32.898 266.53 31.4422C266.53 29.9863 265.35 28.8062 263.894 28.8062C262.438 28.8062 261.258 29.9863 261.258 31.4422C261.258 32.898 262.438 34.0782 263.894 34.0782Z" fill="#FFA63B"/>
<path d="M256.659 32.1138C258.115 32.1138 259.295 30.9336 259.295 29.4778C259.295 28.022 258.115 26.8418 256.659 26.8418C255.204 26.8418 254.023 28.022 254.023 29.4778C254.023 30.9336 255.204 32.1138 256.659 32.1138Z" fill="#FFA63B"/>
<path d="M249.421 30.4595C250.877 30.4595 252.057 29.2793 252.057 27.8235C252.057 26.3677 250.877 25.1875 249.421 25.1875C247.965 25.1875 246.785 26.3677 246.785 27.8235C246.785 29.2793 247.965 30.4595 249.421 30.4595Z" fill="#FFA63B"/>
<path d="M242.183 29.1158C243.639 29.1158 244.819 27.9356 244.819 26.4798C244.819 25.0239 243.639 23.8438 242.183 23.8438C240.727 23.8438 239.547 25.0239 239.547 26.4798C239.547 27.9356 240.727 29.1158 242.183 29.1158Z" fill="#FFA63B"/>
<path d="M234.952 28.8057C236.408 28.8057 237.588 27.6255 237.588 26.1697C237.588 24.7139 236.408 23.5337 234.952 23.5337C233.497 23.5337 232.316 24.7139 232.316 26.1697C232.316 27.6255 233.497 28.8057 234.952 28.8057Z" fill="#FFA63B"/>
<path d="M155.219 203.03C162.662 210.598 177.975 217.217 185.22 219.074C189.631 212.462 200.203 193.574 200.047 193.935L198.568 153.53C183.15 160.99 163.328 183.435 155.219 203.03Z" fill="#D6434B"/>
<path d="M256.266 260.502C257.343 260.502 258.216 259.629 258.216 258.552C258.216 257.476 257.343 256.603 256.266 256.603C255.189 256.603 254.316 257.476 254.316 258.552C254.316 259.629 255.189 260.502 256.266 260.502Z" fill="#512C2C"/>
<path d="M258.219 264.459C259.296 264.459 260.169 263.586 260.169 262.509C260.169 261.433 259.296 260.56 258.219 260.56C257.143 260.56 256.27 261.433 256.27 262.509C256.27 263.586 257.143 264.459 258.219 264.459Z" fill="#512C2C"/>
<path d="M259.739 268.632C260.816 268.632 261.689 267.759 261.689 266.682C261.689 265.605 260.816 264.732 259.739 264.732C258.662 264.732 257.789 265.605 257.789 266.682C257.789 267.759 258.662 268.632 259.739 268.632Z" fill="#512C2C"/>
<path d="M260.864 272.921C261.941 272.921 262.814 272.048 262.814 270.971C262.814 269.894 261.941 269.021 260.864 269.021C259.787 269.021 258.914 269.894 258.914 270.971C258.914 272.048 259.787 272.921 260.864 272.921Z" fill="#512C2C"/>
<path d="M288.595 210.296C289.659 210.296 290.522 209.433 290.522 208.369C290.522 207.305 289.659 206.442 288.595 206.442C287.531 206.442 286.668 207.305 286.668 208.369C286.668 209.433 287.531 210.296 288.595 210.296Z" fill="#512C2C"/>
<path d="M295.927 205.486C296.991 205.486 297.854 204.623 297.854 203.559C297.854 202.495 296.991 201.632 295.927 201.632C294.863 201.632 294 202.495 294 203.559C294 204.623 294.863 205.486 295.927 205.486Z" fill="#512C2C"/>
<path d="M299.403 202.87C300.468 202.87 301.33 202.008 301.33 200.943C301.33 199.879 300.468 199.017 299.403 199.017C298.339 199.017 297.477 199.879 297.477 200.943C297.477 202.008 298.339 202.87 299.403 202.87Z" fill="#512C2C"/>
<path d="M302.665 200.165C303.729 200.165 304.592 199.303 304.592 198.238C304.592 197.174 303.729 196.312 302.665 196.312C301.601 196.312 300.738 197.174 300.738 198.238C300.738 199.303 301.601 200.165 302.665 200.165Z" fill="#512C2C"/>
<path d="M292.36 207.969C293.425 207.969 294.287 207.106 294.287 206.042C294.287 204.978 293.425 204.115 292.36 204.115C291.296 204.115 290.434 204.978 290.434 206.042C290.434 207.106 291.296 207.969 292.36 207.969Z" fill="#512C2C"/>
<path d="M284.786 212.409C285.85 212.409 286.713 211.547 286.713 210.483C286.713 209.418 285.85 208.556 284.786 208.556C283.722 208.556 282.859 209.418 282.859 210.483C282.859 211.547 283.722 212.409 284.786 212.409Z" fill="#512C2C"/>
<path d="M280.739 214.112C281.804 214.112 282.666 213.249 282.666 212.185C282.666 211.121 281.804 210.258 280.739 210.258C279.675 210.258 278.812 211.121 278.812 212.185C278.812 213.249 279.675 214.112 280.739 214.112Z" fill="#512C2C"/>
<path d="M276.556 215.424C277.62 215.424 278.483 214.561 278.483 213.497C278.483 212.433 277.62 211.57 276.556 211.57C275.492 211.57 274.629 212.433 274.629 213.497C274.629 214.561 275.492 215.424 276.556 215.424Z" fill="#512C2C"/>
<path d="M211.012 258.942C212.089 258.942 212.962 258.069 212.962 256.992C212.962 255.915 212.089 255.042 211.012 255.042C209.935 255.042 209.062 255.915 209.062 256.992C209.062 258.069 209.935 258.942 211.012 258.942Z" fill="#512C2C"/>
<path d="M209.169 262.947C210.245 262.947 211.118 262.074 211.118 260.997C211.118 259.92 210.245 259.047 209.169 259.047C208.092 259.047 207.219 259.92 207.219 260.997C207.219 262.074 208.092 262.947 209.169 262.947Z" fill="#512C2C"/>
<path d="M207.755 267.157C208.831 267.157 209.704 266.284 209.704 265.207C209.704 264.13 208.831 263.257 207.755 263.257C206.678 263.257 205.805 264.13 205.805 265.207C205.805 266.284 206.678 267.157 207.755 267.157Z" fill="#512C2C"/>
<path d="M206.739 271.473C207.816 271.473 208.689 270.6 208.689 269.524C208.689 268.447 207.816 267.574 206.739 267.574C205.662 267.574 204.789 268.447 204.789 269.524C204.789 270.6 205.662 271.473 206.739 271.473Z" fill="#512C2C"/>
<path d="M198.166 157.611C199.319 157.611 200.254 156.698 200.254 155.571C200.254 154.443 199.319 153.53 198.166 153.53C197.013 153.53 196.078 154.443 196.078 155.571C196.078 156.698 197.013 157.611 198.166 157.611Z" fill="#512C2C"/>
<path d="M198.857 162.868C200.01 162.868 200.945 161.955 200.945 160.827C200.945 159.7 200.01 158.787 198.857 158.787C197.704 158.787 196.77 159.7 196.77 160.827C196.77 161.955 197.704 162.868 198.857 162.868Z" fill="#512C2C"/>
<path d="M199.736 168.125C200.889 168.125 201.824 167.211 201.824 166.084C201.824 164.957 200.889 164.043 199.736 164.043C198.583 164.043 197.648 164.957 197.648 166.084C197.648 167.211 198.583 168.125 199.736 168.125Z" fill="#512C2C"/>
<path d="M200.748 173.381C201.901 173.381 202.836 172.467 202.836 171.34C202.836 170.213 201.901 169.299 200.748 169.299C199.595 169.299 198.66 170.213 198.66 171.34C198.66 172.467 199.595 173.381 200.748 173.381Z" fill="#512C2C"/>
<path d="M201.627 178.361C202.78 178.361 203.715 177.447 203.715 176.32C203.715 175.193 202.78 174.279 201.627 174.279C200.474 174.279 199.539 175.193 199.539 176.32C199.539 177.447 200.474 178.361 201.627 178.361Z" fill="#512C2C"/>
<path d="M202.838 183.572C203.991 183.572 204.926 182.658 204.926 181.531C204.926 180.404 203.991 179.49 202.838 179.49C201.685 179.49 200.75 180.404 200.75 181.531C200.75 182.658 201.685 183.572 202.838 183.572Z" fill="#512C2C"/>
<path d="M204.408 188.782C205.561 188.782 206.496 187.869 206.496 186.742C206.496 185.614 205.561 184.701 204.408 184.701C203.255 184.701 202.32 185.614 202.32 186.742C202.32 187.869 203.255 188.782 204.408 188.782Z" fill="#512C2C"/>
<path d="M205.799 194.27C206.952 194.27 207.886 193.356 207.886 192.229C207.886 191.102 206.952 190.188 205.799 190.188C204.646 190.188 203.711 191.102 203.711 192.229C203.711 193.356 204.646 194.27 205.799 194.27Z" fill="#512C2C"/>
<path d="M207.689 199.48C208.842 199.48 209.777 198.566 209.777 197.439C209.777 196.312 208.842 195.398 207.689 195.398C206.536 195.398 205.602 196.312 205.602 197.439C205.602 198.566 206.536 199.48 207.689 199.48Z" fill="#512C2C"/>
<path d="M209.783 204.69C210.936 204.69 211.871 203.776 211.871 202.649C211.871 201.522 210.936 200.608 209.783 200.608C208.63 200.608 207.695 201.522 207.695 202.649C207.695 203.776 208.63 204.69 209.783 204.69Z" fill="#512C2C"/>
<path d="M212.178 209.9C213.331 209.9 214.265 208.987 214.265 207.86C214.265 206.733 213.331 205.819 212.178 205.819C211.025 205.819 210.09 206.733 210.09 207.86C210.09 208.987 211.025 209.9 212.178 209.9Z" fill="#512C2C"/>
<path d="M214.978 214.812C216.131 214.812 217.066 213.898 217.066 212.771C217.066 211.644 216.131 210.73 214.978 210.73C213.825 210.73 212.891 211.644 212.891 212.771C212.891 213.898 213.825 214.812 214.978 214.812Z" fill="#512C2C"/>
<path d="M218.162 219.308C219.315 219.308 220.25 218.394 220.25 217.267C220.25 216.14 219.315 215.226 218.162 215.226C217.009 215.226 216.074 216.14 216.074 217.267C216.074 218.394 217.009 219.308 218.162 219.308Z" fill="#512C2C"/>
<path d="M221.853 223.389C223.006 223.389 223.941 222.476 223.941 221.348C223.941 220.221 223.006 219.308 221.853 219.308C220.7 219.308 219.766 220.221 219.766 221.348C219.766 222.476 220.7 223.389 221.853 223.389Z" fill="#512C2C"/>
<path d="M226.209 226.537C227.362 226.537 228.297 225.623 228.297 224.496C228.297 223.369 227.362 222.455 226.209 222.455C225.056 222.455 224.121 223.369 224.121 224.496C224.121 225.623 225.056 226.537 226.209 226.537Z" fill="#512C2C"/>
<path d="M231.221 228.578C232.374 228.578 233.308 227.664 233.308 226.537C233.308 225.41 232.374 224.496 231.221 224.496C230.068 224.496 229.133 225.41 229.133 226.537C229.133 227.664 230.068 228.578 231.221 228.578Z" fill="#512C2C"/>
<path d="M270.057 157.611C271.21 157.611 272.144 156.698 272.144 155.571C272.144 154.443 271.21 153.53 270.057 153.53C268.903 153.53 267.969 154.443 267.969 155.571C267.969 156.698 268.903 157.611 270.057 157.611Z" fill="#512C2C"/>
<path d="M269.361 162.868C270.514 162.868 271.449 161.955 271.449 160.827C271.449 159.7 270.514 158.787 269.361 158.787C268.208 158.787 267.273 159.7 267.273 160.827C267.273 161.955 268.208 162.868 269.361 162.868Z" fill="#512C2C"/>
<path d="M268.486 168.125C269.639 168.125 270.574 167.211 270.574 166.084C270.574 164.957 269.639 164.043 268.486 164.043C267.333 164.043 266.398 164.957 266.398 166.084C266.398 167.211 267.333 168.125 268.486 168.125Z" fill="#512C2C"/>
<path d="M267.471 173.381C268.624 173.381 269.558 172.467 269.558 171.34C269.558 170.213 268.624 169.299 267.471 169.299C266.318 169.299 265.383 170.213 265.383 171.34C265.383 172.467 266.318 173.381 267.471 173.381Z" fill="#512C2C"/>
<path d="M266.596 178.361C267.749 178.361 268.683 177.447 268.683 176.32C268.683 175.193 267.749 174.279 266.596 174.279C265.443 174.279 264.508 175.193 264.508 176.32C264.508 177.447 265.443 178.361 266.596 178.361Z" fill="#512C2C"/>
<path d="M265.385 183.572C266.538 183.572 267.472 182.658 267.472 181.531C267.472 180.404 266.538 179.49 265.385 179.49C264.232 179.49 263.297 180.404 263.297 181.531C263.297 182.658 264.232 183.572 265.385 183.572Z" fill="#512C2C"/>
<path d="M263.814 188.782C264.967 188.782 265.902 187.869 265.902 186.742C265.902 185.614 264.967 184.701 263.814 184.701C262.661 184.701 261.727 185.614 261.727 186.742C261.727 187.869 262.661 188.782 263.814 188.782Z" fill="#512C2C"/>
<path d="M262.424 194.27C263.577 194.27 264.511 193.356 264.511 192.229C264.511 191.102 263.577 190.188 262.424 190.188C261.271 190.188 260.336 191.102 260.336 192.229C260.336 193.356 261.271 194.27 262.424 194.27Z" fill="#512C2C"/>
<path d="M260.533 199.48C261.686 199.48 262.621 198.566 262.621 197.439C262.621 196.312 261.686 195.398 260.533 195.398C259.38 195.398 258.445 196.312 258.445 197.439C258.445 198.566 259.38 199.48 260.533 199.48Z" fill="#512C2C"/>
<path d="M258.439 204.69C259.592 204.69 260.527 203.776 260.527 202.649C260.527 201.522 259.592 200.608 258.439 200.608C257.286 200.608 256.352 201.522 256.352 202.649C256.352 203.776 257.286 204.69 258.439 204.69Z" fill="#512C2C"/>
<path d="M256.045 209.9C257.198 209.9 258.133 208.987 258.133 207.86C258.133 206.733 257.198 205.819 256.045 205.819C254.892 205.819 253.957 206.733 253.957 207.86C253.957 208.987 254.892 209.9 256.045 209.9Z" fill="#512C2C"/>
<path d="M253.24 214.812C254.393 214.812 255.328 213.898 255.328 212.771C255.328 211.644 254.393 210.73 253.24 210.73C252.087 210.73 251.152 211.644 251.152 212.771C251.152 213.898 252.087 214.812 253.24 214.812Z" fill="#512C2C"/>
<path d="M250.06 219.308C251.213 219.308 252.148 218.394 252.148 217.267C252.148 216.14 251.213 215.226 250.06 215.226C248.907 215.226 247.973 216.14 247.973 217.267C247.973 218.394 248.907 219.308 250.06 219.308Z" fill="#512C2C"/>
<path d="M246.369 223.389C247.522 223.389 248.457 222.476 248.457 221.348C248.457 220.221 247.522 219.308 246.369 219.308C245.216 219.308 244.281 220.221 244.281 221.348C244.281 222.476 245.216 223.389 246.369 223.389Z" fill="#512C2C"/>
<path d="M242.014 226.537C243.167 226.537 244.101 225.623 244.101 224.496C244.101 223.369 243.167 222.455 242.014 222.455C240.861 222.455 239.926 223.369 239.926 224.496C239.926 225.623 240.861 226.537 242.014 226.537Z" fill="#512C2C"/>
<path d="M236.998 228.578C238.151 228.578 239.086 227.664 239.086 226.537C239.086 225.41 238.151 224.496 236.998 224.496C235.845 224.496 234.91 225.41 234.91 226.537C234.91 227.664 235.845 228.578 236.998 228.578Z" fill="#512C2C"/>
</svg>
